<?xml version="1.0" encoding="UTF-8" standalone="no"?>
<!DOCTYPE svg PUBLIC "-//W3C//DTD SVG 1.1//EN"
 "http://www.w3.org/Graphics/SVG/1.1/DTD/svg11.dtd">
<!-- Generated by graphviz version 2.43.0 (0)
 -->
<!-- Title: Piduino::BashCompletionOptionPrinter Pages: 1 -->
<svg width="190pt" height="213pt"
 viewBox="0.00 0.00 190.00 213.00" xmlns="http://www.w3.org/2000/svg" xmlns:xlink="http://www.w3.org/1999/xlink">
<g id="graph0" class="graph" transform="scale(1 1) rotate(0) translate(4 209)">
<title>Piduino::BashCompletionOptionPrinter</title>
<!-- Node1 -->
<g id="Node000001" class="node">
<title>Node1</title>
<g id="a_Node000001"><a xlink:title="Option printer for bash completion.">
<polygon fill="#999999" stroke="transparent" points="182,-90 0,-90 0,0 182,0 182,-90"/>
<text text-anchor="start" x="13.5" y="-78" font-family="Helvetica,sans-Serif" font-size="10.00">Piduino::BashCompletionOption</text>
<text text-anchor="start" x="74.5" y="-67" font-family="Helvetica,sans-Serif" font-size="10.00">Printer</text>
<text text-anchor="start" x="6.5" y="-52" font-family="Helvetica,sans-Serif" font-size="10.00">&#45;</text>
<text text-anchor="start" x="17" y="-52" font-family="Helvetica,sans-Serif" font-size="10.00">program_name_</text>
<text text-anchor="start" x="4" y="-37" font-family="Helvetica,sans-Serif" font-size="10.00">+</text>
<text text-anchor="start" x="17" y="-37" font-family="Helvetica,sans-Serif" font-size="10.00">BashCompletionOptionPrinter()</text>
<text text-anchor="start" x="4" y="-22" font-family="Helvetica,sans-Serif" font-size="10.00">+</text>
<text text-anchor="start" x="17" y="-22" font-family="Helvetica,sans-Serif" font-size="10.00">~BashCompletionOptionPrinter()</text>
<text text-anchor="start" x="4" y="-7" font-family="Helvetica,sans-Serif" font-size="10.00">+</text>
<text text-anchor="start" x="17" y="-7" font-family="Helvetica,sans-Serif" font-size="10.00">print()</text>
<polygon fill="#666666" stroke="#666666" points="0,-62 0,-62 182,-62 182,-62 0,-62"/>
<polygon fill="#666666" stroke="#666666" points="0,-47 0,-47 15,-47 15,-47 0,-47"/>
<polygon fill="#666666" stroke="#666666" points="15,-47 15,-47 182,-47 182,-47 15,-47"/>
<polygon fill="none" stroke="#666666" points="0,0 0,-90 182,-90 182,0 0,0"/>
</a>
</g>
</g>
<!-- Node2 -->
<g id="Node000002" class="node">
<title>Node2</title>
<g id="a_Node000002"><a xlink:href="class_piduino_1_1_option_printer.html" target="_top" xlink:title="Base class for an OptionPrinter.">
<polygon fill="white" stroke="transparent" points="149.5,-205 32.5,-205 32.5,-126 149.5,-126 149.5,-205"/>
<text text-anchor="start" x="38" y="-192.5" font-family="Helvetica,sans-Serif" font-size="10.00">Piduino::OptionPrinter</text>
<text text-anchor="start" x="40.5" y="-177.5" font-family="Helvetica,sans-Serif" font-size="10.00">#</text>
<text text-anchor="start" x="57" y="-177.5" font-family="Helvetica,sans-Serif" font-size="10.00">option_parser_</text>
<text text-anchor="start" x="40.5" y="-162.5" font-family="Helvetica,sans-Serif" font-size="10.00">+</text>
<text text-anchor="start" x="57" y="-162.5" font-family="Helvetica,sans-Serif" font-size="10.00">OptionPrinter()</text>
<text text-anchor="start" x="40.5" y="-147.5" font-family="Helvetica,sans-Serif" font-size="10.00">+</text>
<text text-anchor="start" x="57" y="-147.5" font-family="Helvetica,sans-Serif" font-size="10.00">~OptionPrinter()</text>
<text text-anchor="start" x="40.5" y="-132.5" font-family="Helvetica,sans-Serif" font-size="10.00">+</text>
<text text-anchor="start" x="57" y="-132.5" font-family="Helvetica,sans-Serif" font-size="10.00">print()</text>
<polygon fill="#666666" stroke="#666666" points="33,-187.5 33,-187.5 150,-187.5 150,-187.5 33,-187.5"/>
<polygon fill="#666666" stroke="#666666" points="33,-172.5 33,-172.5 55,-172.5 55,-172.5 33,-172.5"/>
<polygon fill="#666666" stroke="#666666" points="55,-172.5 55,-172.5 150,-172.5 150,-172.5 55,-172.5"/>
<polygon fill="none" stroke="#666666" points="32.5,-126 32.5,-205 149.5,-205 149.5,-126 32.5,-126"/>
</a>
</g>
</g>
<!-- Node2&#45;&gt;Node1 -->
<g id="edge1_Node000001_Node000002" class="edge">
<title>Node2&#45;&gt;Node1</title>
<g id="a_edge1_Node000001_Node000002"><a xlink:title=" ">
<path fill="none" stroke="#63b8ff" d="M91,-115.63C91,-107.21 91,-98.51 91,-90.23"/>
<polygon fill="none" stroke="#63b8ff" points="87.5,-115.7 91,-125.7 94.5,-115.7 87.5,-115.7"/>
</a>
</g>
</g>
</g>
</svg>
