<?xml version="1.0" encoding="UTF-8" standalone="no"?>
<!DOCTYPE svg PUBLIC "-//W3C//DTD SVG 1.1//EN"
 "http://www.w3.org/Graphics/SVG/1.1/DTD/svg11.dtd">
<!-- Generated by graphviz version 2.43.0 (0)
 -->
<!-- Title: Piduino::OptionPrinter Pages: 1 -->
<!--zoomable 699 -->

<svg id="main" version="1.1" xmlns="http://www.w3.org/2000/svg" xmlns:xlink="http://www.w3.org/1999/xlink" xml:space="preserve" onload="init(evt)">
<style type="text/css"><![CDATA[
.node, .edge {opacity: 0.7;}
.node.selected, .edge.selected {opacity: 1;}
.edge:hover path { stroke: red; }
.edge:hover polygon { stroke: red; fill: red; }
]]></style>

<defs>
  <circle id="rim" cx="0" cy="0" r="7"/>
  <circle id="rim2" cx="0" cy="0" r="3.5"/>
  <g id="zoomPlus">
    <use xlink:href="#rim" fill="#404040"><set attributeName="fill" to="#808080" begin="zoomplus.mouseover" end="zoomplus.mouseout"/></use>
    <path d="M-4,0h8M0,-4v8" fill="none" stroke="white" stroke-width="1.5" pointer-events="none"/>
  </g>
  <g id="zoomMin">
    <use xlink:href="#rim" fill="#404040"><set attributeName="fill" to="#808080" begin="zoomminus.mouseover" end="zoomminus.mouseout"/></use>
    <path d="M-4,0h8" fill="none" stroke="white" stroke-width="1.5" pointer-events="none"/>
  </g>
  <g id="arrowUp" transform="translate(30 24)">
    <use xlink:href="#rim"/>
    <path pointer-events="none" fill="none" stroke="white" stroke-width="1.5" d="M0,-3.0v7 M-2.5,-0.5L0,-3.0L2.5,-0.5"/>
  </g>
  <g id="arrowRight" transform="rotate(90) translate(36 -43)">
    <use xlink:href="#rim"/>
    <path pointer-events="none" fill="none" stroke="white" stroke-width="1.5" d="M0,-3.0v7 M-2.5,-0.5L0,-3.0L2.5,-0.5"/>
  </g>
  <g id="arrowDown" transform="rotate(180) translate(-30 -48)">
    <use xlink:href="#rim"/>
    <path pointer-events="none" fill="none" stroke="white" stroke-width="1.5" d="M0,-3.0v7 M-2.5,-0.5L0,-3.0L2.5,-0.5"/>
  </g>
  <g id="arrowLeft" transform="rotate(270) translate(-36 17)">
    <use xlink:href="#rim"/>
    <path pointer-events="none" fill="none" stroke="white" stroke-width="1.5" d="M0,-3.0v7 M-2.5,-0.5L0,-3.0L2.5,-0.5"/>
  </g>
  <g id="resetDef">
    <use xlink:href="#rim2" fill="#404040"><set attributeName="fill" to="#808080" begin="reset.mouseover" end="reset.mouseout"/></use>
  </g>
</defs>
<script type="application/ecmascript">
var viewWidth = 499;
var viewHeight = 699;
var sectionId = 'dynsection-1';
</script>
<script type="application/ecmascript" xlink:href="svg.min.js"/>
<svg id="graph" class="graph">
<g id="viewport">
<title>Piduino::OptionPrinter</title>
<!-- Node1 -->
<g id="Node000001" class="node">
<title>Node1</title>
<g id="a_Node000001"><a xlink:title="Base class for an OptionPrinter.">
<polygon fill="#999999" stroke="transparent" points="342.5,-79 225.5,-79 225.5,0 342.5,0 342.5,-79"/>
<text text-anchor="start" x="231" y="-66.5" font-family="Helvetica,sans-Serif" font-size="10.00">Piduino::OptionPrinter</text>
<text text-anchor="start" x="282.5" y="-51.5" font-family="Helvetica,sans-Serif" font-size="10.00"> </text>
<text text-anchor="start" x="233.5" y="-36.5" font-family="Helvetica,sans-Serif" font-size="10.00">+</text>
<text text-anchor="start" x="250" y="-36.5" font-family="Helvetica,sans-Serif" font-size="10.00">OptionPrinter()</text>
<text text-anchor="start" x="233.5" y="-21.5" font-family="Helvetica,sans-Serif" font-size="10.00">+</text>
<text text-anchor="start" x="250" y="-21.5" font-family="Helvetica,sans-Serif" font-size="10.00">~OptionPrinter()</text>
<text text-anchor="start" x="233.5" y="-6.5" font-family="Helvetica,sans-Serif" font-size="10.00">+</text>
<text text-anchor="start" x="250" y="-6.5" font-family="Helvetica,sans-Serif" font-size="10.00">print()</text>
<polygon fill="#666666" stroke="#666666" points="226,-61.5 226,-61.5 343,-61.5 343,-61.5 226,-61.5"/>
<polygon fill="#666666" stroke="#666666" points="226,-46.5 226,-46.5 343,-46.5 343,-46.5 226,-46.5"/>
<polygon fill="none" stroke="#666666" points="225.5,0 225.5,-79 342.5,-79 342.5,0 225.5,0"/>
</a>
</g>
</g>
<!-- Node2 -->
<g id="Node000002" class="node">
<title>Node2</title>
<g id="a_Node000002"><a xlink:href="class_piduino_1_1_option_parser.html" target="_top" xlink:title="OptionParser manages all Options.">
<polygon fill="white" stroke="transparent" points="341.5,-370 226.5,-370 226.5,-126 341.5,-126 341.5,-370"/>
<text text-anchor="start" x="232" y="-358" font-family="Helvetica,sans-Serif" font-size="10.00">Piduino::OptionParser</text>
<text text-anchor="start" x="282.5" y="-343" font-family="Helvetica,sans-Serif" font-size="10.00"> </text>
<text text-anchor="start" x="231" y="-328" font-family="Helvetica,sans-Serif" font-size="10.00">+</text>
<text text-anchor="start" x="244" y="-328" font-family="Helvetica,sans-Serif" font-size="10.00">OptionParser()</text>
<text text-anchor="start" x="231" y="-313" font-family="Helvetica,sans-Serif" font-size="10.00">+</text>
<text text-anchor="start" x="244" y="-313" font-family="Helvetica,sans-Serif" font-size="10.00">~OptionParser()</text>
<text text-anchor="start" x="231" y="-298" font-family="Helvetica,sans-Serif" font-size="10.00">+</text>
<text text-anchor="start" x="244" y="-298" font-family="Helvetica,sans-Serif" font-size="10.00">add()</text>
<text text-anchor="start" x="231" y="-283" font-family="Helvetica,sans-Serif" font-size="10.00">+</text>
<text text-anchor="start" x="244" y="-283" font-family="Helvetica,sans-Serif" font-size="10.00">add()</text>
<text text-anchor="start" x="231" y="-268" font-family="Helvetica,sans-Serif" font-size="10.00">+</text>
<text text-anchor="start" x="244" y="-268" font-family="Helvetica,sans-Serif" font-size="10.00">parse()</text>
<text text-anchor="start" x="231" y="-253" font-family="Helvetica,sans-Serif" font-size="10.00">+</text>
<text text-anchor="start" x="244" y="-253" font-family="Helvetica,sans-Serif" font-size="10.00">help()</text>
<text text-anchor="start" x="231" y="-238" font-family="Helvetica,sans-Serif" font-size="10.00">+</text>
<text text-anchor="start" x="244" y="-238" font-family="Helvetica,sans-Serif" font-size="10.00">description()</text>
<text text-anchor="start" x="231" y="-223" font-family="Helvetica,sans-Serif" font-size="10.00">+</text>
<text text-anchor="start" x="244" y="-223" font-family="Helvetica,sans-Serif" font-size="10.00">options()</text>
<text text-anchor="start" x="231" y="-208" font-family="Helvetica,sans-Serif" font-size="10.00">+</text>
<text text-anchor="start" x="244" y="-208" font-family="Helvetica,sans-Serif" font-size="10.00">non_option_args()</text>
<text text-anchor="start" x="231" y="-193" font-family="Helvetica,sans-Serif" font-size="10.00">+</text>
<text text-anchor="start" x="244" y="-193" font-family="Helvetica,sans-Serif" font-size="10.00">unknown_options()</text>
<text text-anchor="start" x="231" y="-178" font-family="Helvetica,sans-Serif" font-size="10.00">+</text>
<text text-anchor="start" x="244" y="-178" font-family="Helvetica,sans-Serif" font-size="10.00">get_option()</text>
<text text-anchor="start" x="231" y="-163" font-family="Helvetica,sans-Serif" font-size="10.00">+</text>
<text text-anchor="start" x="244" y="-163" font-family="Helvetica,sans-Serif" font-size="10.00">get_option()</text>
<text text-anchor="start" x="231" y="-148" font-family="Helvetica,sans-Serif" font-size="10.00">#</text>
<text text-anchor="start" x="244" y="-148" font-family="Helvetica,sans-Serif" font-size="10.00">find_option()</text>
<text text-anchor="start" x="231" y="-133" font-family="Helvetica,sans-Serif" font-size="10.00">#</text>
<text text-anchor="start" x="244" y="-133" font-family="Helvetica,sans-Serif" font-size="10.00">find_option()</text>
<polygon fill="#666666" stroke="#666666" points="227,-353 227,-353 342,-353 342,-353 227,-353"/>
<polygon fill="#666666" stroke="#666666" points="227,-338 227,-338 342,-338 342,-338 227,-338"/>
<polygon fill="none" stroke="#666666" points="226.5,-126 226.5,-370 341.5,-370 341.5,-126 226.5,-126"/>
</a>
</g>
</g>
<!-- Node2&#45;&gt;Node1 -->
<g id="edge1_Node000001_Node000002" class="edge">
<title>Node2&#45;&gt;Node1</title>
<g id="a_edge1_Node000001_Node000002"><a xlink:title=" ">
<path fill="none" stroke="#63b8ff" d="M284,-125.98C284,-113.83 284,-102.03 284,-91.25"/>
<polygon fill="none" stroke="#63b8ff" points="284,-91.13 280,-85.13 284,-79.13 288,-85.13 284,-91.13"/>
</a>
</g>
<text text-anchor="middle" x="326" y="-100" font-family="Helvetica,sans-Serif" font-size="10.00" fill="grey"> #option_parser_</text>
</g>
<!-- Node3 -->
<g id="Node000003" class="node">
<title>Node3</title>
<g id="a_Node000003"><a xlink:title=" ">
<polygon fill="white" stroke="transparent" points="190,-488 84,-488 84,-428 190,-428 190,-488"/>
<text text-anchor="start" x="89" y="-476" font-family="Helvetica,sans-Serif" font-size="10.00">std::vector&lt; Option</text>
<text text-anchor="start" x="121.5" y="-465" font-family="Helvetica,sans-Serif" font-size="10.00">_ptr &gt;</text>
<text text-anchor="start" x="135" y="-450" font-family="Helvetica,sans-Serif" font-size="10.00"> </text>
<text text-anchor="start" x="135" y="-435" font-family="Helvetica,sans-Serif" font-size="10.00"> </text>
<polygon fill="#666666" stroke="#666666" points="84,-460 84,-460 190,-460 190,-460 84,-460"/>
<polygon fill="#666666" stroke="#666666" points="84,-445 84,-445 190,-445 190,-445 84,-445"/>
<polygon fill="none" stroke="#666666" points="84,-428 84,-488 190,-488 190,-428 84,-428"/>
</a>
</g>
</g>
<!-- Node3&#45;&gt;Node2 -->
<g id="edge2_Node000002_Node000003" class="edge">
<title>Node3&#45;&gt;Node2</title>
<g id="a_edge2_Node000002_Node000003"><a xlink:title=" ">
<path fill="none" stroke="#63b8ff" d="M157.75,-427.64C173.82,-404.9 196.99,-372.11 219.12,-340.81"/>
<polygon fill="none" stroke="#63b8ff" points="219.32,-340.51 219.52,-333.31 226.25,-330.71 226.05,-337.92 219.32,-340.51"/>
</a>
</g>
<text text-anchor="middle" x="211.5" y="-396.5" font-family="Helvetica,sans-Serif" font-size="10.00" fill="grey"> #options_</text>
</g>
<!-- Node4 -->
<g id="Node000004" class="node">
<title>Node4</title>
<g id="a_Node000004"><a xlink:title=" ">
<polygon fill="white" stroke="transparent" points="112,-584 0,-584 0,-535 112,-535 112,-584"/>
<text text-anchor="start" x="5" y="-571.5" font-family="Helvetica,sans-Serif" font-size="10.00">std::shared_ptr&lt; T &gt;</text>
<text text-anchor="start" x="54" y="-556.5" font-family="Helvetica,sans-Serif" font-size="10.00"> </text>
<text text-anchor="start" x="11.5" y="-541.5" font-family="Helvetica,sans-Serif" font-size="10.00">+</text>
<text text-anchor="start" x="32" y="-541.5" font-family="Helvetica,sans-Serif" font-size="10.00">operator&#45;&gt;()</text>
<polygon fill="#666666" stroke="#666666" points="0,-566.5 0,-566.5 112,-566.5 112,-566.5 0,-566.5"/>
<polygon fill="#666666" stroke="#666666" points="0,-551.5 0,-551.5 112,-551.5 112,-551.5 0,-551.5"/>
<polygon fill="none" stroke="#666666" points="0,-535 0,-584 112,-584 112,-535 0,-535"/>
</a>
</g>
</g>
<!-- Node4&#45;&gt;Node3 -->
<g id="edge3_Node000003_Node000004" class="edge">
<title>Node4&#45;&gt;Node3</title>
<g id="a_edge3_Node000003_Node000004"><a xlink:title=" ">
<path fill="none" stroke="#63b8ff" d="M60.33,-534.82C62.9,-525.24 66.89,-514.47 73,-506 75.34,-502.76 77.97,-499.65 80.8,-496.68"/>
<polygon fill="none" stroke="#63b8ff" points="81.04,-496.46 82.66,-489.43 89.77,-488.22 88.15,-495.25 81.04,-496.46"/>
</a>
</g>
<text text-anchor="middle" x="102" y="-509" font-family="Helvetica,sans-Serif" font-size="10.00" fill="grey"> +elements</text>
</g>
<!-- Node5 -->
<g id="Node000005" class="node">
<title>Node5</title>
<g id="a_Node000005"><a xlink:title=" ">
<polygon fill="white" stroke="transparent" points="115.5,-685.5 98.5,-685.5 98.5,-636.5 115.5,-636.5 115.5,-685.5"/>
<text text-anchor="start" x="104" y="-673" font-family="Helvetica,sans-Serif" font-size="10.00">T</text>
<text text-anchor="start" x="105.5" y="-658" font-family="Helvetica,sans-Serif" font-size="10.00"> </text>
<text text-anchor="start" x="105.5" y="-643" font-family="Helvetica,sans-Serif" font-size="10.00"> </text>
<polygon fill="#666666" stroke="#666666" points="99,-668 99,-668 116,-668 116,-668 99,-668"/>
<polygon fill="#666666" stroke="#666666" points="99,-653 99,-653 116,-653 116,-653 99,-653"/>
<polygon fill="none" stroke="#666666" points="98.5,-636.5 98.5,-685.5 115.5,-685.5 115.5,-636.5 98.5,-636.5"/>
</a>
</g>
</g>
<!-- Node5&#45;&gt;Node4 -->
<g id="edge4_Node000004_Node000005" class="edge">
<title>Node5&#45;&gt;Node4</title>
<g id="a_edge4_Node000004_Node000005"><a xlink:title=" ">
<path fill="none" stroke="#63b8ff" d="M98.35,-643.12C91.61,-629.97 82.02,-611.26 73.67,-594.98"/>
<polygon fill="none" stroke="#63b8ff" points="73.61,-594.87 67.32,-591.35 68.14,-584.19 74.44,-587.7 73.61,-594.87"/>
</a>
</g>
<text text-anchor="middle" x="94.5" y="-605" font-family="Helvetica,sans-Serif" font-size="10.00" fill="grey"> +ptr</text>
</g>
<!-- Node6 -->
<g id="Node000006" class="node">
<title>Node6</title>
<g id="a_Node000006"><a xlink:title=" ">
<polygon fill="white" stroke="transparent" points="221.5,-584 130.5,-584 130.5,-535 221.5,-535 221.5,-584"/>
<text text-anchor="start" x="136" y="-571.5" font-family="Helvetica,sans-Serif" font-size="10.00">std::vector&lt; T &gt;</text>
<text text-anchor="start" x="174.5" y="-556.5" font-family="Helvetica,sans-Serif" font-size="10.00"> </text>
<text text-anchor="start" x="174.5" y="-541.5" font-family="Helvetica,sans-Serif" font-size="10.00"> </text>
<polygon fill="#666666" stroke="#666666" points="131,-566.5 131,-566.5 222,-566.5 222,-566.5 131,-566.5"/>
<polygon fill="#666666" stroke="#666666" points="131,-551.5 131,-551.5 222,-551.5 222,-551.5 131,-551.5"/>
<polygon fill="none" stroke="#666666" points="130.5,-535 130.5,-584 221.5,-584 221.5,-535 130.5,-535"/>
</a>
</g>
</g>
<!-- Node5&#45;&gt;Node6 -->
<g id="edge6_Node000006_Node000005" class="edge">
<title>Node5&#45;&gt;Node6</title>
<g id="a_edge6_Node000006_Node000005"><a xlink:title=" ">
<path fill="none" stroke="#63b8ff" d="M115.74,-647.4C125,-634.05 140.01,-612.4 152.73,-594.06"/>
<polygon fill="none" stroke="#63b8ff" points="152.86,-593.86 153,-586.65 159.7,-584 159.57,-591.21 152.86,-593.86"/>
</a>
</g>
<text text-anchor="middle" x="175" y="-605" font-family="Helvetica,sans-Serif" font-size="10.00" fill="grey"> +elements</text>
</g>
<!-- Node6&#45;&gt;Node3 -->
<g id="edge5_Node000003_Node000006" class="edge">
<title>Node6&#45;&gt;Node3</title>
<g id="a_edge5_Node000003_Node000006"><a xlink:title=" ">
<path fill="none" stroke="orange" d="M142.94,-526.49C141,-523.45 139.31,-520.28 138,-517 134.42,-508.02 133.38,-497.62 133.49,-488.12"/>
<polygon fill="orange" stroke="orange" points="140.23,-528.7 148.98,-534.67 145.86,-524.55 140.23,-528.7"/>
</a>
</g>
<text text-anchor="middle" x="176.5" y="-509" font-family="Helvetica,sans-Serif" font-size="10.00" fill="grey"> &lt; Option_ptr &gt;</text>
</g>
<!-- Node9 -->
<g id="Node000009" class="node">
<title>Node9</title>
<g id="a_Node000009"><a xlink:title=" ">
<polygon fill="white" stroke="transparent" points="351,-482.5 217,-482.5 217,-433.5 351,-433.5 351,-482.5"/>
<text text-anchor="start" x="222" y="-470" font-family="Helvetica,sans-Serif" font-size="10.00">std::vector&lt; std::string &gt;</text>
<text text-anchor="start" x="282" y="-455" font-family="Helvetica,sans-Serif" font-size="10.00"> </text>
<text text-anchor="start" x="282" y="-440" font-family="Helvetica,sans-Serif" font-size="10.00"> </text>
<polygon fill="#666666" stroke="#666666" points="217,-465 217,-465 351,-465 351,-465 217,-465"/>
<polygon fill="#666666" stroke="#666666" points="217,-450 217,-450 351,-450 351,-450 217,-450"/>
<polygon fill="none" stroke="#666666" points="217,-433.5 217,-482.5 351,-482.5 351,-433.5 217,-433.5"/>
</a>
</g>
</g>
<!-- Node6&#45;&gt;Node9 -->
<g id="edge11_Node000009_Node000006" class="edge">
<title>Node6&#45;&gt;Node9</title>
<g id="a_edge11_Node000009_Node000006"><a xlink:title=" ">
<path fill="none" stroke="orange" d="M209.09,-528.01C224.88,-513.47 243.49,-496.32 258.21,-482.76"/>
<polygon fill="orange" stroke="orange" points="206.58,-525.57 201.59,-534.92 211.32,-530.72 206.58,-525.57"/>
</a>
</g>
<text text-anchor="middle" x="267.5" y="-509" font-family="Helvetica,sans-Serif" font-size="10.00" fill="grey"> &lt; std::string &gt;</text>
</g>
<!-- Node7 -->
<g id="Node000007" class="node">
<title>Node7</title>
<g id="a_Node000007"><a xlink:title=" ">
<polygon fill="white" stroke="transparent" points="400.5,-584 341.5,-584 341.5,-535 400.5,-535 400.5,-584"/>
<text text-anchor="start" x="347" y="-571.5" font-family="Helvetica,sans-Serif" font-size="10.00">std::string</text>
<text text-anchor="start" x="369.5" y="-556.5" font-family="Helvetica,sans-Serif" font-size="10.00"> </text>
<text text-anchor="start" x="369.5" y="-541.5" font-family="Helvetica,sans-Serif" font-size="10.00"> </text>
<polygon fill="#666666" stroke="#666666" points="342,-566.5 342,-566.5 401,-566.5 401,-566.5 342,-566.5"/>
<polygon fill="#666666" stroke="#666666" points="342,-551.5 342,-551.5 401,-551.5 401,-551.5 342,-551.5"/>
<polygon fill="none" stroke="#666666" points="341.5,-535 341.5,-584 400.5,-584 400.5,-535 341.5,-535"/>
</a>
</g>
</g>
<!-- Node7&#45;&gt;Node2 -->
<g id="edge7_Node000002_Node000007" class="edge">
<title>Node7&#45;&gt;Node2</title>
<g id="a_edge7_Node000002_Node000007"><a xlink:title=" ">
<path fill="none" stroke="#63b8ff" d="M386.8,-534.79C389.77,-529.18 392.43,-523.06 394,-517 402.17,-485.41 467.48,-608.08 388,-388 379.21,-363.65 364.61,-339.99 349.08,-319.3"/>
<polygon fill="none" stroke="#63b8ff" points="349,-319.2 342.17,-316.9 341.66,-309.71 348.49,-312 349,-319.2"/>
</a>
</g>
<text text-anchor="middle" x="455.5" y="-455.5" font-family="Helvetica,sans-Serif" font-size="10.00" fill="grey"> #description_</text>
</g>
<!-- Node7&#45;&gt;Node9 -->
<g id="edge10_Node000009_Node000007" class="edge">
<title>Node7&#45;&gt;Node9</title>
<g id="a_edge10_Node000009_Node000007"><a xlink:title=" ">
<path fill="none" stroke="#63b8ff" d="M350.38,-534.92C339.2,-522.13 325.19,-506.1 312.93,-492.08"/>
<polygon fill="none" stroke="#63b8ff" points="312.67,-491.79 305.71,-489.91 304.77,-482.76 311.73,-484.64 312.67,-491.79"/>
</a>
</g>
<text text-anchor="middle" x="362" y="-509" font-family="Helvetica,sans-Serif" font-size="10.00" fill="grey"> +elements</text>
</g>
<!-- Node8 -->
<g id="Node000008" class="node">
<title>Node8</title>
<g id="a_Node000008"><a xlink:title=" ">
<polygon fill="white" stroke="transparent" points="420,-691 322,-691 322,-631 420,-631 420,-691"/>
<text text-anchor="start" x="327" y="-679" font-family="Helvetica,sans-Serif" font-size="10.00">std::basic_string&lt;</text>
<text text-anchor="start" x="352.5" y="-668" font-family="Helvetica,sans-Serif" font-size="10.00"> Char &gt;</text>
<text text-anchor="start" x="369" y="-653" font-family="Helvetica,sans-Serif" font-size="10.00"> </text>
<text text-anchor="start" x="369" y="-638" font-family="Helvetica,sans-Serif" font-size="10.00"> </text>
<polygon fill="#666666" stroke="#666666" points="322,-663 322,-663 420,-663 420,-663 322,-663"/>
<polygon fill="#666666" stroke="#666666" points="322,-648 322,-648 420,-648 420,-648 322,-648"/>
<polygon fill="none" stroke="#666666" points="322,-631 322,-691 420,-691 420,-631 322,-631"/>
</a>
</g>
</g>
<!-- Node8&#45;&gt;Node7 -->
<g id="edge8_Node000007_Node000008" class="edge">
<title>Node8&#45;&gt;Node7</title>
<g id="a_edge8_Node000007_Node000008"><a xlink:title=" ">
<path fill="none" stroke="#63b8ff" d="M371,-620.8C371,-608.38 371,-595.03 371,-584.06"/>
<polygon fill="none" stroke="#63b8ff" points="367.5,-620.95 371,-630.95 374.5,-620.95 367.5,-620.95"/>
</a>
</g>
</g>
<!-- Node9&#45;&gt;Node2 -->
<g id="edge9_Node000002_Node000009" class="edge">
<title>Node9&#45;&gt;Node2</title>
<g id="a_edge9_Node000002_Node000009"><a xlink:title=" ">
<path fill="none" stroke="#63b8ff" d="M284,-433.14C284,-419.71 284,-401.75 284,-382.3"/>
<polygon fill="none" stroke="#63b8ff" points="284,-382.03 280,-376.03 284,-370.03 288,-376.03 284,-382.03"/>
</a>
</g>
<text text-anchor="middle" x="334" y="-402" font-family="Helvetica,sans-Serif" font-size="10.00" fill="grey"> #non_option_args_</text>
<text text-anchor="middle" x="334" y="-391" font-family="Helvetica,sans-Serif" font-size="10.00" fill="grey">#unknown_options_</text>
</g>
</g>
</svg>

<g id="navigator" transform="translate(0 0)" fill="#404254">
  <rect fill="#f2f5e9" fill-opacity="0.5" stroke="#606060" stroke-width=".5" x="0" y="0" width="60" height="60"/>
  <use id="zoomplus" xlink:href="#zoomPlus" x="17" y="9" onmousedown="handleZoom(evt,'in')"/>
  <use id="zoomminus" xlink:href="#zoomMin" x="42" y="9" onmousedown="handleZoom(evt,'out')"/>
  <use id="reset" xlink:href="#resetDef" x="30" y="36" onmousedown="handleReset()"/>
   <use id="arrowup" xlink:href="#arrowUp" x="0" y="0" onmousedown="handlePan(0,-1)"/>
  <use id="arrowright" xlink:href="#arrowRight" x="0" y="0" onmousedown="handlePan(1,0)"/>
  <use id="arrowdown" xlink:href="#arrowDown" x="0" y="0" onmousedown="handlePan(0,1)"/>
  <use id="arrowleft" xlink:href="#arrowLeft" x="0" y="0" onmousedown="handlePan(-1,0)"/>
</g>
<svg viewBox="0 0 15 15" width="100%" height="30px" preserveAspectRatio="xMaxYMin meet">
 <g id="arrow_out" transform="scale(0.3 0.3)">
  <a xlink:href="class_piduino_1_1_option_printer__coll__graph_org.svg" target="_base">
   <rect id="button" ry="5" rx="5" y="6" x="6" height="38" width="38"
        fill="#f2f5e9" fill-opacity="0.5" stroke="#606060" stroke-width="1.0"/>
   <path id="arrow"
     d="M 11.500037,31.436501 C 11.940474,20.09759 22.043105,11.32322 32.158766,21.979434 L 37.068811,17.246167 C 37.068811,17.246167 37.088388,32 37.088388,32 L 22.160133,31.978069 C 22.160133,31.978069 26.997745,27.140456 26.997745,27.140456 C 18.528582,18.264221 13.291696,25.230495 11.500037,31.436501 z"
     style="fill:#404040;"/>
  </a>
 </g>
</svg>

<style type='text/css'>
<![CDATA[
[data-mouse-over-selected='false'] { opacity: 0.7; }
[data-mouse-over-selected='true']  { opacity: 1.0; }
]]>
</style>
<script type="application/ecmascript"><![CDATA[
document.addEventListener('DOMContentLoaded', (event) => {
  highlightEdges();
  highlightAdjacentNodes();
});
]]></script>
</svg>
