<?xml version="1.0" encoding="UTF-8" standalone="no"?>
<!DOCTYPE svg PUBLIC "-//W3C//DTD SVG 1.1//EN"
 "http://www.w3.org/Graphics/SVG/1.1/DTD/svg11.dtd">
<!-- Generated by graphviz version 2.43.0 (0)
 -->
<!-- Title: Piduino::Scheduler Pages: 1 -->
<svg width="183pt" height="299pt"
 viewBox="0.00 0.00 182.50 299.00" xmlns="http://www.w3.org/2000/svg" xmlns:xlink="http://www.w3.org/1999/xlink">
<g id="graph0" class="graph" transform="scale(1 1) rotate(0) translate(4 295)">
<title>Piduino::Scheduler</title>
<!-- Node1 -->
<g id="Node000001" class="node">
<title>Node1</title>
<g id="a_Node000001"><a xlink:title=" ">
<polygon fill="#999999" stroke="transparent" points="128.5,-184 10.5,-184 10.5,0 128.5,0 128.5,-184"/>
<text text-anchor="start" x="24" y="-172" font-family="Helvetica,sans-Serif" font-size="10.00">Piduino::Scheduler</text>
<text text-anchor="start" x="67.5" y="-157" font-family="Helvetica,sans-Serif" font-size="10.00"> </text>
<text text-anchor="start" x="14.5" y="-142" font-family="Helvetica,sans-Serif" font-size="10.00">+</text>
<text text-anchor="start" x="27.5" y="-142" font-family="Helvetica,sans-Serif" font-size="10.00">Scheduler()</text>
<text text-anchor="start" x="14.5" y="-127" font-family="Helvetica,sans-Serif" font-size="10.00">+</text>
<text text-anchor="start" x="27.5" y="-127" font-family="Helvetica,sans-Serif" font-size="10.00">noInterrupts()</text>
<text text-anchor="start" x="14.5" y="-112" font-family="Helvetica,sans-Serif" font-size="10.00">+</text>
<text text-anchor="start" x="27.5" y="-112" font-family="Helvetica,sans-Serif" font-size="10.00">interrupts()</text>
<text text-anchor="start" x="14.5" y="-97" font-family="Helvetica,sans-Serif" font-size="10.00">+</text>
<text text-anchor="start" x="27.5" y="-97" font-family="Helvetica,sans-Serif" font-size="10.00">interrupPriority()</text>
<text text-anchor="start" x="14.5" y="-82" font-family="Helvetica,sans-Serif" font-size="10.00">+</text>
<text text-anchor="start" x="27.5" y="-82" font-family="Helvetica,sans-Serif" font-size="10.00">setInterrupPriority()</text>
<text text-anchor="start" x="14.5" y="-67" font-family="Helvetica,sans-Serif" font-size="10.00">+</text>
<text text-anchor="start" x="27.5" y="-67" font-family="Helvetica,sans-Serif" font-size="10.00">setRtPriority()</text>
<text text-anchor="start" x="14.5" y="-52" font-family="Helvetica,sans-Serif" font-size="10.00">+</text>
<text text-anchor="start" x="27.5" y="-52" font-family="Helvetica,sans-Serif" font-size="10.00">rtPriority()</text>
<text text-anchor="start" x="14.5" y="-37" font-family="Helvetica,sans-Serif" font-size="10.00">+</text>
<text text-anchor="start" x="27.5" y="-37" font-family="Helvetica,sans-Serif" font-size="10.00">rtPriorityMin()</text>
<text text-anchor="start" x="14.5" y="-22" font-family="Helvetica,sans-Serif" font-size="10.00">+</text>
<text text-anchor="start" x="27.5" y="-22" font-family="Helvetica,sans-Serif" font-size="10.00">rtPriorityMax()</text>
<text text-anchor="start" x="14.5" y="-7" font-family="Helvetica,sans-Serif" font-size="10.00">+</text>
<text text-anchor="start" x="27.5" y="-7" font-family="Helvetica,sans-Serif" font-size="10.00">yield()</text>
<polygon fill="#666666" stroke="#666666" points="10.5,-167 10.5,-167 128.5,-167 128.5,-167 10.5,-167"/>
<polygon fill="#666666" stroke="#666666" points="10.5,-152 10.5,-152 128.5,-152 128.5,-152 10.5,-152"/>
<polygon fill="none" stroke="#666666" points="10.5,0 10.5,-184 128.5,-184 128.5,0 10.5,0"/>
</a>
</g>
</g>
<!-- Node2 -->
<g id="Node000002" class="node">
<title>Node2</title>
<g id="a_Node000002"><a xlink:title=" ">
<polygon fill="white" stroke="transparent" points="23,-291 0,-291 0,-242 23,-242 23,-291"/>
<text text-anchor="start" x="5.5" y="-278.5" font-family="Helvetica,sans-Serif" font-size="10.00">int</text>
<text text-anchor="start" x="10" y="-263.5" font-family="Helvetica,sans-Serif" font-size="10.00"> </text>
<text text-anchor="start" x="10" y="-248.5" font-family="Helvetica,sans-Serif" font-size="10.00"> </text>
<polygon fill="#666666" stroke="#666666" points="0.5,-273.5 0.5,-273.5 23.5,-273.5 23.5,-273.5 0.5,-273.5"/>
<polygon fill="#666666" stroke="#666666" points="0.5,-258.5 0.5,-258.5 23.5,-258.5 23.5,-258.5 0.5,-258.5"/>
<polygon fill="none" stroke="#666666" points="0,-242 0,-291 23,-291 23,-242 0,-242"/>
</a>
</g>
</g>
<!-- Node2&#45;&gt;Node1 -->
<g id="edge1_Node000001_Node000002" class="edge">
<title>Node2&#45;&gt;Node1</title>
<g id="a_edge1_Node000001_Node000002"><a xlink:title=" ">
<path fill="none" stroke="#63b8ff" d="M9.3,-241.94C8.81,-229.82 9.22,-214.93 12.5,-202 13.02,-199.97 13.57,-197.94 14.17,-195.91"/>
<polygon fill="none" stroke="#63b8ff" points="14.25,-195.67 12.33,-188.72 18.01,-184.27 19.93,-191.22 14.25,-195.67"/>
</a>
</g>
<text text-anchor="middle" x="59.5" y="-216" font-family="Helvetica,sans-Serif" font-size="10.00" fill="grey"> #_interruptPriority</text>
<text text-anchor="middle" x="59.5" y="-205" font-family="Helvetica,sans-Serif" font-size="10.00" fill="grey">#_previousPriority</text>
</g>
<!-- Node3 -->
<g id="Node000003" class="node">
<title>Node3</title>
<g id="a_Node000003"><a xlink:title=" ">
<polygon fill="white" stroke="transparent" points="160,-291 97,-291 97,-242 160,-242 160,-291"/>
<text text-anchor="start" x="102.5" y="-278.5" font-family="Helvetica,sans-Serif" font-size="10.00">std::mutex</text>
<text text-anchor="start" x="127" y="-263.5" font-family="Helvetica,sans-Serif" font-size="10.00"> </text>
<text text-anchor="start" x="127" y="-248.5" font-family="Helvetica,sans-Serif" font-size="10.00"> </text>
<polygon fill="#666666" stroke="#666666" points="97.5,-273.5 97.5,-273.5 160.5,-273.5 160.5,-273.5 97.5,-273.5"/>
<polygon fill="#666666" stroke="#666666" points="97.5,-258.5 97.5,-258.5 160.5,-258.5 160.5,-258.5 97.5,-258.5"/>
<polygon fill="none" stroke="#666666" points="97,-242 97,-291 160,-291 160,-242 97,-242"/>
</a>
</g>
</g>
<!-- Node3&#45;&gt;Node1 -->
<g id="edge2_Node000001_Node000003" class="edge">
<title>Node3&#45;&gt;Node1</title>
<g id="a_edge2_Node000001_Node000003"><a xlink:title=" ">
<path fill="none" stroke="#63b8ff" d="M120.42,-241.88C116.12,-229.31 110.51,-212.9 104.58,-195.58"/>
<polygon fill="none" stroke="#63b8ff" points="104.54,-195.44 98.81,-191.06 100.66,-184.09 106.38,-188.47 104.54,-195.44"/>
</a>
</g>
<text text-anchor="middle" x="144" y="-210.5" font-family="Helvetica,sans-Serif" font-size="10.00" fill="grey"> #_intMutex</text>
</g>
</g>
</svg>
