<?xml version="1.0" encoding="UTF-8" standalone="no"?>
<!DOCTYPE svg PUBLIC "-//W3C//DTD SVG 1.1//EN"
 "http://www.w3.org/Graphics/SVG/1.1/DTD/svg11.dtd">
<!-- Generated by graphviz version 2.43.0 (0)
 -->
<!-- Title: Piduino::SpiDev::Cs Pages: 1 -->
<!--zoomable 917 -->

<svg id="main" version="1.1" xmlns="http://www.w3.org/2000/svg" xmlns:xlink="http://www.w3.org/1999/xlink" xml:space="preserve" onload="init(evt)">
<style type="text/css"><![CDATA[
.node, .edge {opacity: 0.7;}
.node.selected, .edge.selected {opacity: 1;}
.edge:hover path { stroke: red; }
.edge:hover polygon { stroke: red; fill: red; }
]]></style>

<defs>
  <circle id="rim" cx="0" cy="0" r="7"/>
  <circle id="rim2" cx="0" cy="0" r="3.5"/>
  <g id="zoomPlus">
    <use xlink:href="#rim" fill="#404040"><set attributeName="fill" to="#808080" begin="zoomplus.mouseover" end="zoomplus.mouseout"/></use>
    <path d="M-4,0h8M0,-4v8" fill="none" stroke="white" stroke-width="1.5" pointer-events="none"/>
  </g>
  <g id="zoomMin">
    <use xlink:href="#rim" fill="#404040"><set attributeName="fill" to="#808080" begin="zoomminus.mouseover" end="zoomminus.mouseout"/></use>
    <path d="M-4,0h8" fill="none" stroke="white" stroke-width="1.5" pointer-events="none"/>
  </g>
  <g id="arrowUp" transform="translate(30 24)">
    <use xlink:href="#rim"/>
    <path pointer-events="none" fill="none" stroke="white" stroke-width="1.5" d="M0,-3.0v7 M-2.5,-0.5L0,-3.0L2.5,-0.5"/>
  </g>
  <g id="arrowRight" transform="rotate(90) translate(36 -43)">
    <use xlink:href="#rim"/>
    <path pointer-events="none" fill="none" stroke="white" stroke-width="1.5" d="M0,-3.0v7 M-2.5,-0.5L0,-3.0L2.5,-0.5"/>
  </g>
  <g id="arrowDown" transform="rotate(180) translate(-30 -48)">
    <use xlink:href="#rim"/>
    <path pointer-events="none" fill="none" stroke="white" stroke-width="1.5" d="M0,-3.0v7 M-2.5,-0.5L0,-3.0L2.5,-0.5"/>
  </g>
  <g id="arrowLeft" transform="rotate(270) translate(-36 17)">
    <use xlink:href="#rim"/>
    <path pointer-events="none" fill="none" stroke="white" stroke-width="1.5" d="M0,-3.0v7 M-2.5,-0.5L0,-3.0L2.5,-0.5"/>
  </g>
  <g id="resetDef">
    <use xlink:href="#rim2" fill="#404040"><set attributeName="fill" to="#808080" begin="reset.mouseover" end="reset.mouseout"/></use>
  </g>
</defs>
<script type="application/ecmascript">
var viewWidth = 302;
var viewHeight = 917;
var sectionId = 'dynsection-0';
</script>
<script type="application/ecmascript" xlink:href="svg.min.js"/>
<svg id="graph" class="graph">
<g id="viewport">
<title>Piduino::SpiDev::Cs</title>
<!-- Node1 -->
<g id="Node000001" class="node">
<title>Node1</title>
<g id="a_Node000001"><a xlink:title="Broche de chip select d&#39;un bus SPI.">
<polygon fill="#999999" stroke="transparent" points="213,-214 104,-214 104,0 213,0 213,-214"/>
<text text-anchor="start" x="112" y="-202" font-family="Helvetica,sans-Serif" font-size="10.00">Piduino::SpiDev::Cs</text>
<text text-anchor="start" x="157" y="-187" font-family="Helvetica,sans-Serif" font-size="10.00"> </text>
<text text-anchor="start" x="108.5" y="-172" font-family="Helvetica,sans-Serif" font-size="10.00">+</text>
<text text-anchor="start" x="121.5" y="-172" font-family="Helvetica,sans-Serif" font-size="10.00">Cs()</text>
<text text-anchor="start" x="108.5" y="-157" font-family="Helvetica,sans-Serif" font-size="10.00">+</text>
<text text-anchor="start" x="121.5" y="-157" font-family="Helvetica,sans-Serif" font-size="10.00">id()</text>
<text text-anchor="start" x="108.5" y="-142" font-family="Helvetica,sans-Serif" font-size="10.00">+</text>
<text text-anchor="start" x="121.5" y="-142" font-family="Helvetica,sans-Serif" font-size="10.00">pin()</text>
<text text-anchor="start" x="108.5" y="-127" font-family="Helvetica,sans-Serif" font-size="10.00">+</text>
<text text-anchor="start" x="121.5" y="-127" font-family="Helvetica,sans-Serif" font-size="10.00">mode()</text>
<text text-anchor="start" x="108.5" y="-112" font-family="Helvetica,sans-Serif" font-size="10.00">+</text>
<text text-anchor="start" x="121.5" y="-112" font-family="Helvetica,sans-Serif" font-size="10.00">driverControl()</text>
<text text-anchor="start" x="108.5" y="-97" font-family="Helvetica,sans-Serif" font-size="10.00">+</text>
<text text-anchor="start" x="121.5" y="-97" font-family="Helvetica,sans-Serif" font-size="10.00">activeLevel()</text>
<text text-anchor="start" x="108.5" y="-82" font-family="Helvetica,sans-Serif" font-size="10.00">+</text>
<text text-anchor="start" x="121.5" y="-82" font-family="Helvetica,sans-Serif" font-size="10.00">setDriverControl()</text>
<text text-anchor="start" x="108.5" y="-67" font-family="Helvetica,sans-Serif" font-size="10.00">+</text>
<text text-anchor="start" x="121.5" y="-67" font-family="Helvetica,sans-Serif" font-size="10.00">get()</text>
<text text-anchor="start" x="108.5" y="-52" font-family="Helvetica,sans-Serif" font-size="10.00">+</text>
<text text-anchor="start" x="121.5" y="-52" font-family="Helvetica,sans-Serif" font-size="10.00">set()</text>
<text text-anchor="start" x="108.5" y="-37" font-family="Helvetica,sans-Serif" font-size="10.00">#</text>
<text text-anchor="start" x="121.5" y="-37" font-family="Helvetica,sans-Serif" font-size="10.00">setId()</text>
<text text-anchor="start" x="108.5" y="-22" font-family="Helvetica,sans-Serif" font-size="10.00">#</text>
<text text-anchor="start" x="121.5" y="-22" font-family="Helvetica,sans-Serif" font-size="10.00">setPin()</text>
<text text-anchor="start" x="108.5" y="-7" font-family="Helvetica,sans-Serif" font-size="10.00">#</text>
<text text-anchor="start" x="121.5" y="-7" font-family="Helvetica,sans-Serif" font-size="10.00">setMode()</text>
<polygon fill="#666666" stroke="#666666" points="104.5,-197 104.5,-197 213.5,-197 213.5,-197 104.5,-197"/>
<polygon fill="#666666" stroke="#666666" points="104.5,-182 104.5,-182 213.5,-182 213.5,-182 104.5,-182"/>
<polygon fill="none" stroke="#666666" points="104,0 104,-214 213,-214 213,0 104,0"/>
</a>
</g>
</g>
<!-- Node2 -->
<g id="Node000002" class="node">
<title>Node2</title>
<g id="a_Node000002"><a xlink:title=" ">
<polygon fill="white" stroke="transparent" points="23,-471 0,-471 0,-422 23,-422 23,-471"/>
<text text-anchor="start" x="5.5" y="-458.5" font-family="Helvetica,sans-Serif" font-size="10.00">int</text>
<text text-anchor="start" x="10" y="-443.5" font-family="Helvetica,sans-Serif" font-size="10.00"> </text>
<text text-anchor="start" x="10" y="-428.5" font-family="Helvetica,sans-Serif" font-size="10.00"> </text>
<polygon fill="#666666" stroke="#666666" points="0.5,-453.5 0.5,-453.5 23.5,-453.5 23.5,-453.5 0.5,-453.5"/>
<polygon fill="#666666" stroke="#666666" points="0.5,-438.5 0.5,-438.5 23.5,-438.5 23.5,-438.5 0.5,-438.5"/>
<polygon fill="none" stroke="#666666" points="0,-422 0,-471 23,-471 23,-422 0,-422"/>
</a>
</g>
</g>
<!-- Node2&#45;&gt;Node1 -->
<g id="edge1_Node000001_Node000002" class="edge">
<title>Node2&#45;&gt;Node1</title>
<g id="a_edge1_Node000001_Node000002"><a xlink:title=" ">
<path fill="none" stroke="#63b8ff" d="M10.29,-421.78C9.4,-387.42 10.97,-322.4 31.5,-272 46.33,-235.59 71.6,-200.42 95.72,-172.04"/>
<polygon fill="none" stroke="#63b8ff" points="95.97,-171.75 96.88,-164.6 103.84,-162.69 102.93,-169.84 95.97,-171.75"/>
</a>
</g>
<text text-anchor="middle" x="60.5" y="-240.5" font-family="Helvetica,sans-Serif" font-size="10.00" fill="grey"> &#45;_id</text>
</g>
<!-- Node3 -->
<g id="Node000003" class="node">
<title>Node3</title>
<g id="a_Node000003"><a xlink:href="class_piduino_1_1_pin.html" target="_top" xlink:title="Represents a general&#45;purpose input/output (GPIO) pin and its configuration.">
<polygon fill="white" stroke="transparent" points="152,-621 41,-621 41,-272 152,-272 152,-621"/>
<text text-anchor="start" x="68" y="-608.5" font-family="Helvetica,sans-Serif" font-size="10.00">Piduino::Pin</text>
<text text-anchor="start" x="95" y="-593.5" font-family="Helvetica,sans-Serif" font-size="10.00"> </text>
<text text-anchor="start" x="45.5" y="-578.5" font-family="Helvetica,sans-Serif" font-size="10.00">+</text>
<text text-anchor="start" x="58.5" y="-578.5" font-family="Helvetica,sans-Serif" font-size="10.00">accessLayer()</text>
<text text-anchor="start" x="45.5" y="-563.5" font-family="Helvetica,sans-Serif" font-size="10.00">+</text>
<text text-anchor="start" x="58.5" y="-563.5" font-family="Helvetica,sans-Serif" font-size="10.00">isOpen()</text>
<text text-anchor="start" x="45.5" y="-548.5" font-family="Helvetica,sans-Serif" font-size="10.00">+</text>
<text text-anchor="start" x="58.5" y="-548.5" font-family="Helvetica,sans-Serif" font-size="10.00">number()</text>
<text text-anchor="start" x="45.5" y="-533.5" font-family="Helvetica,sans-Serif" font-size="10.00">+</text>
<text text-anchor="start" x="58.5" y="-533.5" font-family="Helvetica,sans-Serif" font-size="10.00">logicalNumber()</text>
<text text-anchor="start" x="45.5" y="-518.5" font-family="Helvetica,sans-Serif" font-size="10.00">+</text>
<text text-anchor="start" x="58.5" y="-518.5" font-family="Helvetica,sans-Serif" font-size="10.00">mcuNumber()</text>
<text text-anchor="start" x="45.5" y="-503.5" font-family="Helvetica,sans-Serif" font-size="10.00">+</text>
<text text-anchor="start" x="58.5" y="-503.5" font-family="Helvetica,sans-Serif" font-size="10.00">systemNumber()</text>
<text text-anchor="start" x="45.5" y="-488.5" font-family="Helvetica,sans-Serif" font-size="10.00">+</text>
<text text-anchor="start" x="58.5" y="-488.5" font-family="Helvetica,sans-Serif" font-size="10.00">physicalNumber()</text>
<text text-anchor="start" x="45.5" y="-473.5" font-family="Helvetica,sans-Serif" font-size="10.00">+</text>
<text text-anchor="start" x="58.5" y="-473.5" font-family="Helvetica,sans-Serif" font-size="10.00">chipNumber()</text>
<text text-anchor="start" x="45.5" y="-458.5" font-family="Helvetica,sans-Serif" font-size="10.00">+</text>
<text text-anchor="start" x="58.5" y="-458.5" font-family="Helvetica,sans-Serif" font-size="10.00">chipOffset()</text>
<text text-anchor="start" x="45.5" y="-443.5" font-family="Helvetica,sans-Serif" font-size="10.00">+</text>
<text text-anchor="start" x="58.5" y="-443.5" font-family="Helvetica,sans-Serif" font-size="10.00">row()</text>
<text text-anchor="start" x="58.5" y="-428.5" font-family="Helvetica,sans-Serif" font-size="10.00">and 39 more...</text>
<text text-anchor="start" x="45.5" y="-413.5" font-family="Helvetica,sans-Serif" font-size="10.00">+</text>
<text text-anchor="start" x="58.5" y="-413.5" font-family="Helvetica,sans-Serif" font-size="10.00">numberings()</text>
<text text-anchor="start" x="45.5" y="-398.5" font-family="Helvetica,sans-Serif" font-size="10.00">+</text>
<text text-anchor="start" x="58.5" y="-398.5" font-family="Helvetica,sans-Serif" font-size="10.00">numberingName()</text>
<text text-anchor="start" x="45.5" y="-383.5" font-family="Helvetica,sans-Serif" font-size="10.00">+</text>
<text text-anchor="start" x="58.5" y="-383.5" font-family="Helvetica,sans-Serif" font-size="10.00">typeName()</text>
<text text-anchor="start" x="45.5" y="-368.5" font-family="Helvetica,sans-Serif" font-size="10.00">+</text>
<text text-anchor="start" x="58.5" y="-368.5" font-family="Helvetica,sans-Serif" font-size="10.00">types()</text>
<text text-anchor="start" x="45.5" y="-353.5" font-family="Helvetica,sans-Serif" font-size="10.00">+</text>
<text text-anchor="start" x="58.5" y="-353.5" font-family="Helvetica,sans-Serif" font-size="10.00">pulls()</text>
<text text-anchor="start" x="45.5" y="-338.5" font-family="Helvetica,sans-Serif" font-size="10.00">+</text>
<text text-anchor="start" x="58.5" y="-338.5" font-family="Helvetica,sans-Serif" font-size="10.00">pullName()</text>
<text text-anchor="start" x="45.5" y="-323.5" font-family="Helvetica,sans-Serif" font-size="10.00">#</text>
<text text-anchor="start" x="58.5" y="-323.5" font-family="Helvetica,sans-Serif" font-size="10.00">device()</text>
<text text-anchor="start" x="45.5" y="-308.5" font-family="Helvetica,sans-Serif" font-size="10.00">#</text>
<text text-anchor="start" x="58.5" y="-308.5" font-family="Helvetica,sans-Serif" font-size="10.00">open()</text>
<text text-anchor="start" x="45.5" y="-293.5" font-family="Helvetica,sans-Serif" font-size="10.00">#</text>
<text text-anchor="start" x="58.5" y="-293.5" font-family="Helvetica,sans-Serif" font-size="10.00">close()</text>
<text text-anchor="start" x="45.5" y="-278.5" font-family="Helvetica,sans-Serif" font-size="10.00">#</text>
<text text-anchor="start" x="58.5" y="-278.5" font-family="Helvetica,sans-Serif" font-size="10.00">Pin()</text>
<polygon fill="#666666" stroke="#666666" points="41.5,-603.5 41.5,-603.5 152.5,-603.5 152.5,-603.5 41.5,-603.5"/>
<polygon fill="#666666" stroke="#666666" points="41.5,-588.5 41.5,-588.5 152.5,-588.5 152.5,-588.5 41.5,-588.5"/>
<polygon fill="none" stroke="#666666" points="41,-272 41,-621 152,-621 152,-272 41,-272"/>
</a>
</g>
</g>
<!-- Node3&#45;&gt;Node1 -->
<g id="edge2_Node000001_Node000003" class="edge">
<title>Node3&#45;&gt;Node1</title>
<g id="a_edge2_Node000001_Node000003"><a xlink:title=" ">
<path fill="none" stroke="#63b8ff" d="M128.41,-271.81C131.26,-256.26 134.11,-240.77 136.85,-225.86"/>
<polygon fill="none" stroke="#63b8ff" points="136.85,-225.84 134,-219.22 139.02,-214.04 141.87,-220.66 136.85,-225.84"/>
</a>
</g>
<text text-anchor="middle" x="149.5" y="-240.5" font-family="Helvetica,sans-Serif" font-size="10.00" fill="grey"> &#45;_pin</text>
</g>
<!-- Node4 -->
<g id="Node000004" class="node">
<title>Node4</title>
<g id="a_Node000004"><a xlink:title=" ">
<polygon fill="white" stroke="transparent" points="166.5,-717 26.5,-717 26.5,-668 166.5,-668 166.5,-717"/>
<text text-anchor="start" x="31.5" y="-704.5" font-family="Helvetica,sans-Serif" font-size="10.00">std::unique_ptr&lt; Private &gt;</text>
<text text-anchor="start" x="94.5" y="-689.5" font-family="Helvetica,sans-Serif" font-size="10.00"> </text>
<text text-anchor="start" x="45" y="-674.5" font-family="Helvetica,sans-Serif" font-size="10.00">+</text>
<text text-anchor="start" x="72.5" y="-674.5" font-family="Helvetica,sans-Serif" font-size="10.00">operator&#45;&gt;()</text>
<polygon fill="#666666" stroke="#666666" points="26.5,-699.5 26.5,-699.5 166.5,-699.5 166.5,-699.5 26.5,-699.5"/>
<polygon fill="#666666" stroke="#666666" points="26.5,-684.5 26.5,-684.5 166.5,-684.5 166.5,-684.5 26.5,-684.5"/>
<polygon fill="none" stroke="#666666" points="26.5,-668 26.5,-717 166.5,-717 166.5,-668 26.5,-668"/>
</a>
</g>
</g>
<!-- Node4&#45;&gt;Node3 -->
<g id="edge3_Node000003_Node000004" class="edge">
<title>Node4&#45;&gt;Node3</title>
<g id="a_edge3_Node000003_Node000004"><a xlink:title=" ">
<path fill="none" stroke="#63b8ff" d="M96.5,-667.66C96.5,-658.25 96.5,-646.55 96.5,-633.49"/>
<polygon fill="none" stroke="#63b8ff" points="96.5,-633.13 92.5,-627.13 96.5,-621.13 100.5,-627.13 96.5,-633.13"/>
</a>
</g>
<text text-anchor="middle" x="115" y="-642" font-family="Helvetica,sans-Serif" font-size="10.00" fill="grey"> #d_ptr</text>
</g>
<!-- Node5 -->
<g id="Node000005" class="node">
<title>Node5</title>
<g id="a_Node000005"><a xlink:href="class_private.html" target="_top" xlink:title="Internal implementation class for GpioDevice.">
<polygon fill="white" stroke="transparent" points="95,-813 50,-813 50,-764 95,-764 95,-813"/>
<text text-anchor="start" x="55.5" y="-800.5" font-family="Helvetica,sans-Serif" font-size="10.00">Private</text>
<text text-anchor="start" x="71" y="-785.5" font-family="Helvetica,sans-Serif" font-size="10.00"> </text>
<text text-anchor="start" x="71" y="-770.5" font-family="Helvetica,sans-Serif" font-size="10.00"> </text>
<polygon fill="#666666" stroke="#666666" points="50.5,-795.5 50.5,-795.5 95.5,-795.5 95.5,-795.5 50.5,-795.5"/>
<polygon fill="#666666" stroke="#666666" points="50.5,-780.5 50.5,-780.5 95.5,-780.5 95.5,-780.5 50.5,-780.5"/>
<polygon fill="none" stroke="#666666" points="50,-764 50,-813 95,-813 95,-764 50,-764"/>
</a>
</g>
</g>
<!-- Node5&#45;&gt;Node4 -->
<g id="edge4_Node000004_Node000005" class="edge">
<title>Node5&#45;&gt;Node4</title>
<g id="a_edge4_Node000004_Node000005"><a xlink:title=" ">
<path fill="none" stroke="#63b8ff" d="M78.56,-763.78C81.26,-753.2 84.49,-740.52 87.47,-728.86"/>
<polygon fill="none" stroke="#63b8ff" points="87.48,-728.84 85.09,-722.04 90.45,-717.21 92.84,-724.02 87.48,-728.84"/>
</a>
</g>
<text text-anchor="middle" x="98" y="-738" font-family="Helvetica,sans-Serif" font-size="10.00" fill="grey"> +ptr</text>
</g>
<!-- Node6 -->
<g id="Node000006" class="node">
<title>Node6</title>
<g id="a_Node000006"><a xlink:title=" ">
<polygon fill="white" stroke="transparent" points="225.5,-813 113.5,-813 113.5,-764 225.5,-764 225.5,-813"/>
<text text-anchor="start" x="118.5" y="-800.5" font-family="Helvetica,sans-Serif" font-size="10.00">std::unique_ptr&lt; T &gt;</text>
<text text-anchor="start" x="167.5" y="-785.5" font-family="Helvetica,sans-Serif" font-size="10.00"> </text>
<text text-anchor="start" x="125" y="-770.5" font-family="Helvetica,sans-Serif" font-size="10.00">+</text>
<text text-anchor="start" x="145.5" y="-770.5" font-family="Helvetica,sans-Serif" font-size="10.00">operator&#45;&gt;()</text>
<polygon fill="#666666" stroke="#666666" points="113.5,-795.5 113.5,-795.5 225.5,-795.5 225.5,-795.5 113.5,-795.5"/>
<polygon fill="#666666" stroke="#666666" points="113.5,-780.5 113.5,-780.5 225.5,-780.5 225.5,-780.5 113.5,-780.5"/>
<polygon fill="none" stroke="#666666" points="113.5,-764 113.5,-813 225.5,-813 225.5,-764 113.5,-764"/>
</a>
</g>
</g>
<!-- Node6&#45;&gt;Node4 -->
<g id="edge5_Node000004_Node000006" class="edge">
<title>Node6&#45;&gt;Node4</title>
<g id="a_edge5_Node000004_Node000006"><a xlink:title=" ">
<path fill="none" stroke="orange" d="M144.86,-755.77C135.07,-743.16 123.99,-728.9 114.92,-717.21"/>
<polygon fill="orange" stroke="orange" points="142.18,-758.03 151.08,-763.78 147.71,-753.73 142.18,-758.03"/>
</a>
</g>
<text text-anchor="middle" x="166" y="-738" font-family="Helvetica,sans-Serif" font-size="10.00" fill="grey"> &lt; Private &gt;</text>
</g>
<!-- Node7 -->
<g id="Node000007" class="node">
<title>Node7</title>
<g id="a_Node000007"><a xlink:title=" ">
<polygon fill="white" stroke="transparent" points="178,-909 161,-909 161,-860 178,-860 178,-909"/>
<text text-anchor="start" x="166.5" y="-896.5" font-family="Helvetica,sans-Serif" font-size="10.00">T</text>
<text text-anchor="start" x="168" y="-881.5" font-family="Helvetica,sans-Serif" font-size="10.00"> </text>
<text text-anchor="start" x="168" y="-866.5" font-family="Helvetica,sans-Serif" font-size="10.00"> </text>
<polygon fill="#666666" stroke="#666666" points="161.5,-891.5 161.5,-891.5 178.5,-891.5 178.5,-891.5 161.5,-891.5"/>
<polygon fill="#666666" stroke="#666666" points="161.5,-876.5 161.5,-876.5 178.5,-876.5 178.5,-876.5 161.5,-876.5"/>
<polygon fill="none" stroke="#666666" points="161,-860 161,-909 178,-909 178,-860 161,-860"/>
</a>
</g>
</g>
<!-- Node7&#45;&gt;Node6 -->
<g id="edge6_Node000006_Node000007" class="edge">
<title>Node7&#45;&gt;Node6</title>
<g id="a_edge6_Node000006_Node000007"><a xlink:title=" ">
<path fill="none" stroke="#63b8ff" d="M169.5,-859.78C169.5,-849.32 169.5,-836.79 169.5,-825.23"/>
<polygon fill="none" stroke="#63b8ff" points="169.5,-825.21 165.5,-819.21 169.5,-813.21 173.5,-819.21 169.5,-825.21"/>
</a>
</g>
<text text-anchor="middle" x="182" y="-834" font-family="Helvetica,sans-Serif" font-size="10.00" fill="grey"> +ptr</text>
</g>
<!-- Node8 -->
<g id="Node000008" class="node">
<title>Node8</title>
<g id="a_Node000008"><a xlink:title=" ">
<polygon fill="white" stroke="transparent" points="208.5,-471 170.5,-471 170.5,-422 208.5,-422 208.5,-471"/>
<text text-anchor="start" x="175.5" y="-458.5" font-family="Helvetica,sans-Serif" font-size="10.00">Mode</text>
<text text-anchor="start" x="187.5" y="-443.5" font-family="Helvetica,sans-Serif" font-size="10.00"> </text>
<text text-anchor="start" x="187.5" y="-428.5" font-family="Helvetica,sans-Serif" font-size="10.00"> </text>
<polygon fill="#666666" stroke="#666666" points="170.5,-453.5 170.5,-453.5 208.5,-453.5 208.5,-453.5 170.5,-453.5"/>
<polygon fill="#666666" stroke="#666666" points="170.5,-438.5 170.5,-438.5 208.5,-438.5 208.5,-438.5 170.5,-438.5"/>
<polygon fill="none" stroke="#666666" points="170.5,-422 170.5,-471 208.5,-471 208.5,-422 170.5,-422"/>
</a>
</g>
</g>
<!-- Node8&#45;&gt;Node1 -->
<g id="edge7_Node000001_Node000008" class="edge">
<title>Node8&#45;&gt;Node1</title>
<g id="a_edge7_Node000001_Node000008"><a xlink:title=" ">
<path fill="none" stroke="#63b8ff" d="M187.32,-421.77C183.63,-381.56 175.9,-297.48 169.38,-226.47"/>
<polygon fill="none" stroke="#63b8ff" points="169.36,-226.23 164.83,-220.63 168.26,-214.28 172.79,-219.89 169.36,-226.23"/>
</a>
</g>
<text text-anchor="middle" x="191.5" y="-240.5" font-family="Helvetica,sans-Serif" font-size="10.00" fill="grey"> &#45;_mode</text>
</g>
<!-- Node9 -->
<g id="Node000009" class="node">
<title>Node9</title>
<g id="a_Node000009"><a xlink:title=" ">
<polygon fill="white" stroke="transparent" points="263.5,-471 231.5,-471 231.5,-422 263.5,-422 263.5,-471"/>
<text text-anchor="start" x="236.5" y="-458.5" font-family="Helvetica,sans-Serif" font-size="10.00">bool</text>
<text text-anchor="start" x="245.5" y="-443.5" font-family="Helvetica,sans-Serif" font-size="10.00"> </text>
<text text-anchor="start" x="245.5" y="-428.5" font-family="Helvetica,sans-Serif" font-size="10.00"> </text>
<polygon fill="#666666" stroke="#666666" points="231.5,-453.5 231.5,-453.5 263.5,-453.5 263.5,-453.5 231.5,-453.5"/>
<polygon fill="#666666" stroke="#666666" points="231.5,-438.5 231.5,-438.5 263.5,-438.5 263.5,-438.5 231.5,-438.5"/>
<polygon fill="none" stroke="#666666" points="231.5,-422 231.5,-471 263.5,-471 263.5,-422 231.5,-422"/>
</a>
</g>
</g>
<!-- Node9&#45;&gt;Node1 -->
<g id="edge8_Node000001_Node000009" class="edge">
<title>Node9&#45;&gt;Node1</title>
<g id="a_edge8_Node000001_Node000009"><a xlink:title=" ">
<path fill="none" stroke="#63b8ff" d="M246.14,-421.97C243.37,-382.13 235.53,-299.16 215.5,-232 214.87,-229.88 214.2,-227.75 213.52,-225.61"/>
<polygon fill="none" stroke="#63b8ff" points="213.47,-225.48 207.75,-221.1 209.59,-214.13 215.32,-218.51 213.47,-225.48"/>
</a>
</g>
<text text-anchor="middle" x="257" y="-246" font-family="Helvetica,sans-Serif" font-size="10.00" fill="grey"> &#45;_activeLevel</text>
<text text-anchor="middle" x="257" y="-235" font-family="Helvetica,sans-Serif" font-size="10.00" fill="grey">&#45;_driverControl</text>
</g>
</g>
</svg>

<g id="navigator" transform="translate(0 0)" fill="#404254">
  <rect fill="#f2f5e9" fill-opacity="0.5" stroke="#606060" stroke-width=".5" x="0" y="0" width="60" height="60"/>
  <use id="zoomplus" xlink:href="#zoomPlus" x="17" y="9" onmousedown="handleZoom(evt,'in')"/>
  <use id="zoomminus" xlink:href="#zoomMin" x="42" y="9" onmousedown="handleZoom(evt,'out')"/>
  <use id="reset" xlink:href="#resetDef" x="30" y="36" onmousedown="handleReset()"/>
   <use id="arrowup" xlink:href="#arrowUp" x="0" y="0" onmousedown="handlePan(0,-1)"/>
  <use id="arrowright" xlink:href="#arrowRight" x="0" y="0" onmousedown="handlePan(1,0)"/>
  <use id="arrowdown" xlink:href="#arrowDown" x="0" y="0" onmousedown="handlePan(0,1)"/>
  <use id="arrowleft" xlink:href="#arrowLeft" x="0" y="0" onmousedown="handlePan(-1,0)"/>
</g>
<svg viewBox="0 0 15 15" width="100%" height="30px" preserveAspectRatio="xMaxYMin meet">
 <g id="arrow_out" transform="scale(0.3 0.3)">
  <a xlink:href="class_piduino_1_1_spi_dev_1_1_cs__coll__graph_org.svg" target="_base">
   <rect id="button" ry="5" rx="5" y="6" x="6" height="38" width="38"
        fill="#f2f5e9" fill-opacity="0.5" stroke="#606060" stroke-width="1.0"/>
   <path id="arrow"
     d="M 11.500037,31.436501 C 11.940474,20.09759 22.043105,11.32322 32.158766,21.979434 L 37.068811,17.246167 C 37.068811,17.246167 37.088388,32 37.088388,32 L 22.160133,31.978069 C 22.160133,31.978069 26.997745,27.140456 26.997745,27.140456 C 18.528582,18.264221 13.291696,25.230495 11.500037,31.436501 z"
     style="fill:#404040;"/>
  </a>
 </g>
</svg>

<style type='text/css'>
<![CDATA[
[data-mouse-over-selected='false'] { opacity: 0.7; }
[data-mouse-over-selected='true']  { opacity: 1.0; }
]]>
</style>
<script type="application/ecmascript"><![CDATA[
document.addEventListener('DOMContentLoaded', (event) => {
  highlightEdges();
  highlightAdjacentNodes();
});
]]></script>
</svg>
