<?xml version="1.0" encoding="UTF-8" standalone="no"?>
<!DOCTYPE svg PUBLIC "-//W3C//DTD SVG 1.1//EN"
 "http://www.w3.org/Graphics/SVG/1.1/DTD/svg11.dtd">
<!-- Generated by graphviz version 2.43.0 (0)
 -->
<!-- Title: Piduino::SpiDev::Info Pages: 1 -->
<svg width="509pt" height="1348pt"
 viewBox="0.00 0.00 508.96 1348.00" xmlns="http://www.w3.org/2000/svg" xmlns:xlink="http://www.w3.org/1999/xlink">
<g id="graph0" class="graph" transform="scale(1 1) rotate(0) translate(4 1344)">
<title>Piduino::SpiDev::Info</title>
<!-- Node1 -->
<g id="Node000001" class="node">
<title>Node1</title>
<g id="a_Node000001"><a xlink:title="Informations sur un bus SPI.">
<polygon fill="#999999" stroke="transparent" points="231.46,-244 120.46,-244 120.46,0 231.46,0 231.46,-244"/>
<text text-anchor="start" x="125.96" y="-232" font-family="Helvetica,sans-Serif" font-size="10.00">Piduino::SpiDev::Info</text>
<text text-anchor="start" x="174.46" y="-217" font-family="Helvetica,sans-Serif" font-size="10.00"> </text>
<text text-anchor="start" x="126.96" y="-202" font-family="Helvetica,sans-Serif" font-size="10.00">+</text>
<text text-anchor="start" x="141.96" y="-202" font-family="Helvetica,sans-Serif" font-size="10.00">Info()</text>
<text text-anchor="start" x="126.96" y="-187" font-family="Helvetica,sans-Serif" font-size="10.00">+</text>
<text text-anchor="start" x="141.96" y="-187" font-family="Helvetica,sans-Serif" font-size="10.00">setId()</text>
<text text-anchor="start" x="126.96" y="-172" font-family="Helvetica,sans-Serif" font-size="10.00">+</text>
<text text-anchor="start" x="141.96" y="-172" font-family="Helvetica,sans-Serif" font-size="10.00">setPath()</text>
<text text-anchor="start" x="126.96" y="-157" font-family="Helvetica,sans-Serif" font-size="10.00">+</text>
<text text-anchor="start" x="141.96" y="-157" font-family="Helvetica,sans-Serif" font-size="10.00">busId()</text>
<text text-anchor="start" x="126.96" y="-142" font-family="Helvetica,sans-Serif" font-size="10.00">+</text>
<text text-anchor="start" x="141.96" y="-142" font-family="Helvetica,sans-Serif" font-size="10.00">csId()</text>
<text text-anchor="start" x="126.96" y="-127" font-family="Helvetica,sans-Serif" font-size="10.00">+</text>
<text text-anchor="start" x="141.96" y="-127" font-family="Helvetica,sans-Serif" font-size="10.00">path()</text>
<text text-anchor="start" x="126.96" y="-112" font-family="Helvetica,sans-Serif" font-size="10.00">+</text>
<text text-anchor="start" x="141.96" y="-112" font-family="Helvetica,sans-Serif" font-size="10.00">csList()</text>
<text text-anchor="start" x="126.96" y="-97" font-family="Helvetica,sans-Serif" font-size="10.00">+</text>
<text text-anchor="start" x="141.96" y="-97" font-family="Helvetica,sans-Serif" font-size="10.00">cs()</text>
<text text-anchor="start" x="126.96" y="-82" font-family="Helvetica,sans-Serif" font-size="10.00">+</text>
<text text-anchor="start" x="141.96" y="-82" font-family="Helvetica,sans-Serif" font-size="10.00">exists()</text>
<text text-anchor="start" x="126.96" y="-67" font-family="Helvetica,sans-Serif" font-size="10.00">+</text>
<text text-anchor="start" x="141.96" y="-67" font-family="Helvetica,sans-Serif" font-size="10.00">operator==()</text>
<text text-anchor="start" x="126.96" y="-52" font-family="Helvetica,sans-Serif" font-size="10.00">+</text>
<text text-anchor="start" x="141.96" y="-52" font-family="Helvetica,sans-Serif" font-size="10.00">operator!=()</text>
<text text-anchor="start" x="126.96" y="-37" font-family="Helvetica,sans-Serif" font-size="10.00">+</text>
<text text-anchor="start" x="141.96" y="-37" font-family="Helvetica,sans-Serif" font-size="10.00">availableBuses()</text>
<text text-anchor="start" x="126.96" y="-22" font-family="Helvetica,sans-Serif" font-size="10.00">+</text>
<text text-anchor="start" x="141.96" y="-22" font-family="Helvetica,sans-Serif" font-size="10.00">defaultBus()</text>
<text text-anchor="start" x="126.96" y="-7" font-family="Helvetica,sans-Serif" font-size="10.00">+</text>
<text text-anchor="start" x="141.96" y="-7" font-family="Helvetica,sans-Serif" font-size="10.00">busPath()</text>
<polygon fill="#666666" stroke="#666666" points="120.96,-227 120.96,-227 231.96,-227 231.96,-227 120.96,-227"/>
<polygon fill="#666666" stroke="#666666" points="120.96,-212 120.96,-212 231.96,-212 231.96,-212 120.96,-212"/>
<polygon fill="none" stroke="#666666" points="120.46,0 120.46,-244 231.46,-244 231.46,0 120.46,0"/>
</a>
</g>
</g>
<!-- Node2 -->
<g id="Node000002" class="node">
<title>Node2</title>
<g id="a_Node000002"><a xlink:title=" ">
<polygon fill="white" stroke="transparent" points="63.46,-902 40.46,-902 40.46,-853 63.46,-853 63.46,-902"/>
<text text-anchor="start" x="45.96" y="-889.5" font-family="Helvetica,sans-Serif" font-size="10.00">int</text>
<text text-anchor="start" x="50.46" y="-874.5" font-family="Helvetica,sans-Serif" font-size="10.00"> </text>
<text text-anchor="start" x="50.46" y="-859.5" font-family="Helvetica,sans-Serif" font-size="10.00"> </text>
<polygon fill="#666666" stroke="#666666" points="40.96,-884.5 40.96,-884.5 63.96,-884.5 63.96,-884.5 40.96,-884.5"/>
<polygon fill="#666666" stroke="#666666" points="40.96,-869.5 40.96,-869.5 63.96,-869.5 63.96,-869.5 40.96,-869.5"/>
<polygon fill="none" stroke="#666666" points="40.46,-853 40.46,-902 63.46,-902 63.46,-853 40.46,-853"/>
</a>
</g>
</g>
<!-- Node2&#45;&gt;Node1 -->
<g id="edge1_Node000001_Node000002" class="edge">
<title>Node2&#45;&gt;Node1</title>
<g id="a_edge1_Node000001_Node000002"><a xlink:title=" ">
<path fill="none" stroke="#63b8ff" d="M45.1,-852.88C24.9,-779.4 -29.76,-549.06 21.96,-369 39.91,-306.49 78.9,-244.48 113.16,-198.36"/>
<polygon fill="none" stroke="#63b8ff" points="113.17,-198.35 113.58,-191.15 120.39,-188.76 119.97,-195.96 113.17,-198.35"/>
</a>
</g>
<text text-anchor="middle" x="52.96" y="-405" font-family="Helvetica,sans-Serif" font-size="10.00" fill="grey"> +MaxBuses</text>
<text text-anchor="middle" x="52.96" y="-394" font-family="Helvetica,sans-Serif" font-size="10.00" fill="grey">+MaxCs</text>
<text text-anchor="middle" x="52.96" y="-383" font-family="Helvetica,sans-Serif" font-size="10.00" fill="grey">&#45;_bus</text>
<text text-anchor="middle" x="52.96" y="-372" font-family="Helvetica,sans-Serif" font-size="10.00" fill="grey">&#45;_cs</text>
</g>
<!-- Node5 -->
<g id="Node000005" class="node">
<title>Node5</title>
<g id="a_Node000005"><a xlink:title=" ">
<polygon fill="white" stroke="transparent" points="235.46,-351 116.46,-351 116.46,-291 235.46,-291 235.46,-351"/>
<text text-anchor="start" x="121.96" y="-339" font-family="Helvetica,sans-Serif" font-size="10.00">std::map&lt; int, Piduino</text>
<text text-anchor="start" x="141.46" y="-328" font-family="Helvetica,sans-Serif" font-size="10.00">::SpiDev::Cs &gt;</text>
<text text-anchor="start" x="174.46" y="-313" font-family="Helvetica,sans-Serif" font-size="10.00"> </text>
<text text-anchor="start" x="174.46" y="-298" font-family="Helvetica,sans-Serif" font-size="10.00"> </text>
<polygon fill="#666666" stroke="#666666" points="116.96,-323 116.96,-323 235.96,-323 235.96,-323 116.96,-323"/>
<polygon fill="#666666" stroke="#666666" points="116.96,-308 116.96,-308 235.96,-308 235.96,-308 116.96,-308"/>
<polygon fill="none" stroke="#666666" points="116.46,-291 116.46,-351 235.46,-351 235.46,-291 116.46,-291"/>
</a>
</g>
</g>
<!-- Node2&#45;&gt;Node5 -->
<g id="edge5_Node000005_Node000002" class="edge">
<title>Node2&#45;&gt;Node5</title>
<g id="a_edge5_Node000005_Node000002"><a xlink:title=" ">
<path fill="none" stroke="#63b8ff" d="M48.03,-852.57C37.84,-783.77 15.45,-580.79 77.96,-431 89.34,-403.71 110.58,-378.74 130.39,-359.6"/>
<polygon fill="none" stroke="#63b8ff" points="130.58,-359.42 132.23,-352.4 139.35,-351.23 137.69,-358.25 130.58,-359.42"/>
</a>
</g>
<text text-anchor="middle" x="94.96" y="-535.5" font-family="Helvetica,sans-Serif" font-size="10.00" fill="grey"> +keys</text>
</g>
<!-- Node6 -->
<g id="Node000006" class="node">
<title>Node6</title>
<g id="a_Node000006"><a xlink:href="class_piduino_1_1_spi_dev_1_1_cs.html" target="_top" xlink:title="Broche de chip select d&#39;un bus SPI.">
<polygon fill="white" stroke="transparent" points="230.46,-645 121.46,-645 121.46,-431 230.46,-431 230.46,-645"/>
<text text-anchor="start" x="129.46" y="-633" font-family="Helvetica,sans-Serif" font-size="10.00">Piduino::SpiDev::Cs</text>
<text text-anchor="start" x="174.46" y="-618" font-family="Helvetica,sans-Serif" font-size="10.00"> </text>
<text text-anchor="start" x="125.96" y="-603" font-family="Helvetica,sans-Serif" font-size="10.00">+</text>
<text text-anchor="start" x="138.96" y="-603" font-family="Helvetica,sans-Serif" font-size="10.00">Cs()</text>
<text text-anchor="start" x="125.96" y="-588" font-family="Helvetica,sans-Serif" font-size="10.00">+</text>
<text text-anchor="start" x="138.96" y="-588" font-family="Helvetica,sans-Serif" font-size="10.00">id()</text>
<text text-anchor="start" x="125.96" y="-573" font-family="Helvetica,sans-Serif" font-size="10.00">+</text>
<text text-anchor="start" x="138.96" y="-573" font-family="Helvetica,sans-Serif" font-size="10.00">pin()</text>
<text text-anchor="start" x="125.96" y="-558" font-family="Helvetica,sans-Serif" font-size="10.00">+</text>
<text text-anchor="start" x="138.96" y="-558" font-family="Helvetica,sans-Serif" font-size="10.00">mode()</text>
<text text-anchor="start" x="125.96" y="-543" font-family="Helvetica,sans-Serif" font-size="10.00">+</text>
<text text-anchor="start" x="138.96" y="-543" font-family="Helvetica,sans-Serif" font-size="10.00">driverControl()</text>
<text text-anchor="start" x="125.96" y="-528" font-family="Helvetica,sans-Serif" font-size="10.00">+</text>
<text text-anchor="start" x="138.96" y="-528" font-family="Helvetica,sans-Serif" font-size="10.00">activeLevel()</text>
<text text-anchor="start" x="125.96" y="-513" font-family="Helvetica,sans-Serif" font-size="10.00">+</text>
<text text-anchor="start" x="138.96" y="-513" font-family="Helvetica,sans-Serif" font-size="10.00">setDriverControl()</text>
<text text-anchor="start" x="125.96" y="-498" font-family="Helvetica,sans-Serif" font-size="10.00">+</text>
<text text-anchor="start" x="138.96" y="-498" font-family="Helvetica,sans-Serif" font-size="10.00">get()</text>
<text text-anchor="start" x="125.96" y="-483" font-family="Helvetica,sans-Serif" font-size="10.00">+</text>
<text text-anchor="start" x="138.96" y="-483" font-family="Helvetica,sans-Serif" font-size="10.00">set()</text>
<text text-anchor="start" x="125.96" y="-468" font-family="Helvetica,sans-Serif" font-size="10.00">#</text>
<text text-anchor="start" x="138.96" y="-468" font-family="Helvetica,sans-Serif" font-size="10.00">setId()</text>
<text text-anchor="start" x="125.96" y="-453" font-family="Helvetica,sans-Serif" font-size="10.00">#</text>
<text text-anchor="start" x="138.96" y="-453" font-family="Helvetica,sans-Serif" font-size="10.00">setPin()</text>
<text text-anchor="start" x="125.96" y="-438" font-family="Helvetica,sans-Serif" font-size="10.00">#</text>
<text text-anchor="start" x="138.96" y="-438" font-family="Helvetica,sans-Serif" font-size="10.00">setMode()</text>
<polygon fill="#666666" stroke="#666666" points="121.96,-628 121.96,-628 230.96,-628 230.96,-628 121.96,-628"/>
<polygon fill="#666666" stroke="#666666" points="121.96,-613 121.96,-613 230.96,-613 230.96,-613 121.96,-613"/>
<polygon fill="none" stroke="#666666" points="121.46,-431 121.46,-645 230.46,-645 230.46,-431 121.46,-431"/>
</a>
</g>
</g>
<!-- Node2&#45;&gt;Node6 -->
<g id="edge7_Node000006_Node000002" class="edge">
<title>Node2&#45;&gt;Node6</title>
<g id="a_edge7_Node000006_Node000002"><a xlink:title=" ">
<path fill="none" stroke="#63b8ff" d="M56.75,-852.91C65.23,-812.97 84.53,-729.88 110.96,-663 112.69,-658.61 114.53,-654.17 116.46,-649.72"/>
<polygon fill="none" stroke="#63b8ff" points="116.52,-649.6 115.31,-642.49 121.41,-638.65 122.62,-645.76 116.52,-649.6"/>
</a>
</g>
<text text-anchor="middle" x="121.96" y="-671.5" font-family="Helvetica,sans-Serif" font-size="10.00" fill="grey"> &#45;_id</text>
</g>
<!-- Node3 -->
<g id="Node000003" class="node">
<title>Node3</title>
<g id="a_Node000003"><a xlink:title=" ">
<polygon fill="white" stroke="transparent" points="396.46,-345.5 337.46,-345.5 337.46,-296.5 396.46,-296.5 396.46,-345.5"/>
<text text-anchor="start" x="342.96" y="-333" font-family="Helvetica,sans-Serif" font-size="10.00">std::string</text>
<text text-anchor="start" x="365.46" y="-318" font-family="Helvetica,sans-Serif" font-size="10.00"> </text>
<text text-anchor="start" x="365.46" y="-303" font-family="Helvetica,sans-Serif" font-size="10.00"> </text>
<polygon fill="#666666" stroke="#666666" points="337.96,-328 337.96,-328 396.96,-328 396.96,-328 337.96,-328"/>
<polygon fill="#666666" stroke="#666666" points="337.96,-313 337.96,-313 396.96,-313 396.96,-313 337.96,-313"/>
<polygon fill="none" stroke="#666666" points="337.46,-296.5 337.46,-345.5 396.46,-345.5 396.46,-296.5 337.46,-296.5"/>
</a>
</g>
</g>
<!-- Node3&#45;&gt;Node1 -->
<g id="edge2_Node000001_Node000003" class="edge">
<title>Node3&#45;&gt;Node1</title>
<g id="a_edge2_Node000001_Node000003"><a xlink:title=" ">
<path fill="none" stroke="#63b8ff" d="M343.92,-296.24C318.38,-269.9 276.08,-226.27 240.32,-189.38"/>
<polygon fill="none" stroke="#63b8ff" points="240.21,-189.27 233.16,-187.75 231.85,-180.65 238.9,-182.18 240.21,-189.27"/>
</a>
</g>
<text text-anchor="middle" x="337.96" y="-265" font-family="Helvetica,sans-Serif" font-size="10.00" fill="grey"> &#45;_path</text>
</g>
<!-- Node4 -->
<g id="Node000004" class="node">
<title>Node4</title>
<g id="a_Node000004"><a xlink:title=" ">
<polygon fill="white" stroke="transparent" points="500.96,-568 402.96,-568 402.96,-508 500.96,-508 500.96,-568"/>
<text text-anchor="start" x="407.96" y="-556" font-family="Helvetica,sans-Serif" font-size="10.00">std::basic_string&lt;</text>
<text text-anchor="start" x="433.46" y="-545" font-family="Helvetica,sans-Serif" font-size="10.00"> Char &gt;</text>
<text text-anchor="start" x="449.96" y="-530" font-family="Helvetica,sans-Serif" font-size="10.00"> </text>
<text text-anchor="start" x="449.96" y="-515" font-family="Helvetica,sans-Serif" font-size="10.00"> </text>
<polygon fill="#666666" stroke="#666666" points="402.96,-540 402.96,-540 500.96,-540 500.96,-540 402.96,-540"/>
<polygon fill="#666666" stroke="#666666" points="402.96,-525 402.96,-525 500.96,-525 500.96,-525 402.96,-525"/>
<polygon fill="none" stroke="#666666" points="402.96,-508 402.96,-568 500.96,-568 500.96,-508 402.96,-508"/>
</a>
</g>
</g>
<!-- Node4&#45;&gt;Node3 -->
<g id="edge3_Node000003_Node000004" class="edge">
<title>Node4&#45;&gt;Node3</title>
<g id="a_edge3_Node000003_Node000004"><a xlink:title=" ">
<path fill="none" stroke="#63b8ff" d="M438.41,-498.26C426.2,-463.99 407.37,-412.77 388.96,-369 385.74,-361.36 382,-353.14 378.52,-345.75"/>
<polygon fill="none" stroke="#63b8ff" points="435.19,-499.64 441.83,-507.89 441.78,-497.3 435.19,-499.64"/>
</a>
</g>
</g>
<!-- Node5&#45;&gt;Node1 -->
<g id="edge4_Node000001_Node000005" class="edge">
<title>Node5&#45;&gt;Node1</title>
<g id="a_edge4_Node000001_Node000005"><a xlink:title=" ">
<path fill="none" stroke="#63b8ff" d="M175.96,-290.93C175.96,-280.93 175.96,-269 175.96,-256.16"/>
<polygon fill="none" stroke="#63b8ff" points="175.96,-256.14 171.96,-250.14 175.96,-244.14 179.96,-250.14 175.96,-256.14"/>
</a>
</g>
<text text-anchor="middle" x="195.96" y="-265" font-family="Helvetica,sans-Serif" font-size="10.00" fill="grey"> &#45;_csList</text>
</g>
<!-- Node6&#45;&gt;Node5 -->
<g id="edge6_Node000005_Node000006" class="edge">
<title>Node6&#45;&gt;Node5</title>
<g id="a_edge6_Node000005_Node000006"><a xlink:title=" ">
<path fill="none" stroke="#63b8ff" d="M175.96,-430.76C175.96,-406.81 175.96,-382.77 175.96,-363.41"/>
<polygon fill="none" stroke="#63b8ff" points="175.96,-363.41 171.96,-357.41 175.96,-351.41 179.96,-357.41 175.96,-363.41"/>
</a>
</g>
<text text-anchor="middle" x="204.96" y="-388.5" font-family="Helvetica,sans-Serif" font-size="10.00" fill="grey"> +elements</text>
</g>
<!-- Node7 -->
<g id="Node000007" class="node">
<title>Node7</title>
<g id="a_Node000007"><a xlink:href="class_piduino_1_1_pin.html" target="_top" xlink:title="Represents a general&#45;purpose input/output (GPIO) pin and its configuration.">
<polygon fill="white" stroke="transparent" points="338.46,-1052 227.46,-1052 227.46,-703 338.46,-703 338.46,-1052"/>
<text text-anchor="start" x="254.46" y="-1039.5" font-family="Helvetica,sans-Serif" font-size="10.00">Piduino::Pin</text>
<text text-anchor="start" x="281.46" y="-1024.5" font-family="Helvetica,sans-Serif" font-size="10.00"> </text>
<text text-anchor="start" x="231.96" y="-1009.5" font-family="Helvetica,sans-Serif" font-size="10.00">+</text>
<text text-anchor="start" x="244.96" y="-1009.5" font-family="Helvetica,sans-Serif" font-size="10.00">accessLayer()</text>
<text text-anchor="start" x="231.96" y="-994.5" font-family="Helvetica,sans-Serif" font-size="10.00">+</text>
<text text-anchor="start" x="244.96" y="-994.5" font-family="Helvetica,sans-Serif" font-size="10.00">isOpen()</text>
<text text-anchor="start" x="231.96" y="-979.5" font-family="Helvetica,sans-Serif" font-size="10.00">+</text>
<text text-anchor="start" x="244.96" y="-979.5" font-family="Helvetica,sans-Serif" font-size="10.00">number()</text>
<text text-anchor="start" x="231.96" y="-964.5" font-family="Helvetica,sans-Serif" font-size="10.00">+</text>
<text text-anchor="start" x="244.96" y="-964.5" font-family="Helvetica,sans-Serif" font-size="10.00">logicalNumber()</text>
<text text-anchor="start" x="231.96" y="-949.5" font-family="Helvetica,sans-Serif" font-size="10.00">+</text>
<text text-anchor="start" x="244.96" y="-949.5" font-family="Helvetica,sans-Serif" font-size="10.00">mcuNumber()</text>
<text text-anchor="start" x="231.96" y="-934.5" font-family="Helvetica,sans-Serif" font-size="10.00">+</text>
<text text-anchor="start" x="244.96" y="-934.5" font-family="Helvetica,sans-Serif" font-size="10.00">systemNumber()</text>
<text text-anchor="start" x="231.96" y="-919.5" font-family="Helvetica,sans-Serif" font-size="10.00">+</text>
<text text-anchor="start" x="244.96" y="-919.5" font-family="Helvetica,sans-Serif" font-size="10.00">physicalNumber()</text>
<text text-anchor="start" x="231.96" y="-904.5" font-family="Helvetica,sans-Serif" font-size="10.00">+</text>
<text text-anchor="start" x="244.96" y="-904.5" font-family="Helvetica,sans-Serif" font-size="10.00">chipNumber()</text>
<text text-anchor="start" x="231.96" y="-889.5" font-family="Helvetica,sans-Serif" font-size="10.00">+</text>
<text text-anchor="start" x="244.96" y="-889.5" font-family="Helvetica,sans-Serif" font-size="10.00">chipOffset()</text>
<text text-anchor="start" x="231.96" y="-874.5" font-family="Helvetica,sans-Serif" font-size="10.00">+</text>
<text text-anchor="start" x="244.96" y="-874.5" font-family="Helvetica,sans-Serif" font-size="10.00">row()</text>
<text text-anchor="start" x="244.96" y="-859.5" font-family="Helvetica,sans-Serif" font-size="10.00">and 39 more...</text>
<text text-anchor="start" x="231.96" y="-844.5" font-family="Helvetica,sans-Serif" font-size="10.00">+</text>
<text text-anchor="start" x="244.96" y="-844.5" font-family="Helvetica,sans-Serif" font-size="10.00">numberings()</text>
<text text-anchor="start" x="231.96" y="-829.5" font-family="Helvetica,sans-Serif" font-size="10.00">+</text>
<text text-anchor="start" x="244.96" y="-829.5" font-family="Helvetica,sans-Serif" font-size="10.00">numberingName()</text>
<text text-anchor="start" x="231.96" y="-814.5" font-family="Helvetica,sans-Serif" font-size="10.00">+</text>
<text text-anchor="start" x="244.96" y="-814.5" font-family="Helvetica,sans-Serif" font-size="10.00">typeName()</text>
<text text-anchor="start" x="231.96" y="-799.5" font-family="Helvetica,sans-Serif" font-size="10.00">+</text>
<text text-anchor="start" x="244.96" y="-799.5" font-family="Helvetica,sans-Serif" font-size="10.00">types()</text>
<text text-anchor="start" x="231.96" y="-784.5" font-family="Helvetica,sans-Serif" font-size="10.00">+</text>
<text text-anchor="start" x="244.96" y="-784.5" font-family="Helvetica,sans-Serif" font-size="10.00">pulls()</text>
<text text-anchor="start" x="231.96" y="-769.5" font-family="Helvetica,sans-Serif" font-size="10.00">+</text>
<text text-anchor="start" x="244.96" y="-769.5" font-family="Helvetica,sans-Serif" font-size="10.00">pullName()</text>
<text text-anchor="start" x="231.96" y="-754.5" font-family="Helvetica,sans-Serif" font-size="10.00">#</text>
<text text-anchor="start" x="244.96" y="-754.5" font-family="Helvetica,sans-Serif" font-size="10.00">device()</text>
<text text-anchor="start" x="231.96" y="-739.5" font-family="Helvetica,sans-Serif" font-size="10.00">#</text>
<text text-anchor="start" x="244.96" y="-739.5" font-family="Helvetica,sans-Serif" font-size="10.00">open()</text>
<text text-anchor="start" x="231.96" y="-724.5" font-family="Helvetica,sans-Serif" font-size="10.00">#</text>
<text text-anchor="start" x="244.96" y="-724.5" font-family="Helvetica,sans-Serif" font-size="10.00">close()</text>
<text text-anchor="start" x="231.96" y="-709.5" font-family="Helvetica,sans-Serif" font-size="10.00">#</text>
<text text-anchor="start" x="244.96" y="-709.5" font-family="Helvetica,sans-Serif" font-size="10.00">Pin()</text>
<polygon fill="#666666" stroke="#666666" points="227.96,-1034.5 227.96,-1034.5 338.96,-1034.5 338.96,-1034.5 227.96,-1034.5"/>
<polygon fill="#666666" stroke="#666666" points="227.96,-1019.5 227.96,-1019.5 338.96,-1019.5 338.96,-1019.5 227.96,-1019.5"/>
<polygon fill="none" stroke="#666666" points="227.46,-703 227.46,-1052 338.46,-1052 338.46,-703 227.46,-703"/>
</a>
</g>
</g>
<!-- Node7&#45;&gt;Node6 -->
<g id="edge8_Node000006_Node000007" class="edge">
<title>Node7&#45;&gt;Node6</title>
<g id="a_edge8_Node000006_Node000007"><a xlink:title=" ">
<path fill="none" stroke="#63b8ff" d="M271.55,-702.96C268.45,-689.25 264.64,-675.78 259.96,-663 254.23,-647.38 246.12,-631.83 237.18,-617.28"/>
<polygon fill="none" stroke="#63b8ff" points="236.99,-616.99 230.39,-614.08 230.54,-606.87 237.14,-609.78 236.99,-616.99"/>
</a>
</g>
<text text-anchor="middle" x="279.96" y="-671.5" font-family="Helvetica,sans-Serif" font-size="10.00" fill="grey"> &#45;_pin</text>
</g>
<!-- Node8 -->
<g id="Node000008" class="node">
<title>Node8</title>
<g id="a_Node000008"><a xlink:title=" ">
<polygon fill="white" stroke="transparent" points="334.96,-1148 194.96,-1148 194.96,-1099 334.96,-1099 334.96,-1148"/>
<text text-anchor="start" x="199.96" y="-1135.5" font-family="Helvetica,sans-Serif" font-size="10.00">std::unique_ptr&lt; Private &gt;</text>
<text text-anchor="start" x="262.96" y="-1120.5" font-family="Helvetica,sans-Serif" font-size="10.00"> </text>
<text text-anchor="start" x="213.46" y="-1105.5" font-family="Helvetica,sans-Serif" font-size="10.00">+</text>
<text text-anchor="start" x="240.96" y="-1105.5" font-family="Helvetica,sans-Serif" font-size="10.00">operator&#45;&gt;()</text>
<polygon fill="#666666" stroke="#666666" points="194.96,-1130.5 194.96,-1130.5 334.96,-1130.5 334.96,-1130.5 194.96,-1130.5"/>
<polygon fill="#666666" stroke="#666666" points="194.96,-1115.5 194.96,-1115.5 334.96,-1115.5 334.96,-1115.5 194.96,-1115.5"/>
<polygon fill="none" stroke="#666666" points="194.96,-1099 194.96,-1148 334.96,-1148 334.96,-1099 194.96,-1099"/>
</a>
</g>
</g>
<!-- Node8&#45;&gt;Node7 -->
<g id="edge9_Node000007_Node000008" class="edge">
<title>Node8&#45;&gt;Node7</title>
<g id="a_edge9_Node000007_Node000008"><a xlink:title=" ">
<path fill="none" stroke="#63b8ff" d="M266.71,-1098.66C267.41,-1089.25 268.27,-1077.55 269.23,-1064.49"/>
<polygon fill="none" stroke="#63b8ff" points="269.26,-1064.1 265.72,-1057.82 270.15,-1052.13 273.69,-1058.41 269.26,-1064.1"/>
</a>
</g>
<text text-anchor="middle" x="287.46" y="-1073" font-family="Helvetica,sans-Serif" font-size="10.00" fill="grey"> #d_ptr</text>
</g>
<!-- Node9 -->
<g id="Node000009" class="node">
<title>Node9</title>
<g id="a_Node000009"><a xlink:href="class_private.html" target="_top" xlink:title="Internal implementation class for GpioDevice.">
<polygon fill="white" stroke="transparent" points="190.46,-1244 145.46,-1244 145.46,-1195 190.46,-1195 190.46,-1244"/>
<text text-anchor="start" x="150.96" y="-1231.5" font-family="Helvetica,sans-Serif" font-size="10.00">Private</text>
<text text-anchor="start" x="166.46" y="-1216.5" font-family="Helvetica,sans-Serif" font-size="10.00"> </text>
<text text-anchor="start" x="166.46" y="-1201.5" font-family="Helvetica,sans-Serif" font-size="10.00"> </text>
<polygon fill="#666666" stroke="#666666" points="145.96,-1226.5 145.96,-1226.5 190.96,-1226.5 190.96,-1226.5 145.96,-1226.5"/>
<polygon fill="#666666" stroke="#666666" points="145.96,-1211.5 145.96,-1211.5 190.96,-1211.5 190.96,-1211.5 145.96,-1211.5"/>
<polygon fill="none" stroke="#666666" points="145.46,-1195 145.46,-1244 190.46,-1244 190.46,-1195 145.46,-1195"/>
</a>
</g>
</g>
<!-- Node9&#45;&gt;Node8 -->
<g id="edge10_Node000008_Node000009" class="edge">
<title>Node9&#45;&gt;Node8</title>
<g id="a_edge10_Node000008_Node000009"><a xlink:title=" ">
<path fill="none" stroke="#63b8ff" d="M190.94,-1196.22C203.05,-1184.49 218.13,-1169.88 231.5,-1156.92"/>
<polygon fill="none" stroke="#63b8ff" points="231.82,-1156.61 233.34,-1149.56 240.44,-1148.26 238.91,-1155.31 231.82,-1156.61"/>
</a>
</g>
<text text-anchor="middle" x="232.46" y="-1169" font-family="Helvetica,sans-Serif" font-size="10.00" fill="grey"> +ptr</text>
</g>
<!-- Node10 -->
<g id="Node000010" class="node">
<title>Node10</title>
<g id="a_Node000010"><a xlink:title=" ">
<polygon fill="white" stroke="transparent" points="320.96,-1244 208.96,-1244 208.96,-1195 320.96,-1195 320.96,-1244"/>
<text text-anchor="start" x="213.96" y="-1231.5" font-family="Helvetica,sans-Serif" font-size="10.00">std::unique_ptr&lt; T &gt;</text>
<text text-anchor="start" x="262.96" y="-1216.5" font-family="Helvetica,sans-Serif" font-size="10.00"> </text>
<text text-anchor="start" x="220.46" y="-1201.5" font-family="Helvetica,sans-Serif" font-size="10.00">+</text>
<text text-anchor="start" x="240.96" y="-1201.5" font-family="Helvetica,sans-Serif" font-size="10.00">operator&#45;&gt;()</text>
<polygon fill="#666666" stroke="#666666" points="208.96,-1226.5 208.96,-1226.5 320.96,-1226.5 320.96,-1226.5 208.96,-1226.5"/>
<polygon fill="#666666" stroke="#666666" points="208.96,-1211.5 208.96,-1211.5 320.96,-1211.5 320.96,-1211.5 208.96,-1211.5"/>
<polygon fill="none" stroke="#666666" points="208.96,-1195 208.96,-1244 320.96,-1244 320.96,-1195 208.96,-1195"/>
</a>
</g>
</g>
<!-- Node10&#45;&gt;Node8 -->
<g id="edge11_Node000008_Node000010" class="edge">
<title>Node10&#45;&gt;Node8</title>
<g id="a_edge11_Node000008_Node000010"><a xlink:title=" ">
<path fill="none" stroke="orange" d="M264.96,-1184.6C264.96,-1172.54 264.96,-1159.23 264.96,-1148.21"/>
<polygon fill="orange" stroke="orange" points="261.46,-1184.78 264.96,-1194.78 268.46,-1184.78 261.46,-1184.78"/>
</a>
</g>
<text text-anchor="middle" x="295.46" y="-1169" font-family="Helvetica,sans-Serif" font-size="10.00" fill="grey"> &lt; Private &gt;</text>
</g>
<!-- Node11 -->
<g id="Node000011" class="node">
<title>Node11</title>
<g id="a_Node000011"><a xlink:title=" ">
<polygon fill="white" stroke="transparent" points="297.46,-1340 280.46,-1340 280.46,-1291 297.46,-1291 297.46,-1340"/>
<text text-anchor="start" x="285.96" y="-1327.5" font-family="Helvetica,sans-Serif" font-size="10.00">T</text>
<text text-anchor="start" x="287.46" y="-1312.5" font-family="Helvetica,sans-Serif" font-size="10.00"> </text>
<text text-anchor="start" x="287.46" y="-1297.5" font-family="Helvetica,sans-Serif" font-size="10.00"> </text>
<polygon fill="#666666" stroke="#666666" points="280.96,-1322.5 280.96,-1322.5 297.96,-1322.5 297.96,-1322.5 280.96,-1322.5"/>
<polygon fill="#666666" stroke="#666666" points="280.96,-1307.5 280.96,-1307.5 297.96,-1307.5 297.96,-1307.5 280.96,-1307.5"/>
<polygon fill="none" stroke="#666666" points="280.46,-1291 280.46,-1340 297.46,-1340 297.46,-1291 280.46,-1291"/>
</a>
</g>
</g>
<!-- Node11&#45;&gt;Node10 -->
<g id="edge12_Node000010_Node000011" class="edge">
<title>Node11&#45;&gt;Node10</title>
<g id="a_edge12_Node000010_Node000011"><a xlink:title=" ">
<path fill="none" stroke="#63b8ff" d="M280.45,-1302.82C275.17,-1294.86 268.86,-1283.82 265.96,-1273 264.52,-1267.66 263.71,-1261.89 263.31,-1256.21"/>
<polygon fill="none" stroke="#63b8ff" points="263.3,-1256.1 259.15,-1250.2 263,-1244.1 267.15,-1250 263.3,-1256.1"/>
</a>
</g>
<text text-anchor="middle" x="278.46" y="-1265" font-family="Helvetica,sans-Serif" font-size="10.00" fill="grey"> +ptr</text>
</g>
<!-- Node14 -->
<g id="Node000014" class="node">
<title>Node14</title>
<g id="a_Node000014"><a xlink:title=" ">
<polygon fill="white" stroke="transparent" points="434.46,-1244 339.46,-1244 339.46,-1195 434.46,-1195 434.46,-1244"/>
<text text-anchor="start" x="344.96" y="-1231.5" font-family="Helvetica,sans-Serif" font-size="10.00">std::map&lt; K, T &gt;</text>
<text text-anchor="start" x="385.46" y="-1216.5" font-family="Helvetica,sans-Serif" font-size="10.00"> </text>
<text text-anchor="start" x="385.46" y="-1201.5" font-family="Helvetica,sans-Serif" font-size="10.00"> </text>
<polygon fill="#666666" stroke="#666666" points="339.96,-1226.5 339.96,-1226.5 434.96,-1226.5 434.96,-1226.5 339.96,-1226.5"/>
<polygon fill="#666666" stroke="#666666" points="339.96,-1211.5 339.96,-1211.5 434.96,-1211.5 434.96,-1211.5 339.96,-1211.5"/>
<polygon fill="none" stroke="#666666" points="339.46,-1195 339.46,-1244 434.46,-1244 434.46,-1195 339.46,-1195"/>
</a>
</g>
</g>
<!-- Node11&#45;&gt;Node14 -->
<g id="edge17_Node000014_Node000011" class="edge">
<title>Node11&#45;&gt;Node14</title>
<g id="a_edge17_Node000014_Node000011"><a xlink:title=" ">
<path fill="none" stroke="#63b8ff" d="M297.51,-1301.11C305.01,-1289.94 316.62,-1273.97 328.96,-1262 332.6,-1258.46 336.57,-1254.99 340.67,-1251.65"/>
<polygon fill="none" stroke="#63b8ff" points="340.87,-1251.5 343.16,-1244.66 350.36,-1244.15 348.06,-1250.99 340.87,-1251.5"/>
</a>
</g>
<text text-anchor="middle" x="357.96" y="-1265" font-family="Helvetica,sans-Serif" font-size="10.00" fill="grey"> +elements</text>
</g>
<!-- Node12 -->
<g id="Node000012" class="node">
<title>Node12</title>
<g id="a_Node000012"><a xlink:title=" ">
<polygon fill="white" stroke="transparent" points="148.96,-902 110.96,-902 110.96,-853 148.96,-853 148.96,-902"/>
<text text-anchor="start" x="115.96" y="-889.5" font-family="Helvetica,sans-Serif" font-size="10.00">Mode</text>
<text text-anchor="start" x="127.96" y="-874.5" font-family="Helvetica,sans-Serif" font-size="10.00"> </text>
<text text-anchor="start" x="127.96" y="-859.5" font-family="Helvetica,sans-Serif" font-size="10.00"> </text>
<polygon fill="#666666" stroke="#666666" points="110.96,-884.5 110.96,-884.5 148.96,-884.5 148.96,-884.5 110.96,-884.5"/>
<polygon fill="#666666" stroke="#666666" points="110.96,-869.5 110.96,-869.5 148.96,-869.5 148.96,-869.5 110.96,-869.5"/>
<polygon fill="none" stroke="#666666" points="110.96,-853 110.96,-902 148.96,-902 148.96,-853 110.96,-853"/>
</a>
</g>
</g>
<!-- Node12&#45;&gt;Node6 -->
<g id="edge13_Node000006_Node000012" class="edge">
<title>Node12&#45;&gt;Node6</title>
<g id="a_edge13_Node000006_Node000012"><a xlink:title=" ">
<path fill="none" stroke="#63b8ff" d="M129.06,-852.92C127.97,-813.36 127.52,-731.24 138.96,-663 139.29,-660.98 139.65,-658.95 140.04,-656.91"/>
<polygon fill="none" stroke="#63b8ff" points="140.04,-656.89 137.32,-650.21 142.44,-645.13 145.16,-651.81 140.04,-656.89"/>
</a>
</g>
<text text-anchor="middle" x="158.96" y="-671.5" font-family="Helvetica,sans-Serif" font-size="10.00" fill="grey"> &#45;_mode</text>
</g>
<!-- Node13 -->
<g id="Node000013" class="node">
<title>Node13</title>
<g id="a_Node000013"><a xlink:title=" ">
<polygon fill="white" stroke="transparent" points="208.96,-902 176.96,-902 176.96,-853 208.96,-853 208.96,-902"/>
<text text-anchor="start" x="181.96" y="-889.5" font-family="Helvetica,sans-Serif" font-size="10.00">bool</text>
<text text-anchor="start" x="190.96" y="-874.5" font-family="Helvetica,sans-Serif" font-size="10.00"> </text>
<text text-anchor="start" x="190.96" y="-859.5" font-family="Helvetica,sans-Serif" font-size="10.00"> </text>
<polygon fill="#666666" stroke="#666666" points="176.96,-884.5 176.96,-884.5 208.96,-884.5 208.96,-884.5 176.96,-884.5"/>
<polygon fill="#666666" stroke="#666666" points="176.96,-869.5 176.96,-869.5 208.96,-869.5 208.96,-869.5 176.96,-869.5"/>
<polygon fill="none" stroke="#666666" points="176.96,-853 176.96,-902 208.96,-902 208.96,-853 176.96,-853"/>
</a>
</g>
</g>
<!-- Node13&#45;&gt;Node6 -->
<g id="edge14_Node000006_Node000013" class="edge">
<title>Node13&#45;&gt;Node6</title>
<g id="a_edge14_Node000006_Node000013"><a xlink:title=" ">
<path fill="none" stroke="#63b8ff" d="M191.76,-852.77C189.73,-812.56 185.5,-728.48 181.92,-657.47"/>
<polygon fill="none" stroke="#63b8ff" points="181.91,-657.27 177.62,-651.48 181.31,-645.28 185.61,-651.08 181.91,-657.27"/>
</a>
</g>
<text text-anchor="middle" x="219.46" y="-677" font-family="Helvetica,sans-Serif" font-size="10.00" fill="grey"> &#45;_activeLevel</text>
<text text-anchor="middle" x="219.46" y="-666" font-family="Helvetica,sans-Serif" font-size="10.00" fill="grey">&#45;_driverControl</text>
</g>
<!-- Node14&#45;&gt;Node5 -->
<g id="edge15_Node000005_Node000014" class="edge">
<title>Node14&#45;&gt;Node5</title>
<g id="a_edge15_Node000005_Node000014"><a xlink:title=" ">
<path fill="none" stroke="orange" d="M380.54,-1184.72C377.68,-1166.88 374.96,-1144.58 374.96,-1124.5 374.96,-1124.5 374.96,-1124.5 374.96,-537 374.96,-452.06 290.27,-386.45 231.39,-351.09"/>
<polygon fill="orange" stroke="orange" points="377.1,-1185.37 382.21,-1194.65 384,-1184.21 377.1,-1185.37"/>
</a>
</g>
<text text-anchor="start" x="374.96" y="-880.5" font-family="Helvetica,sans-Serif" font-size="10.00" fill="grey"> &lt; int, Piduino::SpiDev</text>
<text text-anchor="middle" x="429.96" y="-869.5" font-family="Helvetica,sans-Serif" font-size="10.00" fill="grey">::Cs &gt;</text>
</g>
<!-- Node15 -->
<g id="Node000015" class="node">
<title>Node15</title>
<g id="a_Node000015"><a xlink:title=" ">
<polygon fill="white" stroke="transparent" points="402.46,-1340 385.46,-1340 385.46,-1291 402.46,-1291 402.46,-1340"/>
<text text-anchor="start" x="390.96" y="-1327.5" font-family="Helvetica,sans-Serif" font-size="10.00">K</text>
<text text-anchor="start" x="392.46" y="-1312.5" font-family="Helvetica,sans-Serif" font-size="10.00"> </text>
<text text-anchor="start" x="392.46" y="-1297.5" font-family="Helvetica,sans-Serif" font-size="10.00"> </text>
<polygon fill="#666666" stroke="#666666" points="385.96,-1322.5 385.96,-1322.5 402.96,-1322.5 402.96,-1322.5 385.96,-1322.5"/>
<polygon fill="#666666" stroke="#666666" points="385.96,-1307.5 385.96,-1307.5 402.96,-1307.5 402.96,-1307.5 385.96,-1307.5"/>
<polygon fill="none" stroke="#666666" points="385.46,-1291 385.46,-1340 402.46,-1340 402.46,-1291 385.46,-1291"/>
</a>
</g>
</g>
<!-- Node15&#45;&gt;Node14 -->
<g id="edge16_Node000014_Node000015" class="edge">
<title>Node15&#45;&gt;Node14</title>
<g id="a_edge16_Node000014_Node000015"><a xlink:title=" ">
<path fill="none" stroke="#63b8ff" d="M392.19,-1290.78C391.41,-1280.32 390.48,-1267.79 389.62,-1256.23"/>
<polygon fill="none" stroke="#63b8ff" points="389.61,-1256.18 385.18,-1250.49 388.72,-1244.21 393.16,-1249.9 389.61,-1256.18"/>
</a>
</g>
<text text-anchor="middle" x="407.96" y="-1265" font-family="Helvetica,sans-Serif" font-size="10.00" fill="grey"> +keys</text>
</g>
</g>
</svg>
