<?xml version="1.0" encoding="UTF-8" standalone="no"?>
<!DOCTYPE svg PUBLIC "-//W3C//DTD SVG 1.1//EN"
 "http://www.w3.org/Graphics/SVG/1.1/DTD/svg11.dtd">
<!-- Generated by graphviz version 2.43.0 (0)
 -->
<!-- Title: Piduino::SocPwm Pages: 1 -->
<svg width="275pt" height="977pt"
 viewBox="0.00 0.00 274.50 977.00" xmlns="http://www.w3.org/2000/svg" xmlns:xlink="http://www.w3.org/1999/xlink">
<g id="graph0" class="graph" transform="scale(1 1) rotate(0) translate(4 973)">
<title>Piduino::SocPwm</title>
<!-- Node1 -->
<g id="Node000001" class="node">
<title>Node1</title>
<g id="a_Node000001"><a xlink:title=" ">
<polygon fill="#999999" stroke="transparent" points="187,-94 93,-94 93,0 187,0 187,-94"/>
<text text-anchor="start" x="98" y="-82" font-family="Helvetica,sans-Serif" font-size="10.00">Piduino::SocPwm</text>
<text text-anchor="start" x="138" y="-67" font-family="Helvetica,sans-Serif" font-size="10.00"> </text>
<text text-anchor="start" x="100.5" y="-52" font-family="Helvetica,sans-Serif" font-size="10.00">+</text>
<text text-anchor="start" x="117" y="-52" font-family="Helvetica,sans-Serif" font-size="10.00">SocPwm()</text>
<text text-anchor="start" x="100.5" y="-37" font-family="Helvetica,sans-Serif" font-size="10.00">+</text>
<text text-anchor="start" x="117" y="-37" font-family="Helvetica,sans-Serif" font-size="10.00">~SocPwm()</text>
<text text-anchor="start" x="100.5" y="-22" font-family="Helvetica,sans-Serif" font-size="10.00">+</text>
<text text-anchor="start" x="117" y="-22" font-family="Helvetica,sans-Serif" font-size="10.00">pin()</text>
<text text-anchor="start" x="100.5" y="-7" font-family="Helvetica,sans-Serif" font-size="10.00">#</text>
<text text-anchor="start" x="117" y="-7" font-family="Helvetica,sans-Serif" font-size="10.00">SocPwm()</text>
<polygon fill="#666666" stroke="#666666" points="93,-77 93,-77 187,-77 187,-77 93,-77"/>
<polygon fill="#666666" stroke="#666666" points="93,-62 93,-62 187,-62 187,-62 93,-62"/>
<polygon fill="none" stroke="#666666" points="93,0 93,-94 187,-94 187,0 93,0"/>
</a>
</g>
</g>
<!-- Node2 -->
<g id="Node000002" class="node">
<title>Node2</title>
<g id="a_Node000002"><a xlink:href="class_piduino_1_1_converter.html" target="_top" xlink:title="The Converter class provides an interface for analog&#45;to&#45;digital and digital&#45;to&#45;analog converters.">
<polygon fill="white" stroke="transparent" points="209,-420 71,-420 71,-131 209,-131 209,-420"/>
<text text-anchor="start" x="94.5" y="-407.5" font-family="Helvetica,sans-Serif" font-size="10.00">Piduino::Converter</text>
<text text-anchor="start" x="138" y="-392.5" font-family="Helvetica,sans-Serif" font-size="10.00"> </text>
<text text-anchor="start" x="75" y="-377.5" font-family="Helvetica,sans-Serif" font-size="10.00">+</text>
<text text-anchor="start" x="88" y="-377.5" font-family="Helvetica,sans-Serif" font-size="10.00">Converter()</text>
<text text-anchor="start" x="75" y="-362.5" font-family="Helvetica,sans-Serif" font-size="10.00">+</text>
<text text-anchor="start" x="88" y="-362.5" font-family="Helvetica,sans-Serif" font-size="10.00">~Converter()</text>
<text text-anchor="start" x="75" y="-347.5" font-family="Helvetica,sans-Serif" font-size="10.00">+</text>
<text text-anchor="start" x="88" y="-347.5" font-family="Helvetica,sans-Serif" font-size="10.00">deviceName()</text>
<text text-anchor="start" x="75" y="-332.5" font-family="Helvetica,sans-Serif" font-size="10.00">+</text>
<text text-anchor="start" x="88" y="-332.5" font-family="Helvetica,sans-Serif" font-size="10.00">type()</text>
<text text-anchor="start" x="75" y="-317.5" font-family="Helvetica,sans-Serif" font-size="10.00">+</text>
<text text-anchor="start" x="88" y="-317.5" font-family="Helvetica,sans-Serif" font-size="10.00">flags()</text>
<text text-anchor="start" x="75" y="-302.5" font-family="Helvetica,sans-Serif" font-size="10.00">+</text>
<text text-anchor="start" x="88" y="-302.5" font-family="Helvetica,sans-Serif" font-size="10.00">open()</text>
<text text-anchor="start" x="75" y="-287.5" font-family="Helvetica,sans-Serif" font-size="10.00">+</text>
<text text-anchor="start" x="88" y="-287.5" font-family="Helvetica,sans-Serif" font-size="10.00">close()</text>
<text text-anchor="start" x="75" y="-272.5" font-family="Helvetica,sans-Serif" font-size="10.00">+</text>
<text text-anchor="start" x="88" y="-272.5" font-family="Helvetica,sans-Serif" font-size="10.00">read()</text>
<text text-anchor="start" x="75" y="-257.5" font-family="Helvetica,sans-Serif" font-size="10.00">+</text>
<text text-anchor="start" x="88" y="-257.5" font-family="Helvetica,sans-Serif" font-size="10.00">write()</text>
<text text-anchor="start" x="75" y="-242.5" font-family="Helvetica,sans-Serif" font-size="10.00">+</text>
<text text-anchor="start" x="88" y="-242.5" font-family="Helvetica,sans-Serif" font-size="10.00">toggle()</text>
<text text-anchor="start" x="88" y="-227.5" font-family="Helvetica,sans-Serif" font-size="10.00">and 39 more...</text>
<text text-anchor="start" x="75" y="-212.5" font-family="Helvetica,sans-Serif" font-size="10.00">+</text>
<text text-anchor="start" x="88" y="-212.5" font-family="Helvetica,sans-Serif" font-size="10.00">modeFlagToStringMap()</text>
<text text-anchor="start" x="75" y="-197.5" font-family="Helvetica,sans-Serif" font-size="10.00">+</text>
<text text-anchor="start" x="88" y="-197.5" font-family="Helvetica,sans-Serif" font-size="10.00">stringToModeFlagMap()</text>
<text text-anchor="start" x="75" y="-182.5" font-family="Helvetica,sans-Serif" font-size="10.00">+</text>
<text text-anchor="start" x="88" y="-182.5" font-family="Helvetica,sans-Serif" font-size="10.00">factory()</text>
<text text-anchor="start" x="75" y="-167.5" font-family="Helvetica,sans-Serif" font-size="10.00">+</text>
<text text-anchor="start" x="88" y="-167.5" font-family="Helvetica,sans-Serif" font-size="10.00">registerConverter()</text>
<text text-anchor="start" x="75" y="-152.5" font-family="Helvetica,sans-Serif" font-size="10.00">+</text>
<text text-anchor="start" x="88" y="-152.5" font-family="Helvetica,sans-Serif" font-size="10.00">availableConverters()</text>
<text text-anchor="start" x="75" y="-137.5" font-family="Helvetica,sans-Serif" font-size="10.00">#</text>
<text text-anchor="start" x="88" y="-137.5" font-family="Helvetica,sans-Serif" font-size="10.00">Converter()</text>
<polygon fill="#666666" stroke="#666666" points="71,-402.5 71,-402.5 209,-402.5 209,-402.5 71,-402.5"/>
<polygon fill="#666666" stroke="#666666" points="71,-387.5 71,-387.5 209,-387.5 209,-387.5 71,-387.5"/>
<polygon fill="none" stroke="#666666" points="71,-131 71,-420 209,-420 209,-131 71,-131"/>
</a>
</g>
</g>
<!-- Node2&#45;&gt;Node1 -->
<g id="edge1_Node000001_Node000002" class="edge">
<title>Node2&#45;&gt;Node1</title>
<g id="a_edge1_Node000001_Node000002"><a xlink:title=" ">
<path fill="none" stroke="#63b8ff" d="M140,-120.55C140,-111.3 140,-102.47 140,-94.35"/>
<polygon fill="none" stroke="#63b8ff" points="136.5,-120.73 140,-130.73 143.5,-120.73 136.5,-120.73"/>
</a>
</g>
</g>
<!-- Node3 -->
<g id="Node000003" class="node">
<title>Node3</title>
<g id="a_Node000003"><a xlink:href="class_piduino_1_1_io_device.html" target="_top" xlink:title="Abstract base class for input/output devices.">
<polygon fill="white" stroke="transparent" points="135,-681 5,-681 5,-467 135,-467 135,-681"/>
<text text-anchor="start" x="27.5" y="-669" font-family="Helvetica,sans-Serif" font-size="10.00">Piduino::IoDevice</text>
<text text-anchor="start" x="68" y="-654" font-family="Helvetica,sans-Serif" font-size="10.00"> </text>
<text text-anchor="start" x="9" y="-639" font-family="Helvetica,sans-Serif" font-size="10.00">+</text>
<text text-anchor="start" x="22" y="-639" font-family="Helvetica,sans-Serif" font-size="10.00">IoDevice()</text>
<text text-anchor="start" x="9" y="-624" font-family="Helvetica,sans-Serif" font-size="10.00">+</text>
<text text-anchor="start" x="22" y="-624" font-family="Helvetica,sans-Serif" font-size="10.00">~IoDevice()</text>
<text text-anchor="start" x="9" y="-609" font-family="Helvetica,sans-Serif" font-size="10.00">+</text>
<text text-anchor="start" x="22" y="-609" font-family="Helvetica,sans-Serif" font-size="10.00">openMode()</text>
<text text-anchor="start" x="9" y="-594" font-family="Helvetica,sans-Serif" font-size="10.00">+</text>
<text text-anchor="start" x="22" y="-594" font-family="Helvetica,sans-Serif" font-size="10.00">isOpen()</text>
<text text-anchor="start" x="9" y="-579" font-family="Helvetica,sans-Serif" font-size="10.00">+</text>
<text text-anchor="start" x="22" y="-579" font-family="Helvetica,sans-Serif" font-size="10.00">isReadable()</text>
<text text-anchor="start" x="9" y="-564" font-family="Helvetica,sans-Serif" font-size="10.00">+</text>
<text text-anchor="start" x="22" y="-564" font-family="Helvetica,sans-Serif" font-size="10.00">isWritable()</text>
<text text-anchor="start" x="9" y="-549" font-family="Helvetica,sans-Serif" font-size="10.00">+</text>
<text text-anchor="start" x="22" y="-549" font-family="Helvetica,sans-Serif" font-size="10.00">isBuffered()</text>
<text text-anchor="start" x="9" y="-534" font-family="Helvetica,sans-Serif" font-size="10.00">+</text>
<text text-anchor="start" x="22" y="-534" font-family="Helvetica,sans-Serif" font-size="10.00">isSequential()</text>
<text text-anchor="start" x="9" y="-519" font-family="Helvetica,sans-Serif" font-size="10.00">+</text>
<text text-anchor="start" x="22" y="-519" font-family="Helvetica,sans-Serif" font-size="10.00">setTextModeEnabled()</text>
<text text-anchor="start" x="9" y="-504" font-family="Helvetica,sans-Serif" font-size="10.00">+</text>
<text text-anchor="start" x="22" y="-504" font-family="Helvetica,sans-Serif" font-size="10.00">isTextModeEnabled()</text>
<text text-anchor="start" x="22" y="-489" font-family="Helvetica,sans-Serif" font-size="10.00">and 6 more...</text>
<text text-anchor="start" x="9" y="-474" font-family="Helvetica,sans-Serif" font-size="10.00">#</text>
<text text-anchor="start" x="22" y="-474" font-family="Helvetica,sans-Serif" font-size="10.00">IoDevice()</text>
<polygon fill="#666666" stroke="#666666" points="5,-664 5,-664 135,-664 135,-664 5,-664"/>
<polygon fill="#666666" stroke="#666666" points="5,-649 5,-649 135,-649 135,-649 5,-649"/>
<polygon fill="none" stroke="#666666" points="5,-467 5,-681 135,-681 135,-467 5,-467"/>
</a>
</g>
</g>
<!-- Node3&#45;&gt;Node2 -->
<g id="edge2_Node000002_Node000003" class="edge">
<title>Node3&#45;&gt;Node2</title>
<g id="a_edge2_Node000002_Node000003"><a xlink:title=" ">
<path fill="none" stroke="#63b8ff" d="M97.44,-456.79C100.27,-444.78 103.17,-432.48 106.07,-420.23"/>
<polygon fill="none" stroke="#63b8ff" points="93.97,-456.26 95.07,-466.79 100.78,-457.87 93.97,-456.26"/>
</a>
</g>
</g>
<!-- Node4 -->
<g id="Node000004" class="node">
<title>Node4</title>
<g id="a_Node000004"><a xlink:title=" ">
<polygon fill="white" stroke="transparent" points="140,-777 0,-777 0,-728 140,-728 140,-777"/>
<text text-anchor="start" x="5" y="-764.5" font-family="Helvetica,sans-Serif" font-size="10.00">std::unique_ptr&lt; Private &gt;</text>
<text text-anchor="start" x="68" y="-749.5" font-family="Helvetica,sans-Serif" font-size="10.00"> </text>
<text text-anchor="start" x="18.5" y="-734.5" font-family="Helvetica,sans-Serif" font-size="10.00">+</text>
<text text-anchor="start" x="46" y="-734.5" font-family="Helvetica,sans-Serif" font-size="10.00">operator&#45;&gt;()</text>
<polygon fill="#666666" stroke="#666666" points="0,-759.5 0,-759.5 140,-759.5 140,-759.5 0,-759.5"/>
<polygon fill="#666666" stroke="#666666" points="0,-744.5 0,-744.5 140,-744.5 140,-744.5 0,-744.5"/>
<polygon fill="none" stroke="#666666" points="0,-728 0,-777 140,-777 140,-728 0,-728"/>
</a>
</g>
</g>
<!-- Node4&#45;&gt;Node3 -->
<g id="edge3_Node000003_Node000004" class="edge">
<title>Node4&#45;&gt;Node3</title>
<g id="a_edge3_Node000003_Node000004"><a xlink:title=" ">
<path fill="none" stroke="#63b8ff" d="M70,-727.7C70,-718.04 70,-706.13 70,-693.24"/>
<polygon fill="none" stroke="#63b8ff" points="70,-693.18 66,-687.18 70,-681.18 74,-687.18 70,-693.18"/>
</a>
</g>
<text text-anchor="middle" x="88.5" y="-702" font-family="Helvetica,sans-Serif" font-size="10.00" fill="grey"> #d_ptr</text>
</g>
<!-- Node5 -->
<g id="Node000005" class="node">
<title>Node5</title>
<g id="a_Node000005"><a xlink:href="class_private.html" target="_top" xlink:title="Internal implementation class for GpioDevice.">
<polygon fill="white" stroke="transparent" points="68.5,-873 23.5,-873 23.5,-824 68.5,-824 68.5,-873"/>
<text text-anchor="start" x="29" y="-860.5" font-family="Helvetica,sans-Serif" font-size="10.00">Private</text>
<text text-anchor="start" x="44.5" y="-845.5" font-family="Helvetica,sans-Serif" font-size="10.00"> </text>
<text text-anchor="start" x="44.5" y="-830.5" font-family="Helvetica,sans-Serif" font-size="10.00"> </text>
<polygon fill="#666666" stroke="#666666" points="24,-855.5 24,-855.5 69,-855.5 69,-855.5 24,-855.5"/>
<polygon fill="#666666" stroke="#666666" points="24,-840.5 24,-840.5 69,-840.5 69,-840.5 24,-840.5"/>
<polygon fill="none" stroke="#666666" points="23.5,-824 23.5,-873 68.5,-873 68.5,-824 23.5,-824"/>
</a>
</g>
</g>
<!-- Node5&#45;&gt;Node4 -->
<g id="edge4_Node000004_Node000005" class="edge">
<title>Node5&#45;&gt;Node4</title>
<g id="a_edge4_Node000004_Node000005"><a xlink:title=" ">
<path fill="none" stroke="#63b8ff" d="M52.06,-823.78C54.76,-813.2 57.99,-800.52 60.97,-788.86"/>
<polygon fill="none" stroke="#63b8ff" points="60.98,-788.84 58.59,-782.04 63.95,-777.21 66.34,-784.02 60.98,-788.84"/>
</a>
</g>
<text text-anchor="middle" x="71.5" y="-798" font-family="Helvetica,sans-Serif" font-size="10.00" fill="grey"> +ptr</text>
</g>
<!-- Node6 -->
<g id="Node000006" class="node">
<title>Node6</title>
<g id="a_Node000006"><a xlink:title=" ">
<polygon fill="white" stroke="transparent" points="199,-873 87,-873 87,-824 199,-824 199,-873"/>
<text text-anchor="start" x="92" y="-860.5" font-family="Helvetica,sans-Serif" font-size="10.00">std::unique_ptr&lt; T &gt;</text>
<text text-anchor="start" x="141" y="-845.5" font-family="Helvetica,sans-Serif" font-size="10.00"> </text>
<text text-anchor="start" x="98.5" y="-830.5" font-family="Helvetica,sans-Serif" font-size="10.00">+</text>
<text text-anchor="start" x="119" y="-830.5" font-family="Helvetica,sans-Serif" font-size="10.00">operator&#45;&gt;()</text>
<polygon fill="#666666" stroke="#666666" points="87,-855.5 87,-855.5 199,-855.5 199,-855.5 87,-855.5"/>
<polygon fill="#666666" stroke="#666666" points="87,-840.5 87,-840.5 199,-840.5 199,-840.5 87,-840.5"/>
<polygon fill="none" stroke="#666666" points="87,-824 87,-873 199,-873 199,-824 87,-824"/>
</a>
</g>
</g>
<!-- Node6&#45;&gt;Node4 -->
<g id="edge5_Node000004_Node000006" class="edge">
<title>Node6&#45;&gt;Node4</title>
<g id="a_edge5_Node000004_Node000006"><a xlink:title=" ">
<path fill="none" stroke="orange" d="M118.36,-815.77C108.57,-803.16 97.49,-788.9 88.42,-777.21"/>
<polygon fill="orange" stroke="orange" points="115.68,-818.03 124.58,-823.78 121.21,-813.73 115.68,-818.03"/>
</a>
</g>
<text text-anchor="middle" x="139.5" y="-798" font-family="Helvetica,sans-Serif" font-size="10.00" fill="grey"> &lt; Private &gt;</text>
</g>
<!-- Node7 -->
<g id="Node000007" class="node">
<title>Node7</title>
<g id="a_Node000007"><a xlink:title=" ">
<polygon fill="white" stroke="transparent" points="151.5,-969 134.5,-969 134.5,-920 151.5,-920 151.5,-969"/>
<text text-anchor="start" x="140" y="-956.5" font-family="Helvetica,sans-Serif" font-size="10.00">T</text>
<text text-anchor="start" x="141.5" y="-941.5" font-family="Helvetica,sans-Serif" font-size="10.00"> </text>
<text text-anchor="start" x="141.5" y="-926.5" font-family="Helvetica,sans-Serif" font-size="10.00"> </text>
<polygon fill="#666666" stroke="#666666" points="135,-951.5 135,-951.5 152,-951.5 152,-951.5 135,-951.5"/>
<polygon fill="#666666" stroke="#666666" points="135,-936.5 135,-936.5 152,-936.5 152,-936.5 135,-936.5"/>
<polygon fill="none" stroke="#666666" points="134.5,-920 134.5,-969 151.5,-969 151.5,-920 134.5,-920"/>
</a>
</g>
</g>
<!-- Node7&#45;&gt;Node6 -->
<g id="edge6_Node000006_Node000007" class="edge">
<title>Node7&#45;&gt;Node6</title>
<g id="a_edge6_Node000006_Node000007"><a xlink:title=" ">
<path fill="none" stroke="#63b8ff" d="M143,-919.78C143,-909.32 143,-896.79 143,-885.23"/>
<polygon fill="none" stroke="#63b8ff" points="143,-885.21 139,-879.21 143,-873.21 147,-879.21 143,-885.21"/>
</a>
</g>
<text text-anchor="middle" x="155.5" y="-894" font-family="Helvetica,sans-Serif" font-size="10.00" fill="grey"> +ptr</text>
</g>
<!-- Node8 -->
<g id="Node000008" class="node">
<title>Node8</title>
<g id="a_Node000008"><a xlink:title=" ">
<polygon fill="white" stroke="transparent" points="266.5,-598.5 153.5,-598.5 153.5,-549.5 266.5,-549.5 266.5,-598.5"/>
<text text-anchor="start" x="159" y="-586" font-family="Helvetica,sans-Serif" font-size="10.00">static constexpr long</text>
<text text-anchor="start" x="208.5" y="-571" font-family="Helvetica,sans-Serif" font-size="10.00"> </text>
<text text-anchor="start" x="208.5" y="-556" font-family="Helvetica,sans-Serif" font-size="10.00"> </text>
<polygon fill="#666666" stroke="#666666" points="154,-581 154,-581 267,-581 267,-581 154,-581"/>
<polygon fill="#666666" stroke="#666666" points="154,-566 154,-566 267,-566 267,-566 154,-566"/>
<polygon fill="none" stroke="#666666" points="153.5,-549.5 153.5,-598.5 266.5,-598.5 266.5,-549.5 153.5,-549.5"/>
</a>
</g>
</g>
<!-- Node8&#45;&gt;Node2 -->
<g id="edge7_Node000002_Node000008" class="edge">
<title>Node8&#45;&gt;Node2</title>
<g id="a_edge7_Node000002_Node000008"><a xlink:title=" ">
<path fill="none" stroke="#63b8ff" d="M204.45,-549.49C198.22,-523.1 187.55,-477.91 176.67,-431.81"/>
<polygon fill="none" stroke="#63b8ff" points="176.66,-431.76 171.38,-426.84 173.9,-420.08 179.17,-425 176.66,-431.76"/>
</a>
</g>
<text text-anchor="middle" x="215" y="-441" font-family="Helvetica,sans-Serif" font-size="10.00" fill="grey"> +InvalidValue</text>
</g>
</g>
</svg>
