<?xml version="1.0" encoding="UTF-8" standalone="no"?>
<!DOCTYPE svg PUBLIC "-//W3C//DTD SVG 1.1//EN"
 "http://www.w3.org/Graphics/SVG/1.1/DTD/svg11.dtd">
<!-- Generated by graphviz version 2.43.0 (0)
 -->
<!-- Title: Piduino::LinearBuffer::ungetBlock Pages: 1 -->
<svg width="434pt" height="60pt"
 viewBox="0.00 0.00 434.00 60.00" xmlns="http://www.w3.org/2000/svg" xmlns:xlink="http://www.w3.org/1999/xlink">
<g id="graph0" class="graph" transform="scale(1 1) rotate(0) translate(4 56)">
<title>Piduino::LinearBuffer::ungetBlock</title>
<!-- Node1 -->
<g id="Node000001" class="node">
<title>Node1</title>
<g id="a_Node000001"><a xlink:title=" ">
<polygon fill="#999999" stroke="#666666" points="118,-30 0,-30 0,0 118,0 118,-30"/>
<text text-anchor="start" x="8" y="-18" font-family="Helvetica,sans-Serif" font-size="10.00">Piduino::LinearBuffer</text>
<text text-anchor="middle" x="59" y="-7" font-family="Helvetica,sans-Serif" font-size="10.00">::ungetBlock</text>
</a>
</g>
</g>
<!-- Node2 -->
<g id="Node000002" class="node">
<title>Node2</title>
<g id="a_Node000002"><a xlink:href="class_piduino_1_1_linear_buffer.html#a5d3a1c0cb77b3ec8da1e28aa436bbeed" target="_top" xlink:title=" ">
<polygon fill="white" stroke="#666666" points="272,-52 154,-52 154,-22 272,-22 272,-52"/>
<text text-anchor="start" x="162" y="-40" font-family="Helvetica,sans-Serif" font-size="10.00">Piduino::LinearBuffer</text>
<text text-anchor="middle" x="213" y="-29" font-family="Helvetica,sans-Serif" font-size="10.00">::resize</text>
</a>
</g>
</g>
<!-- Node1&#45;&gt;Node2 -->
<g id="edge1_Node000001_Node000002" class="edge">
<title>Node1&#45;&gt;Node2</title>
<g id="a_edge1_Node000001_Node000002"><a xlink:title=" ">
<path fill="none" stroke="#63b8ff" d="M118.33,-23.44C126.7,-24.65 135.36,-25.91 143.9,-27.14"/>
<polygon fill="#63b8ff" stroke="#63b8ff" points="143.43,-30.61 153.82,-28.58 144.43,-23.68 143.43,-30.61"/>
</a>
</g>
</g>
<!-- Node3 -->
<g id="Node000003" class="node">
<title>Node3</title>
<g id="a_Node000003"><a xlink:href="class_piduino_1_1_linear_buffer.html#a0bcecf0b47e4cfc9abd81654460079b3" target="_top" xlink:title=" ">
<polygon fill="white" stroke="#666666" points="426,-30 308,-30 308,0 426,0 426,-30"/>
<text text-anchor="start" x="316" y="-18" font-family="Helvetica,sans-Serif" font-size="10.00">Piduino::LinearBuffer</text>
<text text-anchor="middle" x="367" y="-7" font-family="Helvetica,sans-Serif" font-size="10.00">::size</text>
</a>
</g>
</g>
<!-- Node1&#45;&gt;Node3 -->
<g id="edge3_Node000001_Node000003" class="edge">
<title>Node1&#45;&gt;Node3</title>
<g id="a_edge3_Node000001_Node000003"><a xlink:title=" ">
<path fill="none" stroke="#63b8ff" d="M118.16,-13.57C130.02,-13.33 142.41,-13.12 154,-13 206.44,-12.44 219.56,-12.44 272,-13 280.33,-13.09 289.07,-13.22 297.74,-13.38"/>
<polygon fill="#63b8ff" stroke="#63b8ff" points="297.77,-16.88 307.84,-13.57 297.91,-9.88 297.77,-16.88"/>
</a>
</g>
</g>
<!-- Node2&#45;&gt;Node3 -->
<g id="edge2_Node000002_Node000003" class="edge">
<title>Node2&#45;&gt;Node3</title>
<g id="a_edge2_Node000002_Node000003"><a xlink:title=" ">
<path fill="none" stroke="#63b8ff" d="M272.33,-28.56C280.7,-27.35 289.36,-26.09 297.9,-24.86"/>
<polygon fill="#63b8ff" stroke="#63b8ff" points="298.43,-28.32 307.82,-23.42 297.43,-21.39 298.43,-28.32"/>
</a>
</g>
</g>
</g>
</svg>
