<?xml version="1.0" encoding="UTF-8" standalone="no"?>
<!DOCTYPE svg PUBLIC "-//W3C//DTD SVG 1.1//EN"
 "http://www.w3.org/Graphics/SVG/1.1/DTD/svg11.dtd">
<!-- Generated by graphviz version 2.43.0 (0)
 -->
<!-- Title: Piduino::ConfigFile::extractContents Pages: 1 -->
<!--zoomable 167 -->

<svg id="main" version="1.1" xmlns="http://www.w3.org/2000/svg" xmlns:xlink="http://www.w3.org/1999/xlink" xml:space="preserve" onload="init(evt)">
<style type="text/css"><![CDATA[
.node, .edge {opacity: 0.7;}
.node.selected, .edge.selected {opacity: 1;}
.edge:hover path { stroke: red; }
.edge:hover polygon { stroke: red; fill: red; }
]]></style>

<defs>
  <circle id="rim" cx="0" cy="0" r="7"/>
  <circle id="rim2" cx="0" cy="0" r="3.5"/>
  <g id="zoomPlus">
    <use xlink:href="#rim" fill="#404040"><set attributeName="fill" to="#808080" begin="zoomplus.mouseover" end="zoomplus.mouseout"/></use>
    <path d="M-4,0h8M0,-4v8" fill="none" stroke="white" stroke-width="1.5" pointer-events="none"/>
  </g>
  <g id="zoomMin">
    <use xlink:href="#rim" fill="#404040"><set attributeName="fill" to="#808080" begin="zoomminus.mouseover" end="zoomminus.mouseout"/></use>
    <path d="M-4,0h8" fill="none" stroke="white" stroke-width="1.5" pointer-events="none"/>
  </g>
  <g id="arrowUp" transform="translate(30 24)">
    <use xlink:href="#rim"/>
    <path pointer-events="none" fill="none" stroke="white" stroke-width="1.5" d="M0,-3.0v7 M-2.5,-0.5L0,-3.0L2.5,-0.5"/>
  </g>
  <g id="arrowRight" transform="rotate(90) translate(36 -43)">
    <use xlink:href="#rim"/>
    <path pointer-events="none" fill="none" stroke="white" stroke-width="1.5" d="M0,-3.0v7 M-2.5,-0.5L0,-3.0L2.5,-0.5"/>
  </g>
  <g id="arrowDown" transform="rotate(180) translate(-30 -48)">
    <use xlink:href="#rim"/>
    <path pointer-events="none" fill="none" stroke="white" stroke-width="1.5" d="M0,-3.0v7 M-2.5,-0.5L0,-3.0L2.5,-0.5"/>
  </g>
  <g id="arrowLeft" transform="rotate(270) translate(-36 17)">
    <use xlink:href="#rim"/>
    <path pointer-events="none" fill="none" stroke="white" stroke-width="1.5" d="M0,-3.0v7 M-2.5,-0.5L0,-3.0L2.5,-0.5"/>
  </g>
  <g id="resetDef">
    <use xlink:href="#rim2" fill="#404040"><set attributeName="fill" to="#808080" begin="reset.mouseover" end="reset.mouseout"/></use>
  </g>
</defs>
<script type="application/ecmascript">
var viewWidth = 594;
var viewHeight = 167;
var sectionId = 'dynsection-2';
</script>
<script type="application/ecmascript" xlink:href="svg.min.js"/>
<svg id="graph" class="graph">
<g id="viewport">
<title>Piduino::ConfigFile::extractContents</title>
<!-- Node1 -->
<g id="Node000001" class="node">
<title>Node1</title>
<g id="a_Node000001"><a xlink:title=" ">
<polygon fill="#999999" stroke="#666666" points="107,-89 0,-89 0,-59 107,-59 107,-89"/>
<text text-anchor="start" x="8" y="-77" font-family="Helvetica,sans-Serif" font-size="10.00">Piduino::ConfigFile</text>
<text text-anchor="middle" x="53.5" y="-66" font-family="Helvetica,sans-Serif" font-size="10.00">::extractContents</text>
</a>
</g>
</g>
<!-- Node2 -->
<g id="Node000002" class="node">
<title>Node2</title>
<g id="a_Node000002"><a xlink:href="class_piduino_1_1_config_file.html#a8e0df84ffbd126c5e1e9e272685e2400" target="_top" xlink:title=" ">
<polygon fill="white" stroke="#666666" points="250,-159 143,-159 143,-129 250,-129 250,-159"/>
<text text-anchor="start" x="151" y="-147" font-family="Helvetica,sans-Serif" font-size="10.00">Piduino::ConfigFile</text>
<text text-anchor="middle" x="196.5" y="-136" font-family="Helvetica,sans-Serif" font-size="10.00">::extractKey</text>
</a>
</g>
</g>
<!-- Node1&#45;&gt;Node2 -->
<g id="edge1_Node000001_Node000002" class="edge">
<title>Node1&#45;&gt;Node2</title>
<g id="a_edge1_Node000001_Node000002"><a xlink:title=" ">
<path fill="none" stroke="#63b8ff" d="M82.61,-89.08C99.92,-98.24 122.61,-110.05 143,-120 146.11,-121.52 149.34,-123.06 152.6,-124.6"/>
<polygon fill="#63b8ff" stroke="#63b8ff" points="151.23,-127.83 161.77,-128.89 154.19,-121.49 151.23,-127.83"/>
</a>
</g>
</g>
<!-- Node4 -->
<g id="Node000004" class="node">
<title>Node4</title>
<g id="a_Node000004"><a xlink:href="class_piduino_1_1_config_file.html#a1dfffafd7e410eba8d117a923a98f9c4" target="_top" xlink:title=" ">
<polygon fill="white" stroke="#666666" points="250,-111 143,-111 143,-81 250,-81 250,-111"/>
<text text-anchor="start" x="151" y="-99" font-family="Helvetica,sans-Serif" font-size="10.00">Piduino::ConfigFile</text>
<text text-anchor="middle" x="196.5" y="-88" font-family="Helvetica,sans-Serif" font-size="10.00">::extractValue</text>
</a>
</g>
</g>
<!-- Node1&#45;&gt;Node4 -->
<g id="edge3_Node000001_Node000004" class="edge">
<title>Node1&#45;&gt;Node4</title>
<g id="a_edge3_Node000001_Node000004"><a xlink:title=" ">
<path fill="none" stroke="#63b8ff" d="M107,-82.19C115.44,-83.51 124.26,-84.88 132.9,-86.23"/>
<polygon fill="#63b8ff" stroke="#63b8ff" points="132.53,-89.72 142.95,-87.8 133.61,-82.8 132.53,-89.72"/>
</a>
</g>
</g>
<!-- Node5 -->
<g id="Node000005" class="node">
<title>Node5</title>
<g id="a_Node000005"><a xlink:href="class_piduino_1_1_config_file.html#a8feaf8f16edf2e5f4c000299a4b2ab8f" target="_top" xlink:title=" ">
<polygon fill="white" stroke="#666666" points="393,-73 286,-73 286,-43 393,-43 393,-73"/>
<text text-anchor="start" x="294" y="-61" font-family="Helvetica,sans-Serif" font-size="10.00">Piduino::ConfigFile</text>
<text text-anchor="middle" x="339.5" y="-50" font-family="Helvetica,sans-Serif" font-size="10.00">::value</text>
</a>
</g>
</g>
<!-- Node1&#45;&gt;Node5 -->
<g id="edge9_Node000001_Node000005" class="edge">
<title>Node1&#45;&gt;Node5</title>
<g id="a_edge9_Node000001_Node000005"><a xlink:title=" ">
<path fill="none" stroke="#63b8ff" d="M107.25,-71.03C154.83,-68.35 224.87,-64.4 275.4,-61.56"/>
<polygon fill="#63b8ff" stroke="#63b8ff" points="275.76,-65.04 285.55,-60.98 275.37,-58.05 275.76,-65.04"/>
</a>
</g>
</g>
<!-- Node6 -->
<g id="Node000006" class="node">
<title>Node6</title>
<g id="a_Node000006"><a xlink:href="class_piduino_1_1_config_file.html#ac1bbcae904476467a2fe560475d46f03" target="_top" xlink:title=" ">
<polygon fill="white" stroke="#666666" points="561,-30 454,-30 454,0 561,0 561,-30"/>
<text text-anchor="start" x="462" y="-18" font-family="Helvetica,sans-Serif" font-size="10.00">Piduino::ConfigFile</text>
<text text-anchor="middle" x="507.5" y="-7" font-family="Helvetica,sans-Serif" font-size="10.00">::keyExists</text>
</a>
</g>
</g>
<!-- Node1&#45;&gt;Node6 -->
<g id="edge8_Node000001_Node000006" class="edge">
<title>Node1&#45;&gt;Node6</title>
<g id="a_edge8_Node000001_Node000006"><a xlink:title=" ">
<path fill="none" stroke="#63b8ff" d="M107.17,-63.58C153.97,-54.64 224.31,-41.97 286,-34 339.03,-27.15 399.56,-22.13 443.77,-18.98"/>
<polygon fill="#63b8ff" stroke="#63b8ff" points="444.06,-22.47 453.79,-18.28 443.57,-15.48 444.06,-22.47"/>
</a>
</g>
</g>
<!-- Node3 -->
<g id="Node000003" class="node">
<title>Node3</title>
<g id="a_Node000003"><a xlink:href="class_piduino_1_1_config_file.html#aa5bdde30b71979f7feef9c4a72b54bd6" target="_top" xlink:title=" ">
<polygon fill="white" stroke="#666666" points="393,-140 286,-140 286,-110 393,-110 393,-140"/>
<text text-anchor="start" x="294" y="-128" font-family="Helvetica,sans-Serif" font-size="10.00">Piduino::ConfigFile</text>
<text text-anchor="middle" x="339.5" y="-117" font-family="Helvetica,sans-Serif" font-size="10.00">::trim</text>
</a>
</g>
</g>
<!-- Node2&#45;&gt;Node3 -->
<g id="edge2_Node000002_Node000003" class="edge">
<title>Node2&#45;&gt;Node3</title>
<g id="a_edge2_Node000002_Node000003"><a xlink:title=" ">
<path fill="none" stroke="#63b8ff" d="M250,-136.93C258.44,-135.79 267.26,-134.6 275.9,-133.43"/>
<polygon fill="#63b8ff" stroke="#63b8ff" points="276.51,-136.88 285.95,-132.08 275.58,-129.95 276.51,-136.88"/>
</a>
</g>
</g>
<!-- Node4&#45;&gt;Node3 -->
<g id="edge4_Node000004_Node000003" class="edge">
<title>Node4&#45;&gt;Node3</title>
<g id="a_edge4_Node000004_Node000003"><a xlink:title=" ">
<path fill="none" stroke="#63b8ff" d="M250,-106.8C258.44,-108.53 267.26,-110.35 275.9,-112.13"/>
<polygon fill="#63b8ff" stroke="#63b8ff" points="275.45,-115.61 285.95,-114.19 276.86,-108.75 275.45,-115.61"/>
</a>
</g>
</g>
<!-- Node4&#45;&gt;Node5 -->
<g id="edge5_Node000004_Node000005" class="edge">
<title>Node4&#45;&gt;Node5</title>
<g id="a_edge5_Node000004_Node000005"><a xlink:title=" ">
<path fill="none" stroke="#63b8ff" d="M250,-81.85C258.54,-79.55 267.45,-77.15 276.19,-74.79"/>
<polygon fill="#63b8ff" stroke="#63b8ff" points="277.21,-78.14 285.95,-72.16 275.39,-71.38 277.21,-78.14"/>
</a>
</g>
</g>
<!-- Node5&#45;&gt;Node6 -->
<g id="edge6_Node000005_Node000006" class="edge">
<title>Node5&#45;&gt;Node6</title>
<g id="a_edge6_Node000005_Node000006"><a xlink:title=" ">
<path fill="none" stroke="#63b8ff" d="M393.02,-44.39C409.22,-40.2 427.22,-35.54 444.02,-31.19"/>
<polygon fill="#63b8ff" stroke="#63b8ff" points="444.95,-34.56 453.75,-28.66 443.19,-27.78 444.95,-34.56"/>
</a>
</g>
</g>
<!-- Node7 -->
<g id="Node000007" class="node">
<title>Node7</title>
<g id="a_Node000007"><a xlink:href="class_piduino_1_1_convert.html#a9e64d6f6b6442885a4b070a71ca2d6ec" target="_top" xlink:title=" ">
<polygon fill="white" stroke="#666666" points="586,-67.5 429,-67.5 429,-48.5 586,-48.5 586,-67.5"/>
<text text-anchor="middle" x="507.5" y="-55.5" font-family="Helvetica,sans-Serif" font-size="10.00">Piduino::Convert::string_to_T</text>
</a>
</g>
</g>
<!-- Node5&#45;&gt;Node7 -->
<g id="edge7_Node000005_Node000007" class="edge">
<title>Node5&#45;&gt;Node7</title>
<g id="a_edge7_Node000005_Node000007"><a xlink:title=" ">
<path fill="none" stroke="#63b8ff" d="M393.02,-58C401.22,-58 409.87,-58 418.59,-58"/>
<polygon fill="#63b8ff" stroke="#63b8ff" points="418.85,-61.5 428.85,-58 418.85,-54.5 418.85,-61.5"/>
</a>
</g>
</g>
</g>
</svg>

<g id="navigator" transform="translate(0 0)" fill="#404254">
  <rect fill="#f2f5e9" fill-opacity="0.5" stroke="#606060" stroke-width=".5" x="0" y="0" width="60" height="60"/>
  <use id="zoomplus" xlink:href="#zoomPlus" x="17" y="9" onmousedown="handleZoom(evt,'in')"/>
  <use id="zoomminus" xlink:href="#zoomMin" x="42" y="9" onmousedown="handleZoom(evt,'out')"/>
  <use id="reset" xlink:href="#resetDef" x="30" y="36" onmousedown="handleReset()"/>
   <use id="arrowup" xlink:href="#arrowUp" x="0" y="0" onmousedown="handlePan(0,-1)"/>
  <use id="arrowright" xlink:href="#arrowRight" x="0" y="0" onmousedown="handlePan(1,0)"/>
  <use id="arrowdown" xlink:href="#arrowDown" x="0" y="0" onmousedown="handlePan(0,1)"/>
  <use id="arrowleft" xlink:href="#arrowLeft" x="0" y="0" onmousedown="handlePan(-1,0)"/>
</g>
<svg viewBox="0 0 15 15" width="100%" height="30px" preserveAspectRatio="xMaxYMin meet">
 <g id="arrow_out" transform="scale(0.3 0.3)">
  <a xlink:href="class_piduino_1_1_config_file_acdff7e5c099b7e1db99d4e024bcbf380_cgraph_org.svg" target="_base">
   <rect id="button" ry="5" rx="5" y="6" x="6" height="38" width="38"
        fill="#f2f5e9" fill-opacity="0.5" stroke="#606060" stroke-width="1.0"/>
   <path id="arrow"
     d="M 11.500037,31.436501 C 11.940474,20.09759 22.043105,11.32322 32.158766,21.979434 L 37.068811,17.246167 C 37.068811,17.246167 37.088388,32 37.088388,32 L 22.160133,31.978069 C 22.160133,31.978069 26.997745,27.140456 26.997745,27.140456 C 18.528582,18.264221 13.291696,25.230495 11.500037,31.436501 z"
     style="fill:#404040;"/>
  </a>
 </g>
</svg>

<style type='text/css'>
<![CDATA[
[data-mouse-over-selected='false'] { opacity: 0.7; }
[data-mouse-over-selected='true']  { opacity: 1.0; }
]]>
</style>
<script type="application/ecmascript"><![CDATA[
document.addEventListener('DOMContentLoaded', (event) => {
  highlightEdges();
  highlightAdjacentNodes();
});
]]></script>
</svg>
