<?xml version="1.0" encoding="UTF-8" standalone="no"?>
<!DOCTYPE svg PUBLIC "-//W3C//DTD SVG 1.1//EN"
 "http://www.w3.org/Graphics/SVG/1.1/DTD/svg11.dtd">
<!-- Generated by graphviz version 2.43.0 (0)
 -->
<!-- Title: Board Pages: 1 -->
<svg width="242pt" height="582pt"
 viewBox="0.00 0.00 242.00 582.00" xmlns="http://www.w3.org/2000/svg" xmlns:xlink="http://www.w3.org/1999/xlink">
<g id="graph0" class="graph" transform="scale(1 1) rotate(0) translate(4 578)">
<title>Board</title>
<!-- Node1 -->
<g id="Node000001" class="node">
<title>Node1</title>
<g id="a_Node000001"><a xlink:title=" ">
<polygon fill="#999999" stroke="#666666" points="45,-296 0,-296 0,-277 45,-277 45,-296"/>
<text text-anchor="middle" x="22.5" y="-284" font-family="Helvetica,sans-Serif" font-size="10.00">Board</text>
</a>
</g>
</g>
<!-- Node2 -->
<g id="Node000002" class="node">
<title>Node2</title>
<g id="a_Node000002"><a xlink:href="group__piduino__configfile.html" target="_top" xlink:title=" ">
<polygon fill="white" stroke="#666666" points="234,-574 118,-574 118,-555 234,-555 234,-574"/>
<text text-anchor="middle" x="176" y="-562" font-family="Helvetica,sans-Serif" font-size="10.00">Fichier configuration</text>
</a>
</g>
</g>
<!-- Node1&#45;&gt;Node2 -->
<g id="edge1" class="edge">
<title>Node1&#45;&gt;Node2</title>
<path fill="none" stroke="blueviolet" stroke-dasharray="5,2" d="M23.75,-296.05C25.01,-336.54 31.84,-493.58 63,-529.5 76.82,-545.43 97.77,-554.2 117.83,-558.99"/>
<text text-anchor="middle" x="81.5" y="-555.5" font-family="Helvetica,sans-Serif" font-size="10.00">Piduino</text>
</g>
<!-- Node3 -->
<g id="Node000003" class="node">
<title>Node3</title>
<g id="a_Node000003"><a xlink:href="group__piduino__database.html" target="_top" xlink:title=" ">
<polygon fill="white" stroke="#666666" points="207.5,-537 144.5,-537 144.5,-518 207.5,-518 207.5,-537"/>
<text text-anchor="middle" x="176" y="-525" font-family="Helvetica,sans-Serif" font-size="10.00">Database</text>
</a>
</g>
</g>
<!-- Node1&#45;&gt;Node3 -->
<g id="edge2" class="edge">
<title>Node1&#45;&gt;Node3</title>
<path fill="none" stroke="blueviolet" stroke-dasharray="5,2" d="M24.11,-296.18C26.61,-332.58 37.11,-460.67 63,-490.5 83.33,-513.93 118.83,-522.59 144.41,-525.75"/>
<text text-anchor="middle" x="81.5" y="-517.5" font-family="Helvetica,sans-Serif" font-size="10.00">Piduino</text>
</g>
<!-- Node4 -->
<g id="Node000004" class="node">
<title>Node4</title>
<g id="a_Node000004"><a xlink:href="group__piduino__filedevice.html" target="_top" xlink:title=" ">
<polygon fill="white" stroke="#666666" points="211.5,-500 140.5,-500 140.5,-481 211.5,-481 211.5,-500"/>
<text text-anchor="middle" x="176" y="-488" font-family="Helvetica,sans-Serif" font-size="10.00">File Device</text>
</a>
</g>
</g>
<!-- Node1&#45;&gt;Node4 -->
<g id="edge3" class="edge">
<title>Node1&#45;&gt;Node4</title>
<path fill="none" stroke="blueviolet" stroke-dasharray="5,2" d="M22.91,-296.07C21.75,-323.76 22.19,-405.02 63,-451.5 82.49,-473.7 115.32,-483.27 140.42,-487.39"/>
<text text-anchor="middle" x="81.5" y="-478.5" font-family="Helvetica,sans-Serif" font-size="10.00">Piduino</text>
</g>
<!-- Node5 -->
<g id="Node000005" class="node">
<title>Node5</title>
<g id="a_Node000005"><a xlink:href="group__piduino__filestream.html" target="_top" xlink:title=" ">
<polygon fill="white" stroke="#666666" points="212,-463 140,-463 140,-444 212,-444 212,-463"/>
<text text-anchor="middle" x="176" y="-451" font-family="Helvetica,sans-Serif" font-size="10.00">File Stream</text>
</a>
</g>
</g>
<!-- Node1&#45;&gt;Node5 -->
<g id="edge4" class="edge">
<title>Node1&#45;&gt;Node5</title>
<path fill="none" stroke="blueviolet" stroke-dasharray="5,2" d="M23.93,-296.28C25.43,-319.25 32.25,-377.32 63,-411.5 82.72,-433.42 115.03,-443.95 139.89,-448.97"/>
<text text-anchor="middle" x="81.5" y="-439.5" font-family="Helvetica,sans-Serif" font-size="10.00">Piduino</text>
</g>
<!-- Node6 -->
<g id="Node000006" class="node">
<title>Node6</title>
<g id="a_Node000006"><a xlink:href="group__piduino__global.html" target="_top" xlink:title=" ">
<polygon fill="white" stroke="#666666" points="227,-426 125,-426 125,-407 227,-407 227,-426"/>
<text text-anchor="middle" x="176" y="-414" font-family="Helvetica,sans-Serif" font-size="10.00">Global definitions</text>
</a>
</g>
</g>
<!-- Node1&#45;&gt;Node6 -->
<g id="edge5" class="edge">
<title>Node1&#45;&gt;Node6</title>
<path fill="none" stroke="blueviolet" stroke-dasharray="5,2" d="M25.51,-296.14C29.64,-313.69 40.6,-351.09 63,-373.5 79.79,-390.29 103.83,-400.66 125.34,-406.99"/>
<text text-anchor="middle" x="81.5" y="-399.5" font-family="Helvetica,sans-Serif" font-size="10.00">Piduino</text>
</g>
<!-- Node7 -->
<g id="Node000007" class="node">
<title>Node7</title>
<g id="a_Node000007"><a xlink:href="group__piduino__iomap.html" target="_top" xlink:title=" ">
<polygon fill="white" stroke="#666666" points="229.5,-389 122.5,-389 122.5,-370 229.5,-370 229.5,-389"/>
<text text-anchor="middle" x="176" y="-377" font-family="Helvetica,sans-Serif" font-size="10.00">IO Memory Access</text>
</a>
</g>
</g>
<!-- Node1&#45;&gt;Node7 -->
<g id="edge6" class="edge">
<title>Node1&#45;&gt;Node7</title>
<path fill="none" stroke="blueviolet" stroke-dasharray="5,2" d="M28.72,-296.17C35.34,-307.64 47.76,-326.7 63,-338.5 82.65,-353.71 108.49,-363.67 130.39,-369.96"/>
<text text-anchor="middle" x="81.5" y="-361.5" font-family="Helvetica,sans-Serif" font-size="10.00">Piduino</text>
</g>
<!-- Node8 -->
<g id="Node000008" class="node">
<title>Node8</title>
<g id="a_Node000008"><a xlink:href="group__piduino__linearbuffer.html" target="_top" xlink:title=" ">
<polygon fill="white" stroke="#666666" points="215.5,-352 136.5,-352 136.5,-333 215.5,-333 215.5,-352"/>
<text text-anchor="middle" x="176" y="-340" font-family="Helvetica,sans-Serif" font-size="10.00">Linear Buffer</text>
</a>
</g>
</g>
<!-- Node1&#45;&gt;Node8 -->
<g id="edge7" class="edge">
<title>Node1&#45;&gt;Node8</title>
<path fill="none" stroke="blueviolet" stroke-dasharray="5,2" d="M37.26,-296.12C44.64,-300.94 54.03,-306.58 63,-310.5 86.53,-320.79 114.28,-328.74 136.27,-334.15"/>
<text text-anchor="middle" x="81.5" y="-326.5" font-family="Helvetica,sans-Serif" font-size="10.00">Piduino</text>
</g>
<!-- Node9 -->
<g id="Node000009" class="node">
<title>Node9</title>
<g id="a_Node000009"><a xlink:href="group__piduino__manufacturer.html" target="_top" xlink:title=" ">
<polygon fill="white" stroke="#666666" points="209,-315 143,-315 143,-296 209,-296 209,-315"/>
<text text-anchor="middle" x="176" y="-303" font-family="Helvetica,sans-Serif" font-size="10.00">Fabricants</text>
</a>
</g>
</g>
<!-- Node1&#45;&gt;Node9 -->
<g id="edge8" class="edge">
<title>Node1&#45;&gt;Node9</title>
<path fill="none" stroke="blueviolet" stroke-dasharray="5,2" d="M45.21,-289.22C70.73,-292.42 113.35,-297.77 142.74,-301.45"/>
<text text-anchor="middle" x="81.5" y="-298.5" font-family="Helvetica,sans-Serif" font-size="10.00">Piduino</text>
</g>
<!-- Node10 -->
<g id="Node000010" class="node">
<title>Node10</title>
<g id="a_Node000010"><a xlink:href="group__piduino__sceduler.html" target="_top" xlink:title=" ">
<polygon fill="white" stroke="#666666" points="208.5,-278 143.5,-278 143.5,-259 208.5,-259 208.5,-278"/>
<text text-anchor="middle" x="176" y="-266" font-family="Helvetica,sans-Serif" font-size="10.00">Scheduler</text>
</a>
</g>
</g>
<!-- Node1&#45;&gt;Node10 -->
<g id="edge9" class="edge">
<title>Node1&#45;&gt;Node10</title>
<path fill="none" stroke="blueviolet" stroke-dasharray="5,2" d="M45.32,-277.44C50.98,-275.45 57.14,-273.62 63,-272.5 89.76,-267.4 120.75,-266.69 143.33,-267.08"/>
<text text-anchor="middle" x="81.5" y="-275.5" font-family="Helvetica,sans-Serif" font-size="10.00">Piduino</text>
</g>
<!-- Node11 -->
<g id="Node000011" class="node">
<title>Node11</title>
<g id="a_Node000011"><a xlink:href="group__piduino__serialport.html" target="_top" xlink:title=" ">
<polygon fill="white" stroke="#666666" points="209.5,-241 142.5,-241 142.5,-222 209.5,-222 209.5,-241"/>
<text text-anchor="middle" x="176" y="-229" font-family="Helvetica,sans-Serif" font-size="10.00">Serial port</text>
</a>
</g>
</g>
<!-- Node1&#45;&gt;Node11 -->
<g id="edge10" class="edge">
<title>Node1&#45;&gt;Node11</title>
<path fill="none" stroke="blueviolet" stroke-dasharray="5,2" d="M31.92,-276.86C39.31,-269.04 50.77,-258.38 63,-252.5 87.96,-240.5 119.12,-235.35 142.23,-233.14"/>
<text text-anchor="middle" x="81.5" y="-255.5" font-family="Helvetica,sans-Serif" font-size="10.00">Piduino</text>
</g>
<!-- Node12 -->
<g id="Node000012" class="node">
<title>Node12</title>
<g id="a_Node000012"><a xlink:href="group__piduino__soc.html" target="_top" xlink:title=" ">
<polygon fill="white" stroke="#666666" points="193.5,-204 158.5,-204 158.5,-185 193.5,-185 193.5,-204"/>
<text text-anchor="middle" x="176" y="-192" font-family="Helvetica,sans-Serif" font-size="10.00">SoC</text>
</a>
</g>
</g>
<!-- Node1&#45;&gt;Node12 -->
<g id="edge11" class="edge">
<title>Node1&#45;&gt;Node12</title>
<path fill="none" stroke="blueviolet" stroke-dasharray="5,2" d="M26.98,-276.94C32.47,-263.22 44.47,-238.08 63,-224.5 91.9,-203.31 134.76,-197.09 158.19,-195.26"/>
<text text-anchor="middle" x="81.5" y="-227.5" font-family="Helvetica,sans-Serif" font-size="10.00">Piduino</text>
</g>
<!-- Node13 -->
<g id="Node000013" class="node">
<title>Node13</title>
<g id="a_Node000013"><a xlink:href="group__piduino__spidev.html" target="_top" xlink:title=" ">
<polygon fill="white" stroke="#666666" points="202.5,-167 149.5,-167 149.5,-148 202.5,-148 202.5,-167"/>
<text text-anchor="middle" x="176" y="-155" font-family="Helvetica,sans-Serif" font-size="10.00">SPI Bus</text>
</a>
</g>
</g>
<!-- Node1&#45;&gt;Node13 -->
<g id="edge12" class="edge">
<title>Node1&#45;&gt;Node13</title>
<path fill="none" stroke="blueviolet" stroke-dasharray="5,2" d="M24.71,-276.75C27.64,-257.41 36.89,-214.03 63,-190.5 86.94,-168.92 124.35,-161.42 149.26,-158.83"/>
<text text-anchor="middle" x="81.5" y="-193.5" font-family="Helvetica,sans-Serif" font-size="10.00">Piduino</text>
</g>
<!-- Node14 -->
<g id="Node000014" class="node">
<title>Node14</title>
<g id="a_Node000014"><a xlink:href="group__piduino__syslog.html" target="_top" xlink:title=" ">
<polygon fill="white" stroke="#666666" points="225,-130 127,-130 127,-111 225,-111 225,-130"/>
<text text-anchor="middle" x="176" y="-118" font-family="Helvetica,sans-Serif" font-size="10.00">Gestion des logs</text>
</a>
</g>
</g>
<!-- Node1&#45;&gt;Node14 -->
<g id="edge13" class="edge">
<title>Node1&#45;&gt;Node14</title>
<path fill="none" stroke="blueviolet" stroke-dasharray="5,2" d="M23.46,-276.65C23.93,-252.37 28.56,-189.07 63,-154.5 79.85,-137.58 104.83,-129.03 126.92,-124.73"/>
<text text-anchor="middle" x="81.5" y="-157.5" font-family="Helvetica,sans-Serif" font-size="10.00">Piduino</text>
</g>
<!-- Node15 -->
<g id="Node000015" class="node">
<title>Node15</title>
<g id="a_Node000015"><a xlink:href="group__piduino__system.html" target="_top" xlink:title=" ">
<polygon fill="white" stroke="#666666" points="202.5,-93 149.5,-93 149.5,-74 202.5,-74 202.5,-93"/>
<text text-anchor="middle" x="176" y="-81" font-family="Helvetica,sans-Serif" font-size="10.00">System</text>
</a>
</g>
</g>
<!-- Node1&#45;&gt;Node15 -->
<g id="edge14" class="edge">
<title>Node1&#45;&gt;Node15</title>
<path fill="none" stroke="blueviolet" stroke-dasharray="5,2" d="M24.51,-276.7C28.05,-244.27 40.85,-141.14 63,-117.5 85.37,-93.63 123.9,-86.33 149.42,-84.21"/>
<text text-anchor="middle" x="81.5" y="-120.5" font-family="Helvetica,sans-Serif" font-size="10.00">Piduino</text>
</g>
<!-- Node16 -->
<g id="Node000016" class="node">
<title>Node16</title>
<g id="a_Node000016"><a xlink:href="group__piduino__terminal.html" target="_top" xlink:title=" ">
<polygon fill="white" stroke="#666666" points="205.5,-56 146.5,-56 146.5,-37 205.5,-37 205.5,-56"/>
<text text-anchor="middle" x="176" y="-44" font-family="Helvetica,sans-Serif" font-size="10.00">Terminal</text>
</a>
</g>
</g>
<!-- Node1&#45;&gt;Node16 -->
<g id="edge15" class="edge">
<title>Node1&#45;&gt;Node16</title>
<path fill="none" stroke="blueviolet" stroke-dasharray="5,2" d="M24.02,-276.84C26.2,-239.91 35.8,-108.29 63,-78.5 84.14,-55.35 120.74,-48.51 146.33,-46.7"/>
<text text-anchor="middle" x="81.5" y="-81.5" font-family="Helvetica,sans-Serif" font-size="10.00">Piduino</text>
</g>
<!-- Node17 -->
<g id="Node000017" class="node">
<title>Node17</title>
<g id="a_Node000017"><a xlink:href="group__piduino__terminalnotifier.html" target="_top" xlink:title=" ">
<polygon fill="white" stroke="#666666" points="216,-19 136,-19 136,0 216,0 216,-19"/>
<text text-anchor="middle" x="176" y="-7" font-family="Helvetica,sans-Serif" font-size="10.00">Read Notifier</text>
</a>
</g>
</g>
<!-- Node1&#45;&gt;Node17 -->
<g id="edge16" class="edge">
<title>Node1&#45;&gt;Node17</title>
<path fill="none" stroke="blueviolet" stroke-dasharray="5,2" d="M23.7,-276.81C24.76,-235.71 30.91,-76.36 63,-40.5 81.16,-20.2 111.32,-12.69 135.76,-10.13"/>
<text text-anchor="middle" x="81.5" y="-43.5" font-family="Helvetica,sans-Serif" font-size="10.00">Piduino</text>
</g>
</g>
</svg>
