<?xml version="1.0" encoding="UTF-8" standalone="no"?>
<!DOCTYPE svg PUBLIC "-//W3C//DTD SVG 1.1//EN"
 "http://www.w3.org/Graphics/SVG/1.1/DTD/svg11.dtd">
<!-- Generated by graphviz version 2.43.0 (0)
 -->
<!-- Title: Serial port Pages: 1 -->
<svg width="264pt" height="582pt"
 viewBox="0.00 0.00 264.00 582.00" xmlns="http://www.w3.org/2000/svg" xmlns:xlink="http://www.w3.org/1999/xlink">
<g id="graph0" class="graph" transform="scale(1 1) rotate(0) translate(4 578)">
<title>Serial port</title>
<!-- Node2 -->
<g id="Node000002" class="node">
<title>Node2</title>
<g id="a_Node000002"><a xlink:href="group__piduino__board.html" target="_top" xlink:title=" ">
<polygon fill="white" stroke="#666666" points="220.5,-574 175.5,-574 175.5,-555 220.5,-555 220.5,-574"/>
<text text-anchor="middle" x="198" y="-562" font-family="Helvetica,sans-Serif" font-size="10.00">Board</text>
</a>
</g>
</g>
<!-- Node3 -->
<g id="Node000003" class="node">
<title>Node3</title>
<g id="a_Node000003"><a xlink:href="group__piduino__configfile.html" target="_top" xlink:title=" ">
<polygon fill="white" stroke="#666666" points="256,-537 140,-537 140,-518 256,-518 256,-537"/>
<text text-anchor="middle" x="198" y="-525" font-family="Helvetica,sans-Serif" font-size="10.00">Fichier configuration</text>
</a>
</g>
</g>
<!-- Node4 -->
<g id="Node000004" class="node">
<title>Node4</title>
<g id="a_Node000004"><a xlink:href="group__piduino__database.html" target="_top" xlink:title=" ">
<polygon fill="white" stroke="#666666" points="229.5,-500 166.5,-500 166.5,-481 229.5,-481 229.5,-500"/>
<text text-anchor="middle" x="198" y="-488" font-family="Helvetica,sans-Serif" font-size="10.00">Database</text>
</a>
</g>
</g>
<!-- Node5 -->
<g id="Node000005" class="node">
<title>Node5</title>
<g id="a_Node000005"><a xlink:href="group__piduino__filedevice.html" target="_top" xlink:title=" ">
<polygon fill="white" stroke="#666666" points="233.5,-463 162.5,-463 162.5,-444 233.5,-444 233.5,-463"/>
<text text-anchor="middle" x="198" y="-451" font-family="Helvetica,sans-Serif" font-size="10.00">File Device</text>
</a>
</g>
</g>
<!-- Node6 -->
<g id="Node000006" class="node">
<title>Node6</title>
<g id="a_Node000006"><a xlink:href="group__piduino__filestream.html" target="_top" xlink:title=" ">
<polygon fill="white" stroke="#666666" points="234,-426 162,-426 162,-407 234,-407 234,-426"/>
<text text-anchor="middle" x="198" y="-414" font-family="Helvetica,sans-Serif" font-size="10.00">File Stream</text>
</a>
</g>
</g>
<!-- Node7 -->
<g id="Node000007" class="node">
<title>Node7</title>
<g id="a_Node000007"><a xlink:href="group__piduino__global.html" target="_top" xlink:title=" ">
<polygon fill="white" stroke="#666666" points="249,-389 147,-389 147,-370 249,-370 249,-389"/>
<text text-anchor="middle" x="198" y="-377" font-family="Helvetica,sans-Serif" font-size="10.00">Global definitions</text>
</a>
</g>
</g>
<!-- Node8 -->
<g id="Node000008" class="node">
<title>Node8</title>
<g id="a_Node000008"><a xlink:href="group__piduino__iomap.html" target="_top" xlink:title=" ">
<polygon fill="white" stroke="#666666" points="251.5,-352 144.5,-352 144.5,-333 251.5,-333 251.5,-352"/>
<text text-anchor="middle" x="198" y="-340" font-family="Helvetica,sans-Serif" font-size="10.00">IO Memory Access</text>
</a>
</g>
</g>
<!-- Node9 -->
<g id="Node000009" class="node">
<title>Node9</title>
<g id="a_Node000009"><a xlink:href="group__piduino__linearbuffer.html" target="_top" xlink:title=" ">
<polygon fill="white" stroke="#666666" points="237.5,-315 158.5,-315 158.5,-296 237.5,-296 237.5,-315"/>
<text text-anchor="middle" x="198" y="-303" font-family="Helvetica,sans-Serif" font-size="10.00">Linear Buffer</text>
</a>
</g>
</g>
<!-- Node10 -->
<g id="Node000010" class="node">
<title>Node10</title>
<g id="a_Node000010"><a xlink:href="group__piduino__manufacturer.html" target="_top" xlink:title=" ">
<polygon fill="white" stroke="#666666" points="231,-278 165,-278 165,-259 231,-259 231,-278"/>
<text text-anchor="middle" x="198" y="-266" font-family="Helvetica,sans-Serif" font-size="10.00">Fabricants</text>
</a>
</g>
</g>
<!-- Node11 -->
<g id="Node000011" class="node">
<title>Node11</title>
<g id="a_Node000011"><a xlink:href="group__piduino__sceduler.html" target="_top" xlink:title=" ">
<polygon fill="white" stroke="#666666" points="230.5,-241 165.5,-241 165.5,-222 230.5,-222 230.5,-241"/>
<text text-anchor="middle" x="198" y="-229" font-family="Helvetica,sans-Serif" font-size="10.00">Scheduler</text>
</a>
</g>
</g>
<!-- Node1 -->
<g id="Node000001" class="node">
<title>Node1</title>
<g id="a_Node000001"><a xlink:title=" ">
<polygon fill="#999999" stroke="#666666" points="67,-296 0,-296 0,-277 67,-277 67,-296"/>
<text text-anchor="middle" x="33.5" y="-284" font-family="Helvetica,sans-Serif" font-size="10.00">Serial port</text>
</a>
</g>
</g>
<!-- Node1&#45;&gt;Node2 -->
<g id="edge1" class="edge">
<title>Node1&#45;&gt;Node2</title>
<path fill="none" stroke="blueviolet" stroke-dasharray="5,2" d="M35.3,-296.19C38.8,-336.53 54.02,-490.8 85,-526.5 107.88,-552.86 149.76,-560.97 175.32,-563.44"/>
<text text-anchor="middle" x="103.5" y="-553.5" font-family="Helvetica,sans-Serif" font-size="10.00">Piduino</text>
</g>
<!-- Node1&#45;&gt;Node3 -->
<g id="edge2" class="edge">
<title>Node1&#45;&gt;Node3</title>
<path fill="none" stroke="blueviolet" stroke-dasharray="5,2" d="M34.04,-296.27C33.09,-328.02 34.33,-429.52 85,-487.5 98.99,-503.51 119.86,-513.12 139.8,-518.87"/>
<text text-anchor="middle" x="103.5" y="-514.5" font-family="Helvetica,sans-Serif" font-size="10.00">Piduino</text>
</g>
<!-- Node1&#45;&gt;Node4 -->
<g id="edge3" class="edge">
<title>Node1&#45;&gt;Node4</title>
<path fill="none" stroke="blueviolet" stroke-dasharray="5,2" d="M34.88,-296.15C36.45,-323.35 44.44,-401.64 85,-447.5 105.83,-471.06 141.06,-481.79 166.45,-486.62"/>
<text text-anchor="middle" x="103.5" y="-475.5" font-family="Helvetica,sans-Serif" font-size="10.00">Piduino</text>
</g>
<!-- Node1&#45;&gt;Node5 -->
<g id="edge4" class="edge">
<title>Node1&#45;&gt;Node5</title>
<path fill="none" stroke="blueviolet" stroke-dasharray="5,2" d="M36.01,-296.1C40.01,-318.65 52.9,-375.68 85,-409.5 105.42,-431.01 137.65,-442.2 162.3,-447.89"/>
<text text-anchor="middle" x="103.5" y="-435.5" font-family="Helvetica,sans-Serif" font-size="10.00">Piduino</text>
</g>
<!-- Node1&#45;&gt;Node6 -->
<g id="edge5" class="edge">
<title>Node1&#45;&gt;Node6</title>
<path fill="none" stroke="blueviolet" stroke-dasharray="5,2" d="M38.06,-296.12C44.83,-313.27 61.04,-349.38 85,-371.5 106.48,-391.33 137.81,-402.91 161.87,-409.34"/>
<text text-anchor="middle" x="103.5" y="-397.5" font-family="Helvetica,sans-Serif" font-size="10.00">Piduino</text>
</g>
<!-- Node1&#45;&gt;Node7 -->
<g id="edge6" class="edge">
<title>Node1&#45;&gt;Node7</title>
<path fill="none" stroke="blueviolet" stroke-dasharray="5,2" d="M41.78,-296.08C50.85,-307.48 67.32,-326.45 85,-338.5 106.65,-353.25 134.25,-363.43 156.63,-369.96"/>
<text text-anchor="middle" x="103.5" y="-359.5" font-family="Helvetica,sans-Serif" font-size="10.00">Piduino</text>
</g>
<!-- Node1&#45;&gt;Node8 -->
<g id="edge7" class="edge">
<title>Node1&#45;&gt;Node8</title>
<path fill="none" stroke="blueviolet" stroke-dasharray="5,2" d="M51.89,-296.13C61.47,-301.17 73.67,-307.17 85,-311.5 107.81,-320.21 134.07,-327.61 155.44,-333"/>
<text text-anchor="middle" x="103.5" y="-326.5" font-family="Helvetica,sans-Serif" font-size="10.00">Piduino</text>
</g>
<!-- Node1&#45;&gt;Node9 -->
<g id="edge8" class="edge">
<title>Node1&#45;&gt;Node9</title>
<path fill="none" stroke="blueviolet" stroke-dasharray="5,2" d="M67.38,-290.34C93.72,-293.42 130.72,-297.75 158.45,-300.99"/>
<text text-anchor="middle" x="103.5" y="-299.5" font-family="Helvetica,sans-Serif" font-size="10.00">Piduino</text>
</g>
<!-- Node1&#45;&gt;Node10 -->
<g id="edge9" class="edge">
<title>Node1&#45;&gt;Node10</title>
<path fill="none" stroke="blueviolet" stroke-dasharray="5,2" d="M64.42,-276.96C71.13,-275.17 78.26,-273.54 85,-272.5 111.73,-268.38 142.45,-267.55 164.95,-267.66"/>
<text text-anchor="middle" x="103.5" y="-275.5" font-family="Helvetica,sans-Serif" font-size="10.00">Piduino</text>
</g>
<!-- Node1&#45;&gt;Node11 -->
<g id="edge10" class="edge">
<title>Node1&#45;&gt;Node11</title>
<path fill="none" stroke="blueviolet" stroke-dasharray="5,2" d="M46.21,-276.95C56.01,-269.46 70.64,-259.34 85,-253.5 110.88,-242.97 142.23,-237.37 165.17,-234.46"/>
<text text-anchor="middle" x="103.5" y="-256.5" font-family="Helvetica,sans-Serif" font-size="10.00">Piduino</text>
</g>
<!-- Node12 -->
<g id="Node000012" class="node">
<title>Node12</title>
<g id="a_Node000012"><a xlink:href="group__piduino__soc.html" target="_top" xlink:title=" ">
<polygon fill="white" stroke="#666666" points="215.5,-204 180.5,-204 180.5,-185 215.5,-185 215.5,-204"/>
<text text-anchor="middle" x="198" y="-192" font-family="Helvetica,sans-Serif" font-size="10.00">SoC</text>
</a>
</g>
</g>
<!-- Node1&#45;&gt;Node12 -->
<g id="edge11" class="edge">
<title>Node1&#45;&gt;Node12</title>
<path fill="none" stroke="blueviolet" stroke-dasharray="5,2" d="M40.04,-276.85C48.19,-263.54 64.66,-239.67 85,-226.5 115.04,-207.04 157.08,-199.19 180.17,-196.2"/>
<text text-anchor="middle" x="103.5" y="-229.5" font-family="Helvetica,sans-Serif" font-size="10.00">Piduino</text>
</g>
<!-- Node13 -->
<g id="Node000013" class="node">
<title>Node13</title>
<g id="a_Node000013"><a xlink:href="group__piduino__spidev.html" target="_top" xlink:title=" ">
<polygon fill="white" stroke="#666666" points="224.5,-167 171.5,-167 171.5,-148 224.5,-148 224.5,-167"/>
<text text-anchor="middle" x="198" y="-155" font-family="Helvetica,sans-Serif" font-size="10.00">SPI Bus</text>
</a>
</g>
</g>
<!-- Node1&#45;&gt;Node13 -->
<g id="edge12" class="edge">
<title>Node1&#45;&gt;Node13</title>
<path fill="none" stroke="blueviolet" stroke-dasharray="5,2" d="M37.17,-276.9C42.84,-258.28 57.83,-217.11 85,-194.5 109.87,-173.81 146.71,-164.56 171.26,-160.52"/>
<text text-anchor="middle" x="103.5" y="-197.5" font-family="Helvetica,sans-Serif" font-size="10.00">Piduino</text>
</g>
<!-- Node14 -->
<g id="Node000014" class="node">
<title>Node14</title>
<g id="a_Node000014"><a xlink:href="group__piduino__syslog.html" target="_top" xlink:title=" ">
<polygon fill="white" stroke="#666666" points="247,-130 149,-130 149,-111 247,-111 247,-130"/>
<text text-anchor="middle" x="198" y="-118" font-family="Helvetica,sans-Serif" font-size="10.00">Gestion des logs</text>
</a>
</g>
</g>
<!-- Node1&#45;&gt;Node14 -->
<g id="edge13" class="edge">
<title>Node1&#45;&gt;Node14</title>
<path fill="none" stroke="blueviolet" stroke-dasharray="5,2" d="M35.55,-276.97C38.63,-253.48 49.8,-192.21 85,-158.5 102.28,-141.95 127.02,-132.6 148.86,-127.31"/>
<text text-anchor="middle" x="103.5" y="-161.5" font-family="Helvetica,sans-Serif" font-size="10.00">Piduino</text>
</g>
<!-- Node15 -->
<g id="Node000015" class="node">
<title>Node15</title>
<g id="a_Node000015"><a xlink:href="group__piduino__system.html" target="_top" xlink:title=" ">
<polygon fill="white" stroke="#666666" points="224.5,-93 171.5,-93 171.5,-74 224.5,-74 224.5,-93"/>
<text text-anchor="middle" x="198" y="-81" font-family="Helvetica,sans-Serif" font-size="10.00">System</text>
</a>
</g>
</g>
<!-- Node1&#45;&gt;Node15 -->
<g id="edge14" class="edge">
<title>Node1&#45;&gt;Node15</title>
<path fill="none" stroke="blueviolet" stroke-dasharray="5,2" d="M34.57,-276.82C35.32,-248.8 41.31,-166.77 85,-121.5 107.81,-97.86 145.86,-88.93 171.19,-85.55"/>
<text text-anchor="middle" x="103.5" y="-124.5" font-family="Helvetica,sans-Serif" font-size="10.00">Piduino</text>
</g>
<!-- Node16 -->
<g id="Node000016" class="node">
<title>Node16</title>
<g id="a_Node000016"><a xlink:href="group__piduino__terminal.html" target="_top" xlink:title=" ">
<polygon fill="white" stroke="#666666" points="227.5,-56 168.5,-56 168.5,-37 227.5,-37 227.5,-56"/>
<text text-anchor="middle" x="198" y="-44" font-family="Helvetica,sans-Serif" font-size="10.00">Terminal</text>
</a>
</g>
</g>
<!-- Node1&#45;&gt;Node16 -->
<g id="edge15" class="edge">
<title>Node1&#45;&gt;Node16</title>
<path fill="none" stroke="blueviolet" stroke-dasharray="5,2" d="M35.67,-276.83C40.23,-240.49 57.96,-112.66 85,-83.5 106.44,-60.38 142.62,-51.68 168.04,-48.43"/>
<text text-anchor="middle" x="103.5" y="-86.5" font-family="Helvetica,sans-Serif" font-size="10.00">Piduino</text>
</g>
<!-- Node17 -->
<g id="Node000017" class="node">
<title>Node17</title>
<g id="a_Node000017"><a xlink:href="group__piduino__terminalnotifier.html" target="_top" xlink:title=" ">
<polygon fill="white" stroke="#666666" points="238,-19 158,-19 158,0 238,0 238,-19"/>
<text text-anchor="middle" x="198" y="-7" font-family="Helvetica,sans-Serif" font-size="10.00">Read Notifier</text>
</a>
</g>
</g>
<!-- Node1&#45;&gt;Node17 -->
<g id="edge16" class="edge">
<title>Node1&#45;&gt;Node17</title>
<path fill="none" stroke="blueviolet" stroke-dasharray="5,2" d="M35.22,-276.97C38.46,-236.56 52.92,-79.86 85,-44.5 103.48,-24.13 133.62,-15.51 157.97,-11.91"/>
<text text-anchor="middle" x="103.5" y="-47.5" font-family="Helvetica,sans-Serif" font-size="10.00">Piduino</text>
</g>
</g>
</svg>
