<?xml version="1.0" encoding="UTF-8" standalone="no"?>
<!DOCTYPE svg PUBLIC "-//W3C//DTD SVG 1.1//EN"
 "http://www.w3.org/Graphics/SVG/1.1/DTD/svg11.dtd">
<!-- Generated by graphviz version 2.43.0 (0)
 -->
<!-- Title: Fichier configuration Pages: 1 -->
<!--zoomable 582 -->

<svg id="main" version="1.1" xmlns="http://www.w3.org/2000/svg" xmlns:xlink="http://www.w3.org/1999/xlink" xml:space="preserve" onload="init(evt)">
<style type="text/css"><![CDATA[
.node, .edge {opacity: 0.7;}
.node.selected, .edge.selected {opacity: 1;}
.edge:hover path { stroke: red; }
.edge:hover polygon { stroke: red; fill: red; }
]]></style>

<defs>
  <circle id="rim" cx="0" cy="0" r="7"/>
  <circle id="rim2" cx="0" cy="0" r="3.5"/>
  <g id="zoomPlus">
    <use xlink:href="#rim" fill="#404040"><set attributeName="fill" to="#808080" begin="zoomplus.mouseover" end="zoomplus.mouseout"/></use>
    <path d="M-4,0h8M0,-4v8" fill="none" stroke="white" stroke-width="1.5" pointer-events="none"/>
  </g>
  <g id="zoomMin">
    <use xlink:href="#rim" fill="#404040"><set attributeName="fill" to="#808080" begin="zoomminus.mouseover" end="zoomminus.mouseout"/></use>
    <path d="M-4,0h8" fill="none" stroke="white" stroke-width="1.5" pointer-events="none"/>
  </g>
  <g id="arrowUp" transform="translate(30 24)">
    <use xlink:href="#rim"/>
    <path pointer-events="none" fill="none" stroke="white" stroke-width="1.5" d="M0,-3.0v7 M-2.5,-0.5L0,-3.0L2.5,-0.5"/>
  </g>
  <g id="arrowRight" transform="rotate(90) translate(36 -43)">
    <use xlink:href="#rim"/>
    <path pointer-events="none" fill="none" stroke="white" stroke-width="1.5" d="M0,-3.0v7 M-2.5,-0.5L0,-3.0L2.5,-0.5"/>
  </g>
  <g id="arrowDown" transform="rotate(180) translate(-30 -48)">
    <use xlink:href="#rim"/>
    <path pointer-events="none" fill="none" stroke="white" stroke-width="1.5" d="M0,-3.0v7 M-2.5,-0.5L0,-3.0L2.5,-0.5"/>
  </g>
  <g id="arrowLeft" transform="rotate(270) translate(-36 17)">
    <use xlink:href="#rim"/>
    <path pointer-events="none" fill="none" stroke="white" stroke-width="1.5" d="M0,-3.0v7 M-2.5,-0.5L0,-3.0L2.5,-0.5"/>
  </g>
  <g id="resetDef">
    <use xlink:href="#rim2" fill="#404040"><set attributeName="fill" to="#808080" begin="reset.mouseover" end="reset.mouseout"/></use>
  </g>
</defs>
<script type="application/ecmascript">
var viewWidth = 304;
var viewHeight = 582;
var sectionId = 'dynsection-0';
</script>
<script type="application/ecmascript" xlink:href="svg.min.js"/>
<svg id="graph" class="graph">
<g id="viewport">
<title>Fichier configuration</title>
<!-- Node2 -->
<g id="Node000002" class="node">
<title>Node2</title>
<g id="a_Node000002"><a xlink:href="group__piduino__board.html" target="_top" xlink:title=" ">
<polygon fill="white" stroke="#666666" points="265,-574 220,-574 220,-555 265,-555 265,-574"/>
<text text-anchor="middle" x="242.5" y="-562" font-family="Helvetica,sans-Serif" font-size="10.00">Board</text>
</a>
</g>
</g>
<!-- Node1 -->
<g id="Node000001" class="node">
<title>Node1</title>
<g id="a_Node000001"><a xlink:title=" ">
<polygon fill="#999999" stroke="#666666" points="116,-296 0,-296 0,-277 116,-277 116,-296"/>
<text text-anchor="middle" x="58" y="-284" font-family="Helvetica,sans-Serif" font-size="10.00">Fichier configuration</text>
</a>
</g>
</g>
<!-- Node1&#45;&gt;Node2 -->
<g id="edge1" class="edge">
<title>Node1&#45;&gt;Node2</title>
<path fill="none" stroke="blueviolet" stroke-dasharray="5,2" d="M59.34,-296.44C61.08,-331.81 71.54,-453.2 134,-522.5 156.4,-547.36 195.32,-557.66 219.68,-561.81"/>
<text text-anchor="middle" x="152.5" y="-549.5" font-family="Helvetica,sans-Serif" font-size="10.00">Piduino</text>
</g>
<!-- Node3 -->
<g id="Node000003" class="node">
<title>Node3</title>
<g id="a_Node000003"><a xlink:href="group__piduino__database.html" target="_top" xlink:title=" ">
<polygon fill="white" stroke="#666666" points="274,-537 211,-537 211,-518 274,-518 274,-537"/>
<text text-anchor="middle" x="242.5" y="-525" font-family="Helvetica,sans-Serif" font-size="10.00">Database</text>
</a>
</g>
</g>
<!-- Node1&#45;&gt;Node3 -->
<g id="edge2" class="edge">
<title>Node1&#45;&gt;Node3</title>
<path fill="none" stroke="blueviolet" stroke-dasharray="5,2" d="M60.21,-296.38C64.5,-327.56 81.67,-425.19 134,-482.5 154.05,-504.46 186.52,-516.04 210.54,-521.92"/>
<text text-anchor="middle" x="152.5" y="-510.5" font-family="Helvetica,sans-Serif" font-size="10.00">Piduino</text>
</g>
<!-- Node4 -->
<g id="Node000004" class="node">
<title>Node4</title>
<g id="a_Node000004"><a xlink:href="group__piduino__filedevice.html" target="_top" xlink:title=" ">
<polygon fill="white" stroke="#666666" points="278,-500 207,-500 207,-481 278,-481 278,-500"/>
<text text-anchor="middle" x="242.5" y="-488" font-family="Helvetica,sans-Serif" font-size="10.00">File Device</text>
</a>
</g>
</g>
<!-- Node1&#45;&gt;Node4 -->
<g id="edge3" class="edge">
<title>Node1&#45;&gt;Node4</title>
<path fill="none" stroke="blueviolet" stroke-dasharray="5,2" d="M61.38,-296.12C68.34,-322.52 90.95,-397.18 134,-442.5 153.57,-463.1 183.58,-475.48 206.92,-482.49"/>
<text text-anchor="middle" x="152.5" y="-470.5" font-family="Helvetica,sans-Serif" font-size="10.00">Piduino</text>
</g>
<!-- Node5 -->
<g id="Node000005" class="node">
<title>Node5</title>
<g id="a_Node000005"><a xlink:href="group__piduino__filestream.html" target="_top" xlink:title=" ">
<polygon fill="white" stroke="#666666" points="278.5,-463 206.5,-463 206.5,-444 278.5,-444 278.5,-463"/>
<text text-anchor="middle" x="242.5" y="-451" font-family="Helvetica,sans-Serif" font-size="10.00">File Stream</text>
</a>
</g>
</g>
<!-- Node1&#45;&gt;Node5 -->
<g id="edge4" class="edge">
<title>Node1&#45;&gt;Node5</title>
<path fill="none" stroke="blueviolet" stroke-dasharray="5,2" d="M63.14,-296.17C72.81,-317.86 98.78,-371.09 134,-404.5 154.31,-423.77 183.53,-436.42 206.38,-444.03"/>
<text text-anchor="middle" x="152.5" y="-430.5" font-family="Helvetica,sans-Serif" font-size="10.00">Piduino</text>
</g>
<!-- Node6 -->
<g id="Node000006" class="node">
<title>Node6</title>
<g id="a_Node000006"><a xlink:href="group__piduino__global.html" target="_top" xlink:title=" ">
<polygon fill="white" stroke="#666666" points="293.5,-426 191.5,-426 191.5,-407 293.5,-407 293.5,-426"/>
<text text-anchor="middle" x="242.5" y="-414" font-family="Helvetica,sans-Serif" font-size="10.00">Global definitions</text>
</a>
</g>
</g>
<!-- Node1&#45;&gt;Node6 -->
<g id="edge5" class="edge">
<title>Node1&#45;&gt;Node6</title>
<path fill="none" stroke="blueviolet" stroke-dasharray="5,2" d="M66.02,-296.05C78.39,-312.39 105.45,-346.13 134,-368.5 155.92,-385.67 163.52,-387.28 189,-398.5 195.97,-401.57 203.63,-404.46 210.9,-406.98"/>
<text text-anchor="middle" x="152.5" y="-392.5" font-family="Helvetica,sans-Serif" font-size="10.00">Piduino</text>
</g>
<!-- Node7 -->
<g id="Node000007" class="node">
<title>Node7</title>
<g id="a_Node000007"><a xlink:href="group__piduino__iomap.html" target="_top" xlink:title=" ">
<polygon fill="white" stroke="#666666" points="296,-389 189,-389 189,-370 296,-370 296,-389"/>
<text text-anchor="middle" x="242.5" y="-377" font-family="Helvetica,sans-Serif" font-size="10.00">IO Memory Access</text>
</a>
</g>
</g>
<!-- Node1&#45;&gt;Node7 -->
<g id="edge6" class="edge">
<title>Node1&#45;&gt;Node7</title>
<path fill="none" stroke="blueviolet" stroke-dasharray="5,2" d="M71.54,-296.1C86.08,-306.96 110.98,-324.79 134,-337.5 157.35,-350.39 164.14,-351.83 189,-361.5 196.45,-364.4 204.59,-367.31 212.19,-369.92"/>
<text text-anchor="middle" x="152.5" y="-356.5" font-family="Helvetica,sans-Serif" font-size="10.00">Piduino</text>
</g>
<!-- Node8 -->
<g id="Node000008" class="node">
<title>Node8</title>
<g id="a_Node000008"><a xlink:href="group__piduino__linearbuffer.html" target="_top" xlink:title=" ">
<polygon fill="white" stroke="#666666" points="282,-352 203,-352 203,-333 282,-333 282,-352"/>
<text text-anchor="middle" x="242.5" y="-340" font-family="Helvetica,sans-Serif" font-size="10.00">Linear Buffer</text>
</a>
</g>
</g>
<!-- Node1&#45;&gt;Node8 -->
<g id="edge7" class="edge">
<title>Node1&#45;&gt;Node8</title>
<path fill="none" stroke="blueviolet" stroke-dasharray="5,2" d="M85.25,-296.04C99.58,-301.14 117.69,-307.4 134,-312.5 157.49,-319.84 184.13,-327.28 205.01,-332.92"/>
<text text-anchor="middle" x="152.5" y="-325.5" font-family="Helvetica,sans-Serif" font-size="10.00">Piduino</text>
</g>
<!-- Node9 -->
<g id="Node000009" class="node">
<title>Node9</title>
<g id="a_Node000009"><a xlink:href="group__piduino__manufacturer.html" target="_top" xlink:title=" ">
<polygon fill="white" stroke="#666666" points="275.5,-315 209.5,-315 209.5,-296 275.5,-296 275.5,-315"/>
<text text-anchor="middle" x="242.5" y="-303" font-family="Helvetica,sans-Serif" font-size="10.00">Fabricants</text>
</a>
</g>
</g>
<!-- Node1&#45;&gt;Node9 -->
<g id="edge8" class="edge">
<title>Node1&#45;&gt;Node9</title>
<path fill="none" stroke="blueviolet" stroke-dasharray="5,2" d="M116.24,-292.46C146.98,-295.66 183.71,-299.48 209.43,-302.16"/>
<text text-anchor="middle" x="152.5" y="-300.5" font-family="Helvetica,sans-Serif" font-size="10.00">Piduino</text>
</g>
<!-- Node10 -->
<g id="Node000010" class="node">
<title>Node10</title>
<g id="a_Node000010"><a xlink:href="group__piduino__sceduler.html" target="_top" xlink:title=" ">
<polygon fill="white" stroke="#666666" points="275,-278 210,-278 210,-259 275,-259 275,-278"/>
<text text-anchor="middle" x="242.5" y="-266" font-family="Helvetica,sans-Serif" font-size="10.00">Scheduler</text>
</a>
</g>
</g>
<!-- Node1&#45;&gt;Node10 -->
<g id="edge9" class="edge">
<title>Node1&#45;&gt;Node10</title>
<path fill="none" stroke="blueviolet" stroke-dasharray="5,2" d="M104.05,-276.98C113.88,-275.21 124.26,-273.58 134,-272.5 159.43,-269.67 188.43,-268.72 209.89,-268.45"/>
<text text-anchor="middle" x="152.5" y="-275.5" font-family="Helvetica,sans-Serif" font-size="10.00">Piduino</text>
</g>
<!-- Node11 -->
<g id="Node000011" class="node">
<title>Node11</title>
<g id="a_Node000011"><a xlink:href="group__piduino__serialport.html" target="_top" xlink:title=" ">
<polygon fill="white" stroke="#666666" points="276,-241 209,-241 209,-222 276,-222 276,-241"/>
<text text-anchor="middle" x="242.5" y="-229" font-family="Helvetica,sans-Serif" font-size="10.00">Serial port</text>
</a>
</g>
</g>
<!-- Node1&#45;&gt;Node11 -->
<g id="edge10" class="edge">
<title>Node1&#45;&gt;Node11</title>
<path fill="none" stroke="blueviolet" stroke-dasharray="5,2" d="M78.66,-276.88C93.56,-269.89 114.7,-260.62 134,-254.5 158.56,-246.71 187.11,-240.74 208.62,-236.84"/>
<text text-anchor="middle" x="152.5" y="-257.5" font-family="Helvetica,sans-Serif" font-size="10.00">Piduino</text>
</g>
<!-- Node12 -->
<g id="Node000012" class="node">
<title>Node12</title>
<g id="a_Node000012"><a xlink:href="group__piduino__soc.html" target="_top" xlink:title=" ">
<polygon fill="white" stroke="#666666" points="260,-204 225,-204 225,-185 260,-185 260,-204"/>
<text text-anchor="middle" x="242.5" y="-192" font-family="Helvetica,sans-Serif" font-size="10.00">SoC</text>
</a>
</g>
</g>
<!-- Node1&#45;&gt;Node12 -->
<g id="edge11" class="edge">
<title>Node1&#45;&gt;Node12</title>
<path fill="none" stroke="blueviolet" stroke-dasharray="5,2" d="M69.4,-276.76C83.2,-264.29 108.79,-242.7 134,-229.5 164.26,-213.66 203.05,-203.18 224.79,-198.1"/>
<text text-anchor="middle" x="152.5" y="-232.5" font-family="Helvetica,sans-Serif" font-size="10.00">Piduino</text>
</g>
<!-- Node13 -->
<g id="Node000013" class="node">
<title>Node13</title>
<g id="a_Node000013"><a xlink:href="group__piduino__spidev.html" target="_top" xlink:title=" ">
<polygon fill="white" stroke="#666666" points="269,-167 216,-167 216,-148 269,-148 269,-167"/>
<text text-anchor="middle" x="242.5" y="-155" font-family="Helvetica,sans-Serif" font-size="10.00">SPI Bus</text>
</a>
</g>
</g>
<!-- Node1&#45;&gt;Node13 -->
<g id="edge12" class="edge">
<title>Node1&#45;&gt;Node13</title>
<path fill="none" stroke="blueviolet" stroke-dasharray="5,2" d="M65.09,-276.85C76.6,-259.29 103.17,-221.87 134,-199.5 158.97,-181.38 192.8,-169.86 215.8,-163.56"/>
<text text-anchor="middle" x="152.5" y="-202.5" font-family="Helvetica,sans-Serif" font-size="10.00">Piduino</text>
</g>
<!-- Node14 -->
<g id="Node000014" class="node">
<title>Node14</title>
<g id="a_Node000014"><a xlink:href="group__piduino__syslog.html" target="_top" xlink:title=" ">
<polygon fill="white" stroke="#666666" points="291.5,-130 193.5,-130 193.5,-111 291.5,-111 291.5,-130"/>
<text text-anchor="middle" x="242.5" y="-118" font-family="Helvetica,sans-Serif" font-size="10.00">Gestion des logs</text>
</a>
</g>
</g>
<!-- Node1&#45;&gt;Node14 -->
<g id="edge13" class="edge">
<title>Node1&#45;&gt;Node14</title>
<path fill="none" stroke="blueviolet" stroke-dasharray="5,2" d="M62.58,-276.94C71.42,-254.48 96.35,-197.73 134,-164.5 153.05,-147.69 179.39,-136.76 201.23,-130.01"/>
<text text-anchor="middle" x="152.5" y="-167.5" font-family="Helvetica,sans-Serif" font-size="10.00">Piduino</text>
</g>
<!-- Node15 -->
<g id="Node000015" class="node">
<title>Node15</title>
<g id="a_Node000015"><a xlink:href="group__piduino__system.html" target="_top" xlink:title=" ">
<polygon fill="white" stroke="#666666" points="269,-93 216,-93 216,-74 269,-74 269,-93"/>
<text text-anchor="middle" x="242.5" y="-81" font-family="Helvetica,sans-Serif" font-size="10.00">System</text>
</a>
</g>
</g>
<!-- Node1&#45;&gt;Node15 -->
<g id="edge14" class="edge">
<title>Node1&#45;&gt;Node15</title>
<path fill="none" stroke="blueviolet" stroke-dasharray="5,2" d="M61.06,-276.92C67.33,-249.92 88.58,-172.29 134,-127.5 156.54,-105.27 191.87,-93.76 215.82,-88.18"/>
<text text-anchor="middle" x="152.5" y="-130.5" font-family="Helvetica,sans-Serif" font-size="10.00">Piduino</text>
</g>
<!-- Node16 -->
<g id="Node000016" class="node">
<title>Node16</title>
<g id="a_Node000016"><a xlink:href="group__piduino__terminal.html" target="_top" xlink:title=" ">
<polygon fill="white" stroke="#666666" points="272,-56 213,-56 213,-37 272,-37 272,-56"/>
<text text-anchor="middle" x="242.5" y="-44" font-family="Helvetica,sans-Serif" font-size="10.00">Terminal</text>
</a>
</g>
</g>
<!-- Node1&#45;&gt;Node16 -->
<g id="edge15" class="edge">
<title>Node1&#45;&gt;Node16</title>
<path fill="none" stroke="blueviolet" stroke-dasharray="5,2" d="M59.93,-276.74C63.44,-245.07 78.69,-143.93 134,-87.5 155.11,-65.96 188.72,-55.57 212.74,-50.66"/>
<text text-anchor="middle" x="152.5" y="-90.5" font-family="Helvetica,sans-Serif" font-size="10.00">Piduino</text>
</g>
<!-- Node17 -->
<g id="Node000017" class="node">
<title>Node17</title>
<g id="a_Node000017"><a xlink:href="group__piduino__terminalnotifier.html" target="_top" xlink:title=" ">
<polygon fill="white" stroke="#666666" points="282.5,-19 202.5,-19 202.5,0 282.5,0 282.5,-19"/>
<text text-anchor="middle" x="242.5" y="-7" font-family="Helvetica,sans-Serif" font-size="10.00">Read Notifier</text>
</a>
</g>
</g>
<!-- Node1&#45;&gt;Node17 -->
<g id="edge16" class="edge">
<title>Node1&#45;&gt;Node17</title>
<path fill="none" stroke="blueviolet" stroke-dasharray="5,2" d="M59.15,-276.83C60.22,-241.34 68.69,-116.72 134,-48.5 151.92,-29.79 179.5,-20.02 202.24,-14.94"/>
<text text-anchor="middle" x="152.5" y="-51.5" font-family="Helvetica,sans-Serif" font-size="10.00">Piduino</text>
</g>
</g>
</svg>

<g id="navigator" transform="translate(0 0)" fill="#404254">
  <rect fill="#f2f5e9" fill-opacity="0.5" stroke="#606060" stroke-width=".5" x="0" y="0" width="60" height="60"/>
  <use id="zoomplus" xlink:href="#zoomPlus" x="17" y="9" onmousedown="handleZoom(evt,'in')"/>
  <use id="zoomminus" xlink:href="#zoomMin" x="42" y="9" onmousedown="handleZoom(evt,'out')"/>
  <use id="reset" xlink:href="#resetDef" x="30" y="36" onmousedown="handleReset()"/>
   <use id="arrowup" xlink:href="#arrowUp" x="0" y="0" onmousedown="handlePan(0,-1)"/>
  <use id="arrowright" xlink:href="#arrowRight" x="0" y="0" onmousedown="handlePan(1,0)"/>
  <use id="arrowdown" xlink:href="#arrowDown" x="0" y="0" onmousedown="handlePan(0,1)"/>
  <use id="arrowleft" xlink:href="#arrowLeft" x="0" y="0" onmousedown="handlePan(-1,0)"/>
</g>
<svg viewBox="0 0 15 15" width="100%" height="30px" preserveAspectRatio="xMaxYMin meet">
 <g id="arrow_out" transform="scale(0.3 0.3)">
  <a xlink:href="group__piduino__configfile_org.svg" target="_base">
   <rect id="button" ry="5" rx="5" y="6" x="6" height="38" width="38"
        fill="#f2f5e9" fill-opacity="0.5" stroke="#606060" stroke-width="1.0"/>
   <path id="arrow"
     d="M 11.500037,31.436501 C 11.940474,20.09759 22.043105,11.32322 32.158766,21.979434 L 37.068811,17.246167 C 37.068811,17.246167 37.088388,32 37.088388,32 L 22.160133,31.978069 C 22.160133,31.978069 26.997745,27.140456 26.997745,27.140456 C 18.528582,18.264221 13.291696,25.230495 11.500037,31.436501 z"
     style="fill:#404040;"/>
  </a>
 </g>
</svg>

<style type='text/css'>
<![CDATA[
[data-mouse-over-selected='false'] { opacity: 0.7; }
[data-mouse-over-selected='true']  { opacity: 1.0; }
]]>
</style>
<script type="application/ecmascript"><![CDATA[
document.addEventListener('DOMContentLoaded', (event) => {
  highlightEdges();
  highlightAdjacentNodes();
});
]]></script>
</svg>
