<?xml version="1.0" encoding="UTF-8" standalone="no"?>
<!DOCTYPE svg PUBLIC "-//W3C//DTD SVG 1.1//EN"
 "http://www.w3.org/Graphics/SVG/1.1/DTD/svg11.dtd">
<!-- Generated by graphviz version 2.43.0 (0)
 -->
<!-- Title: Graphical Class Hierarchy Pages: 1 -->
<svg width="424pt" height="64pt"
 viewBox="0.00 0.00 424.00 64.00" xmlns="http://www.w3.org/2000/svg" xmlns:xlink="http://www.w3.org/1999/xlink">
<g id="graph0" class="graph" transform="scale(1 1) rotate(0) translate(4 60)">
<title>Graphical Class Hierarchy</title>
<!-- Node0 -->
<g id="Node000000" class="node">
<title>Node0</title>
<g id="a_Node000000"><a xlink:href="class_piduino_1_1_option.html" target="_top" xlink:title="Abstract Base class for Options.">
<polygon fill="white" stroke="#666666" points="91,-37 0,-37 0,-18 91,-18 91,-37"/>
<text text-anchor="middle" x="45.5" y="-25" font-family="Helvetica,sans-Serif" font-size="10.00">Piduino::Option</text>
</a>
</g>
</g>
<!-- Node1 -->
<g id="Node000001" class="node">
<title>Node1</title>
<g id="a_Node000001"><a xlink:href="class_piduino_1_1_value.html" target="_top" xlink:title=" ">
<polygon fill="white" stroke="#666666" points="256,-56 127,-56 127,-37 256,-37 256,-56"/>
<text text-anchor="middle" x="191.5" y="-44" font-family="Helvetica,sans-Serif" font-size="10.00">Piduino::Value&lt; bool &gt;</text>
</a>
</g>
</g>
<!-- Node0&#45;&gt;Node1 -->
<g id="edge24_Node000000_Node000001" class="edge">
<title>Node0&#45;&gt;Node1</title>
<g id="a_edge24_Node000000_Node000001"><a xlink:title=" ">
<path fill="none" stroke="#63b8ff" d="M101.31,-34.73C109.7,-35.84 118.43,-36.99 126.99,-38.12"/>
<polygon fill="#63b8ff" stroke="#63b8ff" points="101.65,-31.25 91.27,-33.41 100.73,-38.19 101.65,-31.25"/>
</a>
</g>
</g>
<!-- Node3 -->
<g id="Node000003" class="node">
<title>Node3</title>
<g id="a_Node000003"><a xlink:href="class_piduino_1_1_value.html" target="_top" xlink:title="Value option with optional default value.">
<polygon fill="white" stroke="#666666" points="248.5,-19 134.5,-19 134.5,0 248.5,0 248.5,-19"/>
<text text-anchor="middle" x="191.5" y="-7" font-family="Helvetica,sans-Serif" font-size="10.00">Piduino::Value&lt; T &gt;</text>
</a>
</g>
</g>
<!-- Node0&#45;&gt;Node3 -->
<g id="edge26_Node000000_Node000003" class="edge">
<title>Node0&#45;&gt;Node3</title>
<g id="a_edge26_Node000000_Node000003"><a xlink:title=" ">
<path fill="none" stroke="#63b8ff" d="M101.41,-20.64C112.18,-19.29 123.5,-17.87 134.32,-16.52"/>
<polygon fill="#63b8ff" stroke="#63b8ff" points="100.76,-17.19 91.27,-21.9 101.63,-24.14 100.76,-17.19"/>
</a>
</g>
</g>
<!-- Node2 -->
<g id="Node000002" class="node">
<title>Node2</title>
<g id="a_Node000002"><a xlink:href="class_piduino_1_1_switch.html" target="_top" xlink:title="Value option without value.">
<polygon fill="white" stroke="#666666" points="399.5,-56 308.5,-56 308.5,-37 399.5,-37 399.5,-56"/>
<text text-anchor="middle" x="354" y="-44" font-family="Helvetica,sans-Serif" font-size="10.00">Piduino::Switch</text>
</a>
</g>
</g>
<!-- Node1&#45;&gt;Node2 -->
<g id="edge25_Node000001_Node000002" class="edge">
<title>Node1&#45;&gt;Node2</title>
<g id="a_edge25_Node000001_Node000002"><a xlink:title=" ">
<path fill="none" stroke="#63b8ff" d="M266.63,-46.5C280.79,-46.5 295.2,-46.5 308.09,-46.5"/>
<polygon fill="#63b8ff" stroke="#63b8ff" points="266.4,-43 256.4,-46.5 266.39,-50 266.4,-43"/>
</a>
</g>
</g>
<!-- Node4 -->
<g id="Node000004" class="node">
<title>Node4</title>
<g id="a_Node000004"><a xlink:href="class_piduino_1_1_implicit.html" target="_top" xlink:title="Value option with implicit default value.">
<polygon fill="white" stroke="#666666" points="416,-19 292,-19 292,0 416,0 416,-19"/>
<text text-anchor="middle" x="354" y="-7" font-family="Helvetica,sans-Serif" font-size="10.00">Piduino::Implicit&lt; T &gt;</text>
</a>
</g>
</g>
<!-- Node3&#45;&gt;Node4 -->
<g id="edge27_Node000003_Node000004" class="edge">
<title>Node3&#45;&gt;Node4</title>
<g id="a_edge27_Node000003_Node000004"><a xlink:title=" ">
<path fill="none" stroke="#63b8ff" d="M258.64,-9.5C269.67,-9.5 281.08,-9.5 291.97,-9.5"/>
<polygon fill="#63b8ff" stroke="#63b8ff" points="258.64,-6 248.64,-9.5 258.64,-13 258.64,-6"/>
</a>
</g>
</g>
</g>
</svg>
